SplineFontDB: 3.0
FontName: Experiment-Tamil-Cursive
FullName: Experiment-Tamil
FamilyName: Experiemnt-Tamil
Weight: Cursive
Copyright: 
Version: 
ItalicAngle: 0
UnderlinePosition: -99
UnderlineWidth: 23
Ascent: 750
Descent: 250
InvalidEm: 0
LayerCount: 2
Layer: 0 0 "Back" 1
Layer: 1 0 "Fore" 0
PreferredKerning: 4
XUID: [1021 779 -1439063335 605102]
StyleMap: 0x0040
FSType: 0
OS2Version: 3
OS2_WeightWidthSlopeOnly: 0
OS2_UseTypoMetrics: 0
CreationTime: 1316601550
ModificationTime: 1468073292
PfmFamily: 17
TTFWeight: 400
TTFWidth: 5
LineGap: 0
VLineGap: 0
Panose: 2 0 6 0 0 0 0 0 0 0
OS2TypoAscent: 1367
OS2TypoAOffset: 0
OS2TypoDescent: -633
OS2TypoDOffset: 0
OS2TypoLinegap: 20
OS2WinAscent: 846
OS2WinAOffset: 0
OS2WinDescent: 354
OS2WinDOffset: 0
HheadAscent: 846
HheadAOffset: 0
HheadDescent: -371
HheadDOffset: 0
OS2SubXSize: 841
OS2SubYSize: 780
OS2SubXOff: 0
OS2SubYOff: 240
OS2SupXSize: 841
OS2SupYSize: 780
OS2SupXOff: 0
OS2SupYOff: 601
OS2StrikeYSize: 60
OS2StrikeYPos: 300
OS2CapHeight: -1
OS2XHeight: -1
OS2Vendor: 'ACE '
OS2CodePages: 00000001.00000000
OS2UnicodeRanges: 80108003.00002042.00000000.00000000
Lookup: 4 0 0 "'akhn' Akhand lookup 0" { "'akhn' Akhand lookup 0 subtable"  } ['akhn' ('taml' <'dflt' > 'tml2' <'dflt' > ) ]
Lookup: 4 0 0 "'abvs' Above Base Substitutions lookup 1" { "'abvs' Above Base Substitutions lookup 1 subtable"  } ['abvs' ('taml' <'dflt' > 'tml2' <'dflt' > ) ]
Lookup: 6 0 0 "'abvs' Above Base Substitutions lookup 2" { "'abvs' Above Base Substitutions lookup 2 subtable"  } ['abvs' ('taml' <'dflt' > 'tml2' <'dflt' > ) ]
Lookup: 4 0 0 "'psts' Post Base Substitutions lookup 3" { "'psts' Post Base Substitutions lookup 3 subtable"  } ['psts' ('taml' <'dflt' > 'tml2' <'dflt' > ) ]
Lookup: 4 0 0 "'psts' Post Base Substitutions lookup 4" { "'psts' Post Base Substitutions lookup 4 subtable"  } ['psts' ('taml' <'dflt' > 'tml2' <'dflt' > ) ]

StartChar: tml_Visarga
Encoding: 1 2947 1
GlifName: tml_V_isarga
Width: 775
VWidth: 30
Flags: HMW
LayerCount: 2
Fore
SplineSet
515.829101562 125.598632812 m 4
 512.3203125 85.4951171875 538.474609375 55.1943359375 587.854492188 55.1943359375 c 4
 634.034179688 55.1943359375 662.254882812 93.9140625 665.520507812 131.25 c 4
 669.342773438 174.93359375 643.380859375 205.741210938 596.982421875 205.741210938 c 4
 561.008789062 205.741210938 520.309570312 176.814453125 515.829101562 125.598632812 c 4
475.194335938 117.2109375 m 4
 482.083984375 195.96484375 546.918945312 245.512695312 610.026367188 245.512695312 c 4
 684.780273438 245.512695312 727.15625 189.356445312 721.495117188 124.642578125 c 4
 716.106445312 63.0537109375 672.434570312 2.9921875 588.373046875 2.9921875 c 4
 510.877929688 2.9921875 469.672851562 54.103515625 475.194335938 117.2109375 c 4
115.829101562 125.598632812 m 4
 112.3203125 85.4951171875 138.474609375 55.1943359375 187.854492188 55.1943359375 c 4
 234.034179688 55.1943359375 262.254882812 93.9140625 265.520507812 131.25 c 4
 269.342773438 174.93359375 243.380859375 205.741210938 196.982421875 205.741210938 c 4
 161.008789062 205.741210938 120.309570312 176.814453125 115.829101562 125.598632812 c 4
75.1943359375 117.2109375 m 4
 82.083984375 195.96484375 146.918945312 245.512695312 210.026367188 245.512695312 c 4
 284.780273438 245.512695312 327.15625 189.356445312 321.495117188 124.642578125 c 4
 316.106445312 63.0537109375 272.434570312 2.9921875 188.373046875 2.9921875 c 4
 110.877929688 2.9921875 69.6728515625 54.103515625 75.1943359375 117.2109375 c 4
337.325195312 485.598632812 m 4
 333.81640625 445.495117188 359.970703125 415.194335938 409.350585938 415.194335938 c 4
 455.530273438 415.194335938 483.75 453.9140625 487.016601562 491.25 c 4
 490.838867188 534.93359375 464.875976562 565.741210938 418.478515625 565.741210938 c 4
 382.50390625 565.741210938 341.805664062 536.814453125 337.325195312 485.598632812 c 4
296.690429688 477.2109375 m 4
 303.580078125 555.96484375 368.415039062 605.512695312 431.522460938 605.512695312 c 4
 506.276367188 605.512695312 548.65234375 549.356445312 542.990234375 484.642578125 c 4
 537.602539062 423.053710938 493.930664062 362.9921875 409.869140625 362.9921875 c 4
 332.373046875 362.9921875 291.168945312 414.103515625 296.690429688 477.2109375 c 4
EndSplineSet
EndChar

StartChar: tml_A
Encoding: 2 2949 2
GlifName: tml_A_
Width: 1254
VWidth: 0
Flags: HMW
LayerCount: 2
Fore
SplineSet
1051.42675781 -178 m 1
 1059.26269531 -115.1171875 1065.8046875 -68.609375 1074.96191406 11 c 1
 1122.46875 554 l 1
 1148.46191406 556.639648438 1198.515625 561.139648438 1213.08105469 561 c 1
 1149.12695312 -170 l 1
 1119.69335938 -174.466796875 1083.22851562 -177.713867188 1051.42675781 -178 c 1
68.849609375 44 m 0
 74.5380859375 120.572265625 145.23046875 157.276367188 228.735351562 157 c 0
 368.646484375 157.120117188 980.729492188 155.921875 1099.22265625 174 c 1
 1089.01171875 103 l 1
 234.01171875 103 l 2
 181.46875 103.428710938 135.650390625 90.08984375 132.19921875 48 c 0
 126.419921875 -22.4970703125 263.103515625 -80 440.000976562 -80 c 0
 700.018554688 -80 830.196289062 82.2578125 846.272460938 266 c 0
 861.944335938 445.141601562 749.499023438 511.34375 648.793945312 512 c 0
 534.224609375 512.719726562 464.153320312 450.467773438 455.80859375 375 c 0
 450.8125 329.823242188 483.327148438 297.938476562 531.071289062 298 c 0
 571.30859375 298.048828125 599.798828125 326.48046875 604.37109375 370 c 0
 612.134765625 443.685546875 540.004882812 471.12109375 483.732421875 477 c 1
 533.181640625 505 l 1
 593.639648438 500.793945312 685.358398438 461.302734375 676.93359375 365 c 0
 671.3359375 301.01953125 617.5625 234.354492188 529.47265625 234 c 0
 447.852539062 233.711914062 392.219726562 289.368164062 400.37109375 370 c 0
 411.858398438 484.294921875 520.723632812 571.05859375 659.043945312 572 c 0
 805.868164062 572.999023438 951.078125 469.524414062 932.134765625 253 c 0
 916.0234375 68.8505859375 752.586914062 -139 438.838867188 -139 c 0
 181.99609375 -139 62.2470703125 -44.8798828125 68.849609375 44 c 0
EndSplineSet
Colour: ffffff
EndChar

StartChar: tml_Aa
Encoding: 3 2950 3
GlifName: tml_A_a
Width: 1531
VWidth: 0
Flags: HMW
LayerCount: 2
Fore
SplineSet
691.561523438 -256.4765625 m 0
 699.20703125 -175.34765625 780.956054688 -142.033203125 869.666015625 -140.982421875 c 0
 899.322265625 -140.7578125 931.733398438 -144.104492188 957.7890625 -151 c 1
 957.768554688 -173.04296875 949.9765625 -187.435546875 938.58984375 -199 c 1
 920.51171875 -191.62109375 890.228515625 -188.310546875 864.505859375 -188.526367188 c 0
 802.583984375 -189.418945312 747.297851562 -202.337890625 743.21484375 -249 c 0
 738.036132812 -308.193359375 875.083007812 -347.458984375 1015.65332031 -346.868164062 c 0
 1267.75097656 -345.526367188 1361.59375 -217.161132812 1373.38867188 -87 c 0
 1379.71582031 -17.1708984375 1347.97460938 23.7451171875 1292.09960938 24 c 0
 1232.15332031 24.2734375 1157.69726562 -17.5810546875 1145.37597656 -110 c 1
 1127.45019531 -52 l 1
 1137.19042969 24.408203125 1229.19921875 91.212890625 1316.96191406 91 c 0
 1413.23242188 90.7607421875 1483.33886719 26.736328125 1473.56347656 -85 c 0
 1455.7265625 -288.879882812 1249.95019531 -401.732421875 1012.64160156 -404.15234375 c 0
 841.6953125 -405.583007812 682.1640625 -354.926757812 691.561523438 -256.4765625 c 0
EndSplineSet
Refer: 2 2949 N 1 0 0.0874887 1 0 0 2
Colour: ffffff
EndChar

StartChar: tml_I
Encoding: 4 2951 4
GlifName: tml_I_
Width: 1182
VWidth: 0
Flags: HMW
LayerCount: 2
Back
SplineSet
180 -106 m 4
 178.00390625 -170.856445312 227.814453125 -214.618164062 311 -215 c 4
 566.403320312 -216.0859375 856 -0.0146484375 856 244 c 4
 856 393.032226562 717.715820312 483 624 483 c 4
 512.909179688 483 423.176757812 423.764648438 424 321 c 4
 424.559570312 259.723632812 473.731445312 214.807617188 552 216 c 4
 629.755859375 217.423828125 691.059570312 260.526367188 690 336 c 4
 689.338867188 378.647460938 637.985351562 417.57421875 555 446 c 5
 518 426 l 5
 579.490234375 404.506835938 615 366.987304688 615 332 c 4
 615 299.688476562 585.740234375 265.938476562 542 266 c 4
 502.454101562 266.064453125 472.288085938 301.182617188 474 334 c 4
 477.453125 398.560546875 550.727539062 426.165039062 610 433 c 5
 704.692382812 433.543945312 770.81640625 328.004882812 767 231 c 4
 759.064453125 48.453125 545.850585938 -166 341 -166 c 4
 292.6953125 -166 236.536132812 -140.143554688 236 -97 c 4
 234.325195312 27.765625 422.602539062 77 574 77 c 4
 673.853515625 77 838.891601562 41.6123046875 838 -67 c 4
 837.60546875 -117.274414062 775.9765625 -151.133789062 722 -149 c 4
 446.014648438 -140.5625 246 85.6171875 246 316 c 4
 246 492.029296875 392.94140625 614 612 614 c 4
 835.408203125 614 979.140625 450.412109375 975 229 c 5
 975 -197 l 5
 1030 -193 l 5
 1030 268 l 6
 1030 508.12890625 883.77734375 701 624 701 c 4
 366.444335938 701 189.002929688 532.0625 194 289 c 4
 199.35546875 49.78515625 435.663085938 -215 741 -215 c 4
 829.553710938 -215 928.3984375 -154.684570312 925 -69 c 4
 921.077148438 29.9208984375 797.458007812 123 570 123 c 4
 391.493164062 123 186.071289062 56.8408203125 180 -106 c 4
EndSplineSet
Fore
SplineSet
76.3515625 -156 m 4
 65.2236328125 -260.860351562 150.059570312 -304.666992188 245.31640625 -305 c 4
 555.811523438 -306.111328125 805.817382812 -2.08203125 825.422851562 222 c 4
 841.297851562 403.458007812 729.96484375 513 590.881835938 513 c 4
 470.92578125 513 393.500976562 427.286132812 386.833984375 341 c 4
 381.548828125 272.264648438 429.615234375 210.522460938 515.547851562 212 c 4
 593.431640625 213.399414062 658.791015625 263.944335938 665.795898438 352 c 4
 671.248046875 420.588867188 633.21875 460.713867188 564.994140625 480 c 5
 546.245117188 460 l 5
 574.029296875 444.09765625 598.6640625 407.63671875 594.49609375 360 c 4
 591.326171875 323.771484375 557.553710938 285.9296875 512.021484375 286 c 4
 471.899414062 286.061523438 445.880859375 310.046875 448.708984375 351 c 4
 453.216796875 416.283203125 513.982421875 452.4296875 575.45703125 451 c 5
 684.684570312 451.672851562 753.140625 358.17578125 734.584960938 201 c 4
 713.43359375 21.8330078125 546.010742188 -245 256.565429688 -245 c 4
 173.380859375 -245 126.778320312 -212.856445312 131.876953125 -150 c 4
 141.866210938 -27.060546875 318.563476562 51 520.461914062 51 c 4
 688.373046875 51 842.584960938 -36.146484375 832.139648438 -147 c 4
 827.56640625 -195.470703125 792.106445312 -234.116210938 708.52734375 -234 c 4
 399.966796875 -233.575195312 203.413085938 73.306640625 223.771484375 306 c 4
 245.46484375 553.958007812 415.985351562 671 639.705078125 671 c 4
 949.424804688 671 1066.79394531 470.4453125 1038.41015625 199 c 5
 1021.26269531 3 l 5
 1015.79199219 -45.2138671875 1007.08105469 -107.28515625 999.564453125 -165 c 5
 1067.56445312 -165 l 5
 1107.19628906 288 l 6
 1129.31835938 540.850585938 980.888671875 765 674.928710938 765 c 4
 374.506835938 765 181.612304688 572.083984375 161.984375 297 c 4
 140.391601562 -6.3408203125 380.208984375 -305 696.31640625 -305 c 4
 853.1328125 -305 919.2890625 -223.465820312 924.2265625 -146 c 4
 935.271484375 27.921875 698.864257812 105 526.186523438 105 c 4
 348.924804688 105 96.1513671875 30.806640625 76.3515625 -156 c 4
EndSplineSet
Colour: ffffff
EndChar

StartChar: tml_Ii
Encoding: 5 2952 5
GlifName: tml_I_i
Width: 844
VWidth: 0
Flags: HMW
LayerCount: 2
Fore
SplineSet
98 0 m 1
 98 0 121.8984375 126 137.37109375 310 c 0
 143.50390625 382.93359375 149.670898438 507.999023438 143.081054688 565 c 1
 440.416015625 565.265625 621.080078125 570.47265625 774.868164062 589 c 1
 776.081054688 585.905273438 785.783203125 571.544921875 784.504882812 565 c 1
 781.102539062 547.592773438 770.759765625 521.80859375 763.444335938 508 c 1
 723.842773438 508.266601562 678.481445312 507.958984375 636.444335938 508 c 1
 610.77734375 508.23046875 592.372070312 446.321289062 587.120117188 413 c 1
 542 0 l 1
 511.791015625 -0.12890625 460.5625 -0.1416015625 435 0 c 1
 469.37109375 362 l 2
 475.649414062 425.681640625 484.342773438 494.51171875 497.444335938 508 c 1
 397.70703125 508.69140625 272.864257812 512.171875 220.051757812 512 c 1
 221.848632812 479.611328125 209.481445312 346.990234375 205.845703125 314 c 0
 188.387695312 155.584960938 164 0 164 0 c 1
 98 0 l 1
648.229492188 280.405273438 m 4
 650.921875 311.177734375 677.288085938 335.422851562 708.060546875 335.422851562 c 4
 738.833007812 335.422851562 759.95703125 311.177734375 757.264648438 280.405273438 c 4
 754.572265625 249.6328125 729.206054688 225.387695312 698.43359375 225.387695312 c 4
 667.661132812 225.387695312 645.537109375 249.6328125 648.229492188 280.405273438 c 4
281.681640625 288.797851562 m 0
 284.099609375 316.44140625 310.250976562 338.219726562 341.0234375 338.219726562 c 0
 371.795898438 338.219726562 393.918945312 313.974609375 391.227539062 283.202148438 c 0
 388.53515625 252.4296875 362.168945312 228.184570312 331.396484375 228.184570312 c 0
 300.624023438 228.184570312 278.715820312 254.896484375 281.681640625 288.797851562 c 0
EndSplineSet
EndChar

StartChar: tml_U
Encoding: 6 2953 6
GlifName: tml_U_
Width: 1058
VWidth: 0
Flags: HMW
LayerCount: 2
Fore
SplineSet
93.6845703125 70 m 4
 89.859375 32.833984375 106.560546875 0 146 0 c 6
 819 0 l 6
 862.196289062 0 982.309570312 0.2666015625 1023 0 c 5
 1024.24121094 21 1020.21484375 54.6904296875 1014.86132812 67 c 5
 874.985351562 57.47265625 743.553710938 55.7861328125 656.899414062 56 c 6
 155.987304688 57 l 5
 155.987304688 57 152.258789062 64.97265625 153.438476562 78 c 4
 155.491210938 100.576171875 178.131835938 129 226.286132812 129 c 6
 347.286132812 129 l 6
 506.978515625 129 610.653320312 216.55078125 619.6328125 373 c 4
 628.40625 522.15234375 511.627929688 601.936523438 380.581054688 601 c 4
 242.212890625 599.965820312 142.17578125 501.305664062 131.033203125 389 c 4
 121.640625 294.293945312 183.392578125 233.583984375 267.47265625 234 c 4
 361.595703125 234.439453125 409.916992188 296.23046875 415.845703125 364 c 4
 421.831054688 432.415039062 371.0703125 479.885742188 306.990234375 479.948242188 c 4
 260.451171875 479.993164062 198.891601562 447.774414062 165.24609375 380 c 5
 174.045898438 332 l 5
 198.036132812 387.87890625 239.466796875 423.516601562 284.9921875 422.82421875 c 4
 323.448242188 422.330078125 345.813476562 394.04296875 342.845703125 364 c 4
 339.709960938 331.34765625 311.754882812 295.030273438 264.809570312 295 c 4
 204.372070312 294.96875 168.834960938 338.875976562 173.858398438 387 c 4
 183.014648438 476.95703125 262.481445312 550.506835938 362.206054688 551 c 4
 482.22265625 551.581054688 536.338867188 466.360351562 528.020507812 366 c 4
 520.903320312 279.28125 468.533203125 184 347.09765625 184 c 6
 253.09765625 184 l 6
 208.506835938 184 172.186523438 175.717773438 146.842773438 158.2109375 c 4
 114.795898438 135.782226562 97.091796875 102.5234375 93.6845703125 70 c 4
EndSplineSet
EndChar

StartChar: tml_Uu
Encoding: 7 2954 7
GlifName: tml_U_u
Width: 1663
VWidth: 0
Flags: HMW
LayerCount: 2
Fore
SplineSet
682.793945312 330.877929688 m 0
 697.296875 492.630859375 815.959960938 583.444335938 963.388671875 583.444335938 c 0
 1074.83398438 583.444335938 1165.77832031 510 1188.27734375 426.814453125 c 1
 1135.24023438 323.999023438 l 1
 1130.99707031 441.797851562 1062.90527344 523.828125 944.440429688 523.03515625 c 0
 825.614257812 522.2890625 741.264648438 444.000976562 732.060546875 330.052734375 c 0
 723.051757812 219.271484375 804.905273438 148.553710938 876.231445312 148.571289062 c 0
 945.413085938 148.587890625 977.87109375 190.638671875 981.819335938 232.778320312 c 0
 985.3671875 270.63671875 955.784179688 298.087890625 915.702148438 298.200195312 c 0
 878.009765625 298.317382812 827.338867188 264.69921875 818.9765625 209.641601562 c 0
 812.868164062 172.352539062 821.05859375 158.66796875 827.618164062 138.80078125 c 1
 807.44921875 125.610351562 l 1
 792.526367188 143.766601562 772.734375 158.561523438 779.85546875 212.993164062 c 0
 791.45703125 302.073242188 858.930664062 364.484375 940.055664062 363.850585938 c 0
 1004.49316406 363.362304688 1058.03027344 316.852539062 1050.9140625 241.846679688 c 0
 1045.11328125 180.637695312 996.717773438 99.3408203125 880.911132812 98.4072265625 c 0
 743.013671875 97.2958984375 672.389648438 214.6875 682.793945312 330.877929688 c 0
1101.19140625 109.840820312 m 1
 1101.19140625 109.840820312 1112.24609375 237.270507812 1126.83203125 402.908203125 c 0
 1127.91210938 415.174804688 1161.62792969 394.84375 1162.71191406 407.854492188 c 0
 1167.75 468.302734375 1172.68652344 516.418945312 1174.69433594 563.658203125 c 1
 1288.32421875 563.877929688 1494.15527344 564.047851562 1621.39648438 571.90234375 c 1
 1624.91894531 561.01171875 1628.42382812 535.360351562 1628.14160156 517.088867188 c 1
 1595.67480469 517.309570312 1513.39550781 517.055664062 1478.93164062 517.088867188 c 1
 1443.30175781 109.840820312 l 1
 1412.63964844 109.733398438 1380.93847656 109.723632812 1354.98730469 109.840820312 c 1
 1382.70898438 407.854492188 l 2
 1387.30957031 457.19140625 1390.72753906 482.624023438 1393.09082031 517.088867188 c 1
 1319.36328125 517.659179688 1258.85644531 517.231445312 1219.81152344 517.088867188 c 1
 1216.54296875 476.138671875 1213.22753906 438.131835938 1208.91894531 388.89453125 c 2
 1184.50488281 109.840820312 l 1
 1101.19140625 109.840820312 l 1
83.6845703125 70 m 0
 79.8583984375 32.833984375 96.560546875 0 136 0 c 2
 1409 0 l 2
 1452.19628906 0 1572.30957031 0.2666015625 1613 0 c 1
 1614.24121094 21 1610.21484375 54.6904296875 1604.86132812 67 c 1
 1464.98535156 57.47265625 1333.56542969 55.919921875 1246.89941406 56 c 2
 145.987304688 57 l 1
 145.987304688 57 142.25390625 64.97265625 143.438476562 78 c 0
 145.491210938 100.576171875 168.131835938 129 216.286132812 129 c 2
 337.286132812 129 l 2
 496.978515625 129 600.430664062 216.543945312 609.6328125 373 c 0
 618.40625 522.15234375 501.630859375 601.979492188 370.581054688 601 c 0
 232.211914062 599.965820312 132.170898438 501.306640625 121.033203125 389 c 0
 111.640625 294.293945312 173.395507812 233.607421875 257.47265625 234 c 0
 351.595703125 234.439453125 399.916992188 296.23046875 405.845703125 364 c 0
 411.831054688 432.415039062 361.0703125 479.885742188 296.990234375 479.948242188 c 0
 250.450195312 479.993164062 188.892578125 447.774414062 155.24609375 380 c 1
 164.045898438 332 l 1
 188.036132812 387.87890625 229.456054688 423.409179688 274.9921875 422.82421875 c 0
 313.448242188 422.330078125 335.731445312 394.043945312 332.845703125 364 c 0
 329.709960938 331.34765625 301.754882812 295.024414062 254.809570312 295 c 0
 194.372070312 294.96875 158.959960938 338.874023438 163.858398438 387 c 0
 173.014648438 476.95703125 252.482421875 550.517578125 352.206054688 551 c 0
 472.22265625 551.581054688 526.2578125 466.359375 518.020507812 366 c 0
 510.903320312 279.28125 458.533203125 184 337.09765625 184 c 2
 243.09765625 184 l 2
 198.5078125 184 162.083007812 175.875976562 136.842773438 158.2109375 c 0
 104.794921875 135.782226562 87.033203125 102.524414062 83.6845703125 70 c 0
EndSplineSet
EndChar

StartChar: tml_E
Encoding: 8 2958 8
GlifName: tml_E_
Width: 988
VWidth: 0
Flags: HMW
LayerCount: 2
Fore
SplineSet
943.444335938 508 m 1
 903.842773438 508.266601562 858.481445312 507.958984375 816.444335938 508 c 1
 790.77734375 508.23046875 768.372070312 454.321289062 767.120117188 421 c 1
 722 0 l 1
 691.791015625 -0.12890625 645.5625 -0.1416015625 620 0 c 1
 654.37109375 370 l 2
 660.649414062 433.681640625 664.342773438 494.51171875 677.444335938 508 c 1
 577.70703125 508.69140625 549.864257812 511.171875 498.051757812 511 c 1
 319.891601562 512.3203125 145.197265625 428.411132812 129.384765625 233 c 0
 119.33203125 108.76171875 209.140625 42.9794921875 299.88671875 43 c 0
 387.225585938 43.01953125 450.19921875 75.91015625 454.986328125 127 c 0
 459.681640625 177.346679688 413.25 213.838867188 363.59765625 214 c 0
 314.033203125 214.14453125 242.124023438 183.736328125 230.624023438 110 c 0
 223.069335938 61.5634765625 229.205078125 48.80078125 237.012695312 23 c 1
 218.612304688 7 l 1
 200.509765625 29.0234375 176.578125 46.9677734375 185.138671875 113 c 0
 199.538085938 224.059570312 287.235351562 297.76953125 386.984375 297 c 0
 463.864257812 296.407226562 531.568359375 238.987304688 522.7734375 146 c 0
 515.75 71.751953125 459.149414062 -26.5458984375 321.55078125 -28 c 0
 134.32421875 -29.978515625 58.8583984375 105.0546875 70.6474609375 236 c 0
 87.169921875 419.518554688 261.091796875 564.875976562 509.081054688 565 c 0
 807.416015625 565.265625 801.080078125 570.47265625 954.868164062 589 c 1
 956.081054688 585.905273438 965.783203125 571.544921875 964.504882812 565 c 1
 961.102539062 547.592773438 950.759765625 521.80859375 943.444335938 508 c 1
EndSplineSet
EndChar

StartChar: tml_Ee
Encoding: 9 2959 9
GlifName: tml_E_e
Width: 988
VWidth: 0
Flags: HMW
LayerCount: 2
Fore
SplineSet
310.540039062 -211 m 1
 430.04296875 -126.583007812 574.55859375 -6.611328125 627.711914062 31 c 5
 722 0 l 1
 714.512695312 -17 l 1
 577.083984375 -92.5556640625 442.641601562 -174.13671875 321.65234375 -244 c 1
 319.432617188 -240.26171875 311.319335938 -229.456054688 310.540039062 -211 c 1
EndSplineSet
Refer: 8 2958 N 1 0 0.0874887 1 0.0962034 1.09961 2
EndChar

StartChar: tml_Ai
Encoding: 10 2960 10
GlifName: tml_A_i
Width: 1079
Flags: HMW
LayerCount: 2
Fore
SplineSet
76.861328125 -42.4501953125 m 0
 92.5390625 136.751953125 262.802734375 195.681640625 412.7421875 197.650390625 c 2
 641.68359375 200.400390625 l 2
 789.97265625 202.018554688 912.708007812 268.991210938 925.235351562 412.174804688 c 0
 932.366210938 493.682617188 896.353515625 572.099609375 793.276367188 572.099609375 c 0
 713.419921875 572.099609375 640.40625 495.849609375 632.124023438 401.174804688 c 2
 625.162109375 321.599609375 l 1
 599.512695312 316.557617188 570.3125 316.6640625 549.186523438 317.599609375 c 1
 552.53515625 355.875 l 2
 564.780273438 495.83203125 484.711914062 578.849609375 382.317382812 578.849609375 c 0
 271.575195312 578.849609375 197.4921875 505.124023438 188.53125 402.700195312 c 0
 181.811523438 325.889648438 236.34375 301.825195312 272.856445312 301.825195312 c 0
 320.42578125 301.825195312 350.880859375 325.826171875 354.791992188 370.525390625 c 0
 357.634765625 403.024414062 335.737304688 445.275390625 287.232421875 445.275390625 c 0
 226.1953125 445.275390625 184.65625 394.981445312 180.819335938 351.125 c 1
 164.369140625 383.125 l 1
 179.375 440.349609375 237.069335938 503.025390625 316.409179688 503.025390625 c 256
 394.291015625 503.025390625 441.260742188 452.173828125 434.81640625 378.525390625 c 0
 428.213867188 303.048828125 367.7265625 243.575195312 280.2109375 243.575195312 c 0
 190.93359375 243.575195312 127.65234375 304.071289062 136.447265625 404.599609375 c 0
 149.447265625 553.188476562 276.844726562 638.599609375 397.995117188 638.599609375 c 0
 520.213867188 638.599609375 615.454101562 573.502929688 625.751953125 465.793945312 c 1
 613.8203125 468.3046875 602.98046875 470.923828125 593.314453125 473.650390625 c 1
 629.708984375 572.631835938 714.522460938 634.849609375 817.416992188 634.849609375 c 0
 944.178710938 634.849609375 1036.51269531 559.645507812 1023.58203125 411.849609375 c 0
 1009.10449219 246.37109375 848.3828125 141.08984375 685.071289062 139.400390625 c 2
 393.780273438 136.650390625 l 2
 275.805664062 135.03515625 182.0859375 78.7041015625 172.405273438 -31.9501953125 c 0
 165.032226562 -116.225585938 210.240234375 -185.299804688 313.36328125 -185.299804688 c 0
 419.89453125 -185.299804688 520.796875 -93.7587890625 528.081054688 -10.5009765625 c 2
 531.711914062 31 l 1
 560.709960938 36.787109375 588.419921875 37.3515625 606.0625 35 c 1
 602.299804688 -8 l 2
 593.206054688 -111.950195312 650.4609375 -188.01171875 757.092773438 -187.25 c 0
 872.655273438 -186.424804688 926.022460938 -103.810546875 932.546875 -42 c 0
 938.177734375 11.33984375 903.533203125 58.888671875 872.173828125 82 c 1
 885.852539062 97.380859375 923.2109375 120.517578125 955.061523438 115 c 1
 973.443359375 91.302734375 1011.1015625 56.9873046875 1000.27734375 -42 c 0
 990.244140625 -133.750976562 912.8046875 -257 748.740234375 -257 c 0
 596.39453125 -257 535.301757812 -168 541.776367188 -94 c 1
 554.513671875 -97 l 1
 528.225585938 -142.485351562 453.029296875 -255.299804688 296.638671875 -255.299804688 c 0
 136.436523438 -255.299804688 67.1240234375 -153.745117188 76.861328125 -42.4501953125 c 0
EndSplineSet
EndChar

StartChar: tml_O
Encoding: 11 2962 11
GlifName: tml_O_
Width: 873
VWidth: 0
Flags: HMW
LayerCount: 2
Fore
SplineSet
91.0712890625 298 m 4
 108.493164062 477.21484375 254.9921875 633.259765625 480.555664062 635 c 4
 655.279296875 636.311523438 844.514648438 530.7109375 830.383789062 313 c 4
 821.985351562 177.591796875 746.2109375 85 634.436523438 85 c 4
 560.870117188 85 517.727539062 138.876953125 523.204101562 204 c 4
 527.173828125 251.172851562 543.223632812 273.55078125 555.809570312 295 c 4
 558.18359375 299.046875 555.114257812 273.060546875 558.234375 277 c 5
 513.504882812 259.651367188 478.78125 199.063476562 475.685546875 145 c 4
 471.005859375 63.24609375 573.833007812 5 656.4375 5 c 4
 681.4375 5 721.612304688 7 747.787109375 9 c 5
 747.579101562 -4.8125 743.762695312 -37 739.450195312 -52 c 5
 641.450195312 -52 l 6
 496.450195312 -52 415.328125 50.9033203125 422.248046875 140 c 4
 430.78515625 249.905273438 515.068359375 319.861328125 575.87109375 330 c 5
 599.809570312 295 l 5
 588.583007812 274.734375 573.23046875 243.596679688 571.021484375 213 c 4
 568.612304688 178.3515625 593.5390625 141 639.3359375 141 c 4
 696.591796875 141 737.624023438 228.016601562 745.471679688 314 c 4
 758.721679688 459.868164062 647.952148438 578.203125 471.65625 579 c 4
 296.469726562 579.817382812 158.44921875 470.998046875 139.721679688 294 c 4
 132.98828125 230.1875 172.784179688 174.958007812 230.310546875 175 c 4
 281.821289062 175.030273438 312.291992188 213.017578125 315.697265625 248 c 4
 319.721679688 289.350585938 291.333007812 325.138671875 242.505859375 325.82421875 c 4
 197.85546875 326.40234375 153.19921875 291.111328125 130.171875 242 c 5
 115.409179688 279 l 5
 148.544921875 342.911132812 215.514648438 379.9921875 270.241210938 379.948242188 c 4
 346.541992188 379.88671875 389.352539062 324.076171875 383.747070312 260 c 4
 377.170898438 184.837890625 317.952148438 123.544921875 229.760742188 123 c 4
 142.692382812 122.424804688 80.4853515625 189.055664062 91.0712890625 298 c 4
148.55078125 -108 m 4
 152.064453125 -64.2880859375 174.208984375 -23.3310546875 204.895507812 -1.1953125 c 5
 221.60546875 -8.3125 233.951171875 -19.6025390625 241.932617188 -35.064453125 c 5
 219.311523438 -51.4677734375 205.291992188 -76.6708984375 203.42578125 -98 c 4
 199.501953125 -142.85546875 236.0234375 -175.565429688 295.689453125 -175 c 4
 335.396484375 -174.624023438 364.56640625 -150.657226562 386.326171875 -122 c 4
 444.17578125 -42.9560546875 481.07421875 -5.5400390625 587.737304688 -3 c 5
 616.737304688 -3 l 5
 689.450195312 -52 l 5
 656.392578125 -52.267578125 623.250976562 -51.67578125 599.450195312 -52 c 5
 495.766601562 -59.4150390625 473.341796875 -230.858398438 295.52734375 -234 c 4
 188.37890625 -235.892578125 143.26171875 -173.365234375 148.55078125 -108 c 4
EndSplineSet
EndChar

StartChar: tml_Oo
Encoding: 12 2963 12
GlifName: tml_O_o
Width: 878
VWidth: 0
Flags: HMW
LayerCount: 2
Back
SplineSet
220 -108 m 4
 219.328125 -2.344726562 317.180664062 58 404 58 c 5
 414.040039062 50.5009765625 428.916015625 18.413085938 426 4 c 5
 335.051757812 1.893554688 274 -35.491210938 274 -98 c 4
 274 -138.272460938 306.647460938 -173.5703125 368 -174 c 4
 407.674804688 -174.27734375 434.747070312 -150.116210938 454 -122 c 5
 504.93359375 -42.956054688 538.55859375 -5.540039062 645 -3 c 5
 674 7 l 5
 751 -52 l 5
 717.965820312 -52.267578125 684.772460938 -51.67578125 661 -52 c 5
 557.96484375 -59.415039062 550.5390625 -230.859375 373 -234 c 4
 269.401367188 -235.833007812 220.415667483 -173.365524186 220 -108 c 4
713.817868135 19.9999993269 m 0
 729.022799908 9.7210532259 746.999265186 5 763 5 c 0
 788 5 828 7 854 9 c 1
 855 -4.8125 854 -37 851 -52 c 1
 759 -52 l 2
 719.674539465 -51.7584634808 666.657215877 -37.8523385358 631.000001204 -7.99730416016 c 0
 713.817868135 19.9999993269 l 0
EndSplineSet
Fore
SplineSet
91.0712890625 298 m 0
 108.493164062 477.21484375 254.9921875 633.259765625 480.555664062 635 c 0
 655.279296875 636.311523438 844.514648438 530.7109375 830.383789062 313 c 0
 821.985351562 177.591796875 746.2109375 85 634.436523438 85 c 0
 560.870117188 85 517.727539062 138.876953125 523.204101562 204 c 0
 527.173828125 251.172851562 543.223632812 273.55078125 555.809570312 295 c 0
 558.18359375 299.046875 555.114257812 273.060546875 558.234375 277 c 1
 513.504882812 259.651367188 478.78125 199.063476562 475.685546875 145 c 0
 471.005859375 63.24609375 573.833007812 5 656.4375 5 c 0
 681.4375 5 721.612304688 7 747.787109375 9 c 1
 747.579101562 -4.8125 743.762695312 -37 739.450195312 -52 c 1
 641.450195312 -52 l 2
 496.450195312 -52 415.328125 50.9033203125 422.248046875 140 c 0
 430.78515625 249.905273438 515.068359375 319.861328125 575.87109375 330 c 1
 599.809570312 295 l 1
 588.583007812 274.734375 573.23046875 243.596679688 571.021484375 213 c 0
 568.612304688 178.3515625 593.5390625 141 639.3359375 141 c 0
 696.591796875 141 737.624023438 228.016601562 745.471679688 314 c 0
 758.721679688 459.868164062 647.952148438 578.203125 471.65625 579 c 0
 296.469726562 579.817382812 158.44921875 470.998046875 139.721679688 294 c 0
 132.98828125 230.1875 172.784179688 174.958007812 230.310546875 175 c 0
 281.821289062 175.030273438 312.291992188 213.017578125 315.697265625 248 c 0
 319.721679688 289.350585938 291.333007812 325.138671875 242.505859375 325.82421875 c 0
 197.85546875 326.40234375 153.19921875 291.111328125 130.171875 242 c 1
 115.409179688 279 l 1
 148.544921875 342.911132812 215.514648438 379.9921875 270.241210938 379.948242188 c 0
 346.541992188 379.88671875 389.352539062 324.076171875 383.747070312 260 c 0
 377.170898438 184.837890625 317.952148438 123.544921875 229.760742188 123 c 0
 142.692382812 122.424804688 80.4853515625 189.055664062 91.0712890625 298 c 0
169.55078125 -108 m 0
 178.123046875 -2.3447265625 281.254882812 58 368.07421875 58 c 1
 377.458007812 50.5009765625 389.52734375 18.4130859375 385.349609375 4 c 1
 294.217773438 1.8935546875 229.89453125 -35.4912109375 224.42578125 -98 c 0
 220.856445312 -138.802734375 248.985351562 -174.565429688 307.689453125 -175 c 0
 349.185546875 -175.282226562 379.670898438 -150.657226562 402.326171875 -122 c 1
 460.17578125 -42.9560546875 497.07421875 -5.5400390625 603.737304688 -3 c 1
 632.737304688 -3 l 1
 705.450195312 -52 l 1
 672.392578125 -52.267578125 639.250976562 -51.67578125 615.450195312 -52 c 1
 511.766601562 -59.4150390625 489.341796875 -230.858398438 311.52734375 -234 c 0
 207.768554688 -235.833007812 164.248046875 -173.365234375 169.55078125 -108 c 0
EndSplineSet
EndChar

StartChar: tml_Ka
Encoding: 14 2965 14
GlifName: tml_K_a
Width: 888
VWidth: 0
GlyphClass: 2
Flags: HMW
AnchorPoint: "Anchor-3" 516.081 561 basechar 0
AnchorPoint: "Anchor-0" 518.704 751 basechar 0
LayerCount: 2
Back
SplineSet
470 300 m 5
 472 370 l 4
 472.70703125 433.681640625 473.791015625 466.51171875 473 511 c 5
 392.280504077 511.69140625 325.311907966 511.171875 282.607421875 511 c 5
 282.98828125 458.611328125 283 416.990234375 284 364 c 4
 284 331.675824176 284 290 284 290 c 5
 228 290 l 5
 228 290 236 319.405405405 235 370 c 4
 234.696289062 440.999023438 232.577148438 497.514648438 230 553 c 5
 356.477780079 553.265625 591.112734946 553.47265625 732 563 c 5
 737.4296875 552.666992188 744.404296875 528.333007812 746 511 c 5
 705.286132812 511.266601562 602.196289062 510.958984375 559 511 c 5
 559 300 l 1029
EndSplineSet
Fore
SplineSet
526.5234375 326.026367188 m 0
 414.491210938 327.807617188 347.296875 326.538085938 280.43359375 325 c 0
 165.682617188 322.360351562 90.509765625 278.076171875 79.880859375 174 c 0
 70.619140625 83.35546875 134.803710938 -23 302.987304688 -23 c 0
 469.094726562 -23 563.602539062 84.0673828125 578.509765625 223 c 1
 584.333984375 301 l 1
 589.958007812 365.283203125 l 2
 597.434500155 450.740328488 619.990629866 508.866075967 666.444335938 508 c 0
 708.474161316 507.216402205 713.842773438 508.266601562 753.444335938 508 c 1
 760.759765625 521.80859375 771.102539062 547.592773438 774.504882812 565 c 1
 775.783203125 571.544921875 766.081054688 585.905273438 764.868164062 589 c 1
 611.080078125 570.47265625 560.416015625 565.265625 263.081054688 565 c 1
 270.670898438 487.999023438 257.50390625 392.93359375 247.37109375 310 c 0
 305.845703125 314 l 0
 319.481445312 346.990234375 333.848632812 459.611328125 335.051757812 512 c 1
 387.864257812 512.171875 419.70703125 508.69140625 519.444335938 508 c 1
 506.342773438 494.51171875 490.649414062 434.681640625 483.37109375 371 c 1
 476.268554688 302 l 1
 474.546875 284 l 1
 468.509765625 224 l 2
 456.368164062 100.4140625 382.58984375 34.3935546875 280.974609375 34 c 0
 183.5625 33.623046875 124.592773438 100.21875 130.610351562 169 c 0
 136.262695312 233.600585938 185 273 268.884765625 273 c 2
 502.884765625 273 l 1
 574.884765625 273 l 2
 708 273 747.95703125 227.705078125 742.34765625 164 c 0
 736.18359375 93.9873046875 691.842773438 19.091796875 592.20703125 19.2958984375 c 1
 589.32421875 11.5322265625 588.21484375 -16.9140625 589.525390625 -22.26953125 c 1
 753.065429688 -24.94140625 829.680664062 64.240234375 837.3984375 176 c 0
 842.075195312 243.732421875 804.466796875 323.623046875 654.43359375 325 c 0
 611.033570089 325.398310487 561.391601562 325.784179688 526.5234375 326.026367188 c 0
EndSplineSet
EndChar

StartChar: tml_Nga
Encoding: 15 2969 15
GlifName: tml_N_ga
Width: 994
VWidth: 0
GlyphClass: 2
Flags: HMW
AnchorPoint: "Anchor-4" 802 0 basechar 0
AnchorPoint: "Anchor-0" 585.704 751 basechar 0
LayerCount: 2
Back
SplineSet
105 0 m 5
 105 0 113 136 112 370 c 4
 111.696289062 442.938476562 109.577148438 503.999023438 107 561 c 5
 244.311523438 561.265625 499.044921875 560.47265625 652 570 c 5
 657.4296875 558.673828125 664.404296875 527 666 508 c 5
 626.375 508.266601562 531.041015625 507.958984375 489 508 c 5
 489 0 l 5
 458.802734375 -0.12890625 422.575195312 -0.1416015625 397 0 c 5
 399 370 l 6
 399.70703125 433.681640625 400.791015625 463.51171875 400 508 c 5
 300.202148438 508.69140625 221.405273438 508.171875 168.607421875 508 c 5
 168.98828125 455.611328125 170 416.990234375 171 364 c 4
 174 205 171 0 171 0 c 5
 105 0 l 5
EndSplineSet
Fore
SplineSet
340.899414062 56 m 5
 495.899414062 56 744.07421875 58 806.774414062 66 c 5
 839.454101562 428.099609375 l 6
 841.771484375 458.930664062 845.745117188 518.805664062 846.168945312 562 c 5
 873.673828125 562.692382812 922.775390625 566.69140625 943.868164062 570 c 5
 894 0 l 5
 710.333007812 0 526.666992188 0 343 0 c 5
 340.899414062 56 l 5
105 0 m 5
 105 0 124.899414062 136 144.37109375 370 c 4
 150.278320312 440.999023438 153.19140625 498.514648438 155.46875 554 c 5
 353.229492188 554.265625 507.745117188 560.47265625 650.868164062 570 c 5
 655.39453125 559.666992188 659.365234375 525.333007812 659.444335938 508 c 5
 618.75390625 508.266601562 515.63671875 507.958984375 472.444335938 508 c 5
 441.998046875 160 l 5
 411.440429688 159.846679688 379.78125 159.013671875 353.911132812 159 c 5
 373.37109375 370 l 6
 379.649414062 433.681640625 383.342773438 463.51171875 386.444335938 508 c 5
 303.182617188 508.69140625 258.1484375 508.171875 214.051757812 508 c 5
 209.848632812 455.611328125 206.482421875 416.990234375 202.845703125 364 c 4
 191.935546875 205 171 0 171 0 c 5
 105 0 l 5
397.971679688 274 m 5
 415.860351562 359.680664062 492.716796875 387.879882812 550.858398438 387 c 4
 650.6953125 385.564453125 712.072265625 320.358398438 704.572265625 223 c 4
 697.223632812 127.608398438 611.333007812 50.3505859375 539.32421875 38 c 5
 444.899414062 56 l 5
 542.11328125 54.7421875 606.508789062 113.39453125 615.224609375 224 c 4
 620.05078125 284.68359375 587.393554688 343.11328125 524.095703125 344 c 4
 489.900390625 344.4921875 444.747070312 323.19140625 436.059570312 275 c 5
 397.971679688 274 l 5
EndSplineSet
EndChar

StartChar: tml_Ca
Encoding: 16 2970 16
GlifName: tml_C_a
Width: 804
VWidth: 0
GlyphClass: 2
Flags: HMW
AnchorPoint: "Anchor-3" 476.081 561 basechar 0
AnchorPoint: "Anchor-0" 471.704 751 basechar 0
LayerCount: 2
Back
SplineSet
55.533203125 159 m 4
 57.0556318279 263.075953586 127.464994166 323.092735837 242 325 c 4
 394.923768997 327.602002783 509.344682723 324.459529754 701 333 c 5
 706.4296875 322.666992188 713.404296875 298.333007812 715 281 c 5
 666.230447861 282.266601562 542.743148396 281.958984375 491 282 c 5
 465 283 l 5
 235 283 l 6
 150.85316643 283 98 234.600355833 98 164 c 4
 98 85.2187199279 174.620922008 29.6253532297 285 30 c 4
 386.583562389 30.3447931823 450.670802474 99.4144377862 452 223 c 6
 452.787109375 283 l 5
 450.934570312 301 l 5
 452 370 l 5
 452 511 l 5
 370.008613701 511.69140625 301.984798997 511.171875 258.607421875 511 c 5
 258.98828125 458.611328125 260 416.999669236 260 364 c 6
 260 291 l 5
 204 291 l 5
 204 291 211.213761861 320.028525395 211 370 c 4
 210.696289063 440.999023438 208.577148438 497.514648438 206 553 c 5
 332.477780079 553.265625 567.112734946 553.47265625 708 563 c 5
 713.4296875 552.666992188 720.404296875 528.333007812 722 511 c 5
 682.157017672 511.266601562 581.272304269 510.958984375 539 511 c 5
 539 301 l 5
 540 223 l 5
 537.247839313 84.067357513 456.107382551 -23 290 -23 c 4
 131.81615096 -23 54.2072468364 68.3552526414 55.533203125 159 c 4
EndSplineSet
Fore
SplineSet
549.958007812 365.283203125 m 6
 557.434570312 450.740234375 579.990234375 508.866210938 626.444335938 508 c 4
 668.474609375 507.216796875 713.842773438 508.266601562 753.444335938 508 c 5
 760.759765625 521.80859375 771.102539062 547.592773438 774.504882812 565 c 5
 775.783203125 571.544921875 766.081054688 585.905273438 764.868164062 589 c 5
 611.080078125 570.47265625 517.416015625 565.265625 220.081054688 565 c 5
 226.670898438 507.999023438 213.50390625 382.93359375 207.37109375 310 c 4
 275.845703125 314 l 4
 279.481445312 346.990234375 295.848632812 489.611328125 297.051757812 512 c 5
 349.864257812 512.171875 379.70703125 508.69140625 479.444335938 508 c 5
 466.342773438 494.51171875 450.649414062 434.681640625 443.37109375 371 c 5
 436.268554688 302 l 5
 434.546875 284 l 5
 428.509765625 224 l 6
 416.368164062 100.4140625 349.58984375 34.3935546875 247.974609375 34 c 4
 150.5625 33.623046875 88.5927734375 98.21875 94.6103515625 167 c 4
 100.262695312 231.600585938 144.73828125 273 228.884765625 273 c 6
 462.884765625 273 l 5
 488.884765625 273 l 5
 698.884765625 273 l 5
 710.745117188 292.666992188 716.11328125 319.333007812 712.30859375 335 c 5
 658.557617188 331.432617188 521.479492188 326.784179688 486.611328125 327.026367188 c 4
 374.491210938 327.807617188 307.296875 326.538085938 240.43359375 325 c 4
 125.682617188 322.360351562 50.509765625 278.076171875 39.880859375 174 c 4
 30.619140625 83.35546875 94.8037109375 -23 262.987304688 -23 c 4
 429.094726562 -23 523.602539062 84.0673828125 538.509765625 223 c 5
 544.333984375 301 l 5
 549.958007812 365.283203125 l 6
EndSplineSet
EndChar

StartChar: tml_Ja
Encoding: 17 2972 17
GlifName: tml_J_a
Width: 1058
GlyphClass: 2
Flags: HMW
LayerCount: 2
Fore
SplineSet
75.986328125 -52.4501953125 m 4
 90.7900390625 116.751953125 262.802734375 195.681640625 412.7421875 197.650390625 c 6
 641.68359375 200.400390625 l 6
 789.97265625 202.018554688 912.708007812 268.991210938 925.235351562 412.174804688 c 4
 932.366210938 493.682617188 901.178710938 570.099609375 798.1015625 570.099609375 c 4
 718.245117188 570.099609375 640.40625 495.849609375 632.124023438 401.174804688 c 6
 625.162109375 321.599609375 l 5
 599.512695312 316.557617188 570.3125 316.6640625 549.186523438 317.599609375 c 5
 552.53515625 355.875 l 6
 564.780273438 495.83203125 484.711914062 578.849609375 382.317382812 578.849609375 c 4
 271.575195312 578.849609375 197.4921875 505.124023438 188.53125 402.700195312 c 4
 181.811523438 325.889648438 236.34375 301.825195312 272.856445312 301.825195312 c 4
 320.42578125 301.825195312 350.880859375 325.826171875 354.791992188 370.525390625 c 4
 357.634765625 403.024414062 335.737304688 445.275390625 287.232421875 445.275390625 c 4
 226.1953125 445.275390625 184.65625 394.981445312 180.819335938 351.125 c 5
 164.369140625 383.125 l 5
 179.375 440.349609375 237.069335938 503.025390625 316.409179688 503.025390625 c 260
 394.291015625 503.025390625 441.260742188 452.173828125 434.81640625 378.525390625 c 4
 428.213867188 303.048828125 367.7265625 243.575195312 280.2109375 243.575195312 c 4
 190.93359375 243.575195312 127.65234375 304.071289062 136.447265625 404.599609375 c 4
 149.447265625 553.188476562 276.844726562 638.599609375 397.995117188 638.599609375 c 4
 520.213867188 638.599609375 615.454101562 573.502929688 625.751953125 465.793945312 c 5
 613.8203125 468.3046875 602.98046875 470.923828125 593.314453125 473.650390625 c 5
 629.708984375 572.631835938 722.522460938 634.849609375 825.416992188 634.849609375 c 4
 952.178710938 634.849609375 1036.33789062 557.645507812 1023.40722656 409.849609375 c 4
 1008.9296875 244.37109375 848.3828125 141.08984375 685.071289062 139.400390625 c 6
 393.780273438 136.650390625 l 6
 275.805664062 135.03515625 181.473632812 71.7041015625 171.79296875 -38.9501953125 c 4
 164.418945312 -123.225585938 209.153320312 -186.299804688 304.276367188 -186.299804688 c 4
 520.96875 -186.299804688 592.1796875 65.75 815.2265625 65.75 c 4
 917.311523438 65.75 984.663085938 -1.5654296875 976.077148438 -99.7001953125 c 4
 967.69140625 -195.552734375 890.92578125 -266.049804688 789.6484375 -266.049804688 c 4
 728.833984375 -266.049804688 677.603515625 -257.015625 641.991210938 -234.125 c 5
 646.00390625 -219.010742188 654.55859375 -198.73828125 664.018554688 -189.525390625 c 5
 688.645507812 -196.197265625 741.120117188 -207.2109375 783.006835938 -204.799804688 c 4
 852.491210938 -200.799804688 876.633789062 -149.056640625 880.232421875 -107.924804688 c 4
 884.390625 -60.400390625 852.69140625 -8 786.524414062 -8 c 4
 631.90234375 -8 528.18359375 -255.299804688 286.638671875 -255.299804688 c 4
 125.436523438 -255.299804688 66.2490234375 -163.745117188 75.986328125 -52.4501953125 c 4
EndSplineSet
EndChar

StartChar: tml_Nya
Encoding: 18 2974 18
GlifName: tml_N_ya
Width: 1310
VWidth: 0
GlyphClass: 2
Flags: HMW
LayerCount: 2
Fore
SplineSet
95.6962890625 210 m 0
 116.450195312 421.962890625 238.958984375 563.375 335.54296875 632 c 1
 353.393554688 624.452148438 369.091796875 595.758789062 380.518554688 576 c 1
 257.751953125 490.48828125 173.1484375 362.03125 156.995117188 194 c 4
 133.220703125 -47.33203125 320.233398438 -266.22265625 680.115234375 -269 c 0
 928.872070312 -270.919921875 1138.734375 -140.467773438 1159.34863281 84 c 0
 1168.09082031 183.106445312 1156.11816406 279.869140625 1064.40917969 279 c 0
 1009.24414062 278.477539062 974.169921875 245.038085938 968.272460938 186 c 1
 936.885742188 193 l 1
 952.014648438 289.33203125 1009.34863281 339.498046875 1092.65820312 339 c 0
 1196.234375 338.380859375 1290.29492188 258.359375 1277.26171875 83 c 0
 1261.34179688 -116.510742188 1045.52734375 -325 683.69140625 -325 c 0
 278.293945312 -325 68.68359375 -58.51953125 95.6962890625 210 c 0
EndSplineSet
Refer: 8 2958 N 1 0 0.0874887 1 208 0 2
EndChar

StartChar: tml_Tta
Encoding: 19 2975 19
GlifName: tml_T_ta
Width: 893
VWidth: 0
GlyphClass: 2
Flags: HMW
AnchorPoint: "Anchor-0" 562.667 682 basechar 0
LayerCount: 2
Fore
SplineSet
85 0 m 5
 93.7861328125 45.4814453125 104.173878542 103.970237459 109.860351562 157 c 6
 154.46875 573 l 1
 173.12109375 573.639648438 230.416015625 577.139648438 256.081054688 579 c 1
 248.725585938 485.346679688 215.713867188 241.43359375 202.763671875 144 c 1
 198.435546875 113.54296875 194.10995616 81.8140021246 189.899414062 56 c 1
 401.899414062 56 l 2
 540.801757812 56.99609375 693.249023438 63.47265625 852.774414062 75 c 1
 858.126953125 62.6904296875 852.241210938 21 848 0 c 1
 807.309570312 0.2666015625 697.192382812 -0.041015625 654 0 c 2
 85 0 l 5
EndSplineSet
EndChar

StartChar: tml_Nna
Encoding: 20 2979 20
GlifName: tml_N_na
Width: 1985
VWidth: 0
GlyphClass: 2
Flags: HMW
AnchorPoint: "Anchor-3" 1595.08 561 basechar 0
AnchorPoint: "Anchor-0" 1014.71 751 basechar 0
LayerCount: 2
Back
SplineSet
55 230 m 4
 55.4267578125 440.301757812 241.948242188 564.749023438 434.000976562 567 c 4
 690 570 889.357421875 410.872070312 889.000976562 185 c 4
 888.834960938 79.927734375 833.47265625 -24.787109375 728.000976562 -25 c 4
 623.435546875 -25.2109375 567.837890625 60.1533203125 568.000976562 178 c 4
 568.299804688 394.048828125 714 560 918.0625 562.40234375 c 28
 1124 564 1283.31054688 413.419921875 1283.00097656 189 c 4
 1282.85644531 83.927734375 1229.47265625 -24.787109375 1124.00097656 -25 c 4
 1019.43554688 -25.2109375 967.8125 57.1533203125 968.000976562 175 c 4
 968.327148438 382.309339021 1132.16894531 560.274861225 1344.00097656 561 c 4
 1423.81542969 561.265625 1538.48339844 562.47265625 1692 572 c 5
 1697.4296875 560.539754972 1703.40429688 530.223881391 1705 511 c 5
 1665.37473888 511.266601562 1565.04130807 510.958984375 1523 511 c 5
 1523 0 l 5
 1490.37291521 -0.12890625 1456.63292223 -0.1416015625 1429 0 c 5
 1431 377 l 6
 1431.70703125 440.681640625 1432.79101562 466.51171875 1432 511 c 5
 1345.00097656 511 l 6
 1200.07161359 512.415039062 1021.31049329 399.869140625 1022.00097656 176 c 4
 1022.30898438 79.3744791667 1067.24658204 35.9708333333 1117.00097656 36 c 4
 1171.68663833 36.0329861111 1197.47432215 108.027006173 1197.00097656 188 c 4
 1195.96218772 363.849348495 1073.12876711 508.000856185 906.052734375 508.098632812 c 4
 735.373988099 508.198349273 619.532912357 364.933600586 620.000976562 184 c 4
 620.257517689 83.7488380142 671.60427108 30.9697389241 722.000976562 31 c 4
 776.645949592 31.0340576172 801.533668155 103.429199219 801.000976562 186 c 4
 799.762781022 372.120969836 633.26450559 508.294142986 430.000976562 512 c 4
 263.585066704 515.031394025 106.782575918 402.418126826 108 239 c 4
 108.971503075 104.65625 190.633846201 28.9775390625 291 29 c 4
 375.802734375 29.0185546875 419.669921875 83.4541015625 420 136 c 4
 420.323242188 187.50390625 377.131835938 225.834960938 323 226 c 4
 274.694335938 226.147460938 216.918945312 187.979492188 214 120 c 4
 212.03125 71.490234375 217.935546875 50.80078125 233 25 c 5
 216 9 l 5
 195.970703125 31.0234375 174.15234375 51.91796875 175.252929688 118 c 4
 176.935546875 219.059570312 244.18359375 297.713867188 345 297 c 4
 427.931640625 296.413085938 494.66015625 238.987304688 494 149 c 4
 493.455078125 74.751953125 442.380859375 -25.8095703125 312 -26 c 4
 148.833984375 -26.23828125 54.7138671875 89.0546875 55 230 c 4
EndSplineSet
Fore
SplineSet
1496.05175781 512 m 1
 1549.86425781 512.171875 1549.70703125 508.69140625 1649.44433594 508 c 1
 1636.34277344 494.51171875 1620.64941406 433.681640625 1614.37109375 370 c 2
 1580 0 l 1
 1605.5625 -0.1416015625 1656.79101562 -0.12890625 1687 0 c 1
 1732.12011719 421 l 1
 1733.37207031 454.321289062 1755.77734375 508.23046875 1781.44433594 508 c 1
 1823.48144531 507.958984375 1868.84277344 508.266601562 1908.44433594 508 c 1
 1915.75976562 521.80859375 1926.10253906 547.592773438 1929.50488281 565 c 1
 1930.78320312 571.544921875 1921.08105469 585.905273438 1919.86816406 589 c 1
 1766.08007812 570.47265625 1669.41601562 566.265625 1472.08105469 565 c 0
 1260.18652344 564.274414062 1080.77441406 382.309570312 1062.31152344 175 c 0
 1051.8125 57.1533203125 1093.58007812 -21.142578125 1185.1640625 -21 c 0
 1340.65426232 -20.7579325545 1394.86132812 102.927734375 1404.19824219 208 c 0
 1424.14257812 432.419921875 1293.26855469 586 1047.19140625 584.40234375 c 0
 815.774414062 582.899414062 631.2421875 410.555664062 611.624023438 190 c 0
 601.141601562 72.1533203125 650.667858907 -20.1423360781 757.250976562 -20 c 0
 913.741210938 -19.791015625 970.181640625 113.927734375 981.0234375 236 c 4
 1001.52929688 466.872070312 813.514392843 588.295466892 577.26953125 586 c 4
 326.004882812 583.55859375 130.560546875 447.301757812 109.59765625 224 c 4
 96.3662109375 83.0576171875 163.538085938 -26.23828125 326.725585938 -26 c 4
 457.123046875 -25.8095703125 537.995117188 74.751953125 545.036132812 149 c 4
 553.568359375 238.987304688 500.864257812 306.413085938 417.984375 307 c 4
 317.23046875 307.713867188 231.100585938 219.059570312 220.576171875 118 c 4
 213.694335938 51.91796875 235.684570312 31.0234375 253.787109375 9 c 5
 272.1875 25 l 5
 259.379882812 50.80078125 255.286132812 71.490234375 261.499023438 120 c 4
 270.365234375 187.979492188 326.129882812 222.147460938 374.422851562 222 c 4
 428.540039062 221.834960938 465.377929688 183.50390625 460.548828125 132 c 4
 455.62109375 79.4541015625 396.603515625 32.0185546875 320.799804688 32 c 4
 217.689453125 31.974609375 153.8046875 101.65625 164.03515625 229 c 4
 178.689453125 411.41015625 360.569335938 522.244140625 539.282226562 519 c 4
 734.978515625 515.447265625 890.774414062 384.9765625 872.2734375 186 c 4
 864.44140625 101.765625 819.431640625 38.0322265625 761.325195312 38 c 0
 702.94921875 37.9677734375 664.40234375 97.47265625 673.32421875 198 c 0
 693.012695312 419.869140625 864.05078125 528.340820312 1027.16796875 527.098632812 c 0
 1204.12011719 525.750976562 1321.76595766 368.077262812 1307.67382812 162 c 0
 1302.20507812 82.02734375 1241.10155773 39.040300021 1186.41308594 39 c 0
 1146.65625 38.970703125 1108.25292969 79.3740234375 1116.39941406 176 c 0
 1135.29492188 399.869140625 1354.90136719 516.415039062 1496.05175781 512 c 1
EndSplineSet
EndChar

StartChar: tml_Ta
Encoding: 21 2980 21
GlifName: tml_T_a
Width: 934
VWidth: 0
GlyphClass: 2
Flags: HMW
AnchorPoint: "Anchor-3" 536.081 561 basechar 0
AnchorPoint: "Anchor-0" 540.704 751 basechar 0
LayerCount: 2
Back
SplineSet
569 273 m 5
 482 273 l 5
 456 273 l 5
 222 273 l 6
 137.853515625 273 97 231.600585938 97 167 c 4
 97 98.21875 164.62109375 33.623046875 272 34 c 4
 373.583984375 34.3564453125 439.37890625 99.41796875 441 223 c 6
 441.787109375 283 l 5
 441.934570312 301 l 5
 443 370 l 5
 443 511 l 5
 361.008789062 511.69140625 293.984375 511.171875 250.607421875 511 c 5
 250.98828125 458.611328125 253 417 253 364 c 6
 253 291 l 5
 191 291 l 5
 191 291 198.213867188 320.028320312 198 370 c 4
 197.696289062 440.999023438 195.577148438 505.514648438 193 561 c 5
 359.477539062 561.265625 554.112304688 560.47265625 695 570 c 5
 700.4296875 559.666992188 707.404296875 528.333007812 709 511 c 5
 669.157226562 511.266601562 577.272460938 510.958984375 535 511 c 5
 535 301 l 5
 536 223 l 5
 533.248046875 84.0673828125 448.107421875 -23 282 -23 c 4
 113.81640625 -23 41.20703125 73.35546875 42.533203125 164 c 4
 44.0556640625 268.076171875 114.479492188 322.360351562 229 325 c 4
 295.728515625 326.538085938 372.811523438 326.873046875 485 326.026367188 c 4
 517.098632812 325.784179688 560.040039062 325.70703125 600 325 c 4
 699.8046875 323.235351562 818.712890625 275.390625 820 133 c 4
 820.9296875 23.7275390625 770.259765625 -106.861328125 569 -149 c 4
 515.333007812 -159.91796875 431.895507812 -167.204101562 370 -172.15234375 c 4
 295.762695312 -178.083007812 208.0625 -191.4453125 160 -214.681640625 c 4
 122.435546875 -232.854492188 96.931640625 -261.040039062 87 -295 c 5
 111.15234375 -207 l 5
 123.587890625 -249.697265625 127.840820312 -272.302734375 139 -315 c 5
 119.022460938 -329.31640625 81.697265625 -328.096679688 58 -323.887695312 c 5
 51.740234375 -318.966796875 45.767578125 -300.303710938 46 -283 c 4
 46.669921875 -233.124023438 78.48828125 -198.125976562 130 -171.443359375 c 4
 201.611328125 -136.4140625 289.633789062 -125.407226562 388 -115.868164062 c 4
 436.61328125 -111.323242188 479.692382812 -108.079101562 517 -99.0107421875 c 4
 684.245117188 -57.2412109375 717.564453125 50.60546875 716 125 c 4
 714.208984375 207.85546875 674.438476562 271.7421875 569 273 c 5
EndSplineSet
Fore
SplineSet
29.990234375 -263 m 0
 36.6064453125 -165.590820312 132.38671875 -116.33203125 270.763671875 -117 c 2
 530.676757812 -118 l 2
 712.030273438 -118.798828125 768.478515625 5.2314453125 776.536132812 109 c 0
 784.524414062 211.87109375 719.212890625 273 625.884765625 273 c 2
 545.884765625 273 l 1
 519.884765625 273 l 1
 285.884765625 273 l 2
 201.73828125 273 157.262695312 231.600585938 151.610351562 167 c 0
 145.638671875 98.736328125 204.740234375 34.603515625 323.0625 35 c 0
 419.866210938 35.32421875 488.142578125 100.072265625 500.509765625 223 c 2
 506.546875 283 l 1
 508.268554688 301 l 1
 515.37109375 370 l 1
 527.70703125 511 l 1
 445.776367188 511.69140625 378.706054688 511.171875 335.314453125 511 c 1
 331.270507812 458.611328125 331.20703125 416.990234375 325.845703125 364 c 2
 318.458984375 291 l 1
 256.458984375 291 l 1
 256.458984375 291 266.212890625 320.028320312 270.37109375 370 c 0
 276.278320312 440.999023438 279.803710938 505.514648438 282.081054688 561 c 1
 448.58203125 561.265625 643.147460938 560.47265625 784.868164062 570 c 1
 789.39453125 559.666992188 793.627929688 528.333007812 793.70703125 511 c 1
 753.887695312 511.266601562 661.975585938 510.958984375 619.70703125 511 c 1
 601.333984375 301 l 1
 595.16015625 219 l 2
 584.999023438 80 492.825195312 -23 319.987304688 -23 c 0
 148.291992188 -23 87.625 73.3544921875 96.880859375 164 c 0
 107.509765625 268.076171875 182.682617188 322.360351562 297.43359375 325 c 0
 364.296875 326.538085938 441.403320312 326.8046875 553.5234375 326.026367188 c 0
 588.391601562 325.784179688 620.0390625 325.502929688 663.43359375 325 c 0
 817.999023438 323.208007812 886.815429688 231.612304688 877.361328125 107 c 0
 870.109375 11.4208984375 809.348632812 -176.1796875 528.689453125 -175 c 2
 242.77734375 -174 l 2
 182.528320312 -173.750976562 118.219726562 -195.05078125 112.828125 -242 c 0
 110.5546875 -261.686523438 119.2265625 -278.833007812 141.655273438 -280 c 0
 155.991210938 -280.826171875 174.208007812 -277.59765625 195.602539062 -256 c 1
 202.681640625 -263.1328125 209.736328125 -279.317382812 209.890625 -287 c 1
 204.889648438 -327.208007812 173.055664062 -353.887695312 122.0390625 -353.887695312 c 0
 47.2060546875 -354.947265625 27.5009765625 -299.75 29.990234375 -263 c 0
EndSplineSet
EndChar

StartChar: tml_Na
Encoding: 22 2984 22
GlifName: tml_N_a
Width: 839
VWidth: 0
GlyphClass: 2
Flags: HMW
AnchorPoint: "Anchor-3" 446.081 561 basechar 0
AnchorPoint: "Anchor-0" 474.704 751 basechar 0
LayerCount: 2
Fore
SplineSet
118 0 m 1
 118 0 141.8984375 126 157.37109375 310 c 0
 163.50390625 382.93359375 169.670898438 507.999023438 163.081054688 565 c 1
 460.416015625 565.265625 571.080078125 570.47265625 724.868164062 589 c 1
 726.081054688 585.905273438 735.783203125 571.544921875 734.504882812 565 c 1
 731.102539062 547.592773438 720.759765625 521.80859375 713.444335938 508 c 1
 673.842773438 508.266601562 628.481445312 507.958984375 586.444335938 508 c 1
 560.77734375 508.23046875 542.372070312 446.321289062 537.120117188 413 c 1
 492 0 l 1
 461.791015625 -0.12890625 410.5625 -0.1416015625 385 0 c 1
 419.37109375 362 l 2
 425.649414062 425.681640625 434.342773438 494.51171875 447.444335938 508 c 1
 347.70703125 508.69140625 292.864257812 512.171875 240.051757812 512 c 1
 241.848632812 479.611328125 229.481445312 346.990234375 225.845703125 314 c 0
 208.387695312 155.584960938 184 0 184 0 c 1
 118 0 l 1
35.990234375 -268 m 0
 42.6064453125 -170.590820312 118.388671875 -114.010742188 266.763671875 -115 c 2
 416.676757812 -116 l 2
 618.026642783 -117.343110801 716.350585938 33.2822265625 722.536132812 169 c 0
 726 245 698.491720047 294.987803505 634.896484375 296 c 4
 567.489911319 297.072858623 516.131835938 230.520507812 509.897460938 186 c 1
 472.022460938 196 l 1
 483.122070312 285.0859375 574.02734375 356.303710938 657.446289062 356 c 0
 764.016601562 355.583984375 815 281 813.361328125 177 c 0
 810.602539062 1.91796875 675.34765625 -176.40234375 414.689453125 -175 c 6
 258.77734375 -174 l 2
 198.528320312 -173.750976562 124.219726562 -195.05078125 118.828125 -242 c 0
 116.5546875 -261.686523438 125.2265625 -278.833007812 147.655273438 -280 c 0
 161.991210938 -280.826171875 180.208984375 -277.59765625 201.602539062 -256 c 1
 211.681640625 -262.1328125 218.736328125 -279.317382812 218.890625 -287 c 1
 213.889648438 -327.208007812 179.055664062 -356.887695312 128.0390625 -356.887695312 c 0
 53.2060546875 -357.947265625 33.5009765625 -304.75 35.990234375 -268 c 0
EndSplineSet
EndChar

StartChar: tml_Nnna
Encoding: 23 2985 23
GlifName: tml_N_nna
Width: 1401
VWidth: 0
GlyphClass: 2
Flags: HMW
AnchorPoint: "Anchor-3" 1126.08 561 basechar 0
AnchorPoint: "Anchor-0" 765.705 751 basechar 0
LayerCount: 2
Back
SplineSet
797.607421875 515 m 5
 626.723632812 516.3203125 470.696289062 419.411132812 472 233 c 4
 472.890625 105.655273438 575.891601562 27.978515625 669 28 c 4
 759.802734375 28.0205078125 799.669921875 83.4541015625 800 137 c 4
 800.317382812 188.50390625 757.131835938 225.834960938 703 226 c 4
 654.694335938 226.147460938 593.918945312 183.979492188 589 115 c 4
 585.546875 66.5732421875 596.935546875 48.80078125 607 23 c 5
 590 7 l 5
 569.970703125 29.0234375 544.391601562 46.970703125 547.252929688 113 c 4
 551.935546875 221.059570312 630.18359375 296.76953125 730 296 c 4
 806.931640625 295.407226562 879.66015625 238.987304688 879 148 c 4
 878.4609375 73.751953125 830.391601562 -23.0830078125 693 -28 c 4
 525.947265625 -33.978515625 426.701171875 95.0546875 427 226 c 4
 427.466796875 430.393554688 577.021484375 553.954101562 815 554 c 4
 931.814453125 554.022460938 1099.48339844 555.47265625 1253 565 c 5
 1258.4296875 554.666992188 1265.40429688 531.333007812 1267 514 c 5
 1079 514 l 5
 1079 0 l 5
 1048.10839844 -0.12890625 1018.16308594 -0.1416015625 992 0 c 5
 994 370 l 4
 994.70703125 433.681640625 995.791015625 469.51171875 995 514 c 5
 797.607421875 515 l 5
EndSplineSet
Fore
SplineSet
100.47265625 234 m 0
 120.560546875 447.301757812 314.916992188 582.55859375 526.181640625 585 c 0
 762.422851562 587.73046875 981.529296875 436.872070312 961.0234375 206 c 0
 950.181640625 83.927734375 872.828125 -18.7958984375 756.338867188 -19 c 0
 647.756835938 -19.1904296875 603.704101562 67.1533203125 614.186523438 185 c 0
 633.8046875 405.555664062 804.810546875 560.260742188 1040.08105469 561 c 0
 1177.41601562 561.265625 1248.08007812 560.47265625 1401.86816406 570 c 1
 1406.30761719 558.673828125 1410.51074219 527 1410.44433594 508 c 1
 1370.84277344 508.266601562 1275.48144531 507.958984375 1233.44433594 508 c 1
 1189 0 l 1
 1158.79101562 -0.12890625 1122.5625 -0.1416015625 1097 0 c 1
 1131.37109375 370 l 2
 1137.64941406 433.681640625 1141.34277344 463.51171875 1144.44433594 508 c 1
 1044.70703125 508.69140625 1095.86425781 508.171875 1043.05175781 508 c 0
 866.396484375 509.415039062 693.012695312 419.869140625 673.32421875 198 c 0
 664.40234375 97.47265625 699.94921875 37.9677734375 758.325195312 38 c 0
 816.431640625 38.0322265625 864.44140625 101.765625 872.2734375 186 c 0
 890.774414062 384.9765625 713.62890625 521.447265625 517.932617188 525 c 0
 339.219726562 528.244140625 168.689453125 411.41015625 154.91015625 239 c 0
 144.732421875 111.65625 227.689453125 31.974609375 330.799804688 32 c 0
 406.603515625 32.0185546875 446.708984375 80.4541015625 451.635742188 133 c 0
 456.46484375 184.50390625 419.626953125 222.834960938 365.509765625 223 c 0
 317.216796875 223.147460938 260.365234375 187.979492188 251.499023438 120 c 0
 245.286132812 71.490234375 249.379882812 50.80078125 262.1875 25 c 1
 243.787109375 9 l 1
 225.684570312 31.0234375 203.694335938 51.91796875 210.576171875 118 c 0
 221.100585938 219.059570312 297.23046875 297.713867188 397.984375 297 c 0
 480.864257812 296.413085938 543.568359375 238.987304688 535.036132812 149 c 0
 527.995117188 74.751953125 467.123046875 -25.8095703125 336.725585938 -26 c 0
 173.538085938 -26.23828125 87.19921875 93.0576171875 100.47265625 234 c 0
EndSplineSet
EndChar

StartChar: tml_Pa
Encoding: 24 2986 24
GlifName: tml_P_a
Width: 857
VWidth: 0
GlyphClass: 2
Flags: HMW
AnchorPoint: "Anchor-3" 683.582 401 basechar 0
AnchorPoint: "Anchor-0" 494.38 713 basechar 0
AnchorPoint: "Anchor-4" 635 0 basechar 0
LayerCount: 2
Fore
SplineSet
88 0 m 1
 92.7861328125 25.4814453125 97.8857421875 53.978515625 106.860351562 147 c 2
 142.46875 565 l 5
 165.149414062 568.639648438 228.176757812 572.139648438 253.081054688 572 c 5
 223.564453125 387.443359375 210.977539062 218.263671875 207.899414062 55 c 1
 420.899414062 55 l 2
 514.198242188 55 582.88671875 63.287109375 650.66015625 71.6904296875 c 1
 681.75390625 380.099609375 l 2
 684.071289062 410.930664062 688.044921875 521.805664062 688.46875 565 c 5
 716.275390625 565.692382812 778.846679688 569.69140625 799.993164062 571 c 5
 773.859375 381.986328125 763.274491369 198.211020921 755 0 c 1
 88 0 l 1
EndSplineSet
Colour: ffffff
EndChar

StartChar: tml_Ma
Encoding: 25 2990 25
GlifName: tml_M_a
Width: 915
VWidth: 0
GlyphClass: 2
Flags: HMW
AnchorPoint: "Anchor-2" 647.269 586 basechar 0
AnchorPoint: "Anchor-3" 752.294 552 basechar 0
AnchorPoint: "Anchor-0" 489.704 751 basechar 0
LayerCount: 2
Back
SplineSet
556 0 m 6
 722.641601562 0 820.950195312 99.1689453125 822 266 c 4
 823.058401474 434.19722395 745.996954397 568.155366556 600 567 c 4
 522.630010552 566.387722171 439.397460938 527.958007812 438 399 c 6
 434 30 l 4
 511 30 l 5
 514 397 l 6
 514.771484375 490.0546875 571.90234375 509.397460938 614 509 c 4
 719.163085938 508.006835938 776.47283902 380.137728035 776 269 c 4
 775.483398438 147.576171875 721.325195312 48 555 48 c 6
 184 48 l 5
 184 560 l 5
 161.083007812 560.139648438 112.362304688 555.639648438 96 552 c 5
 96 147 l 6
 96 103.978515625 92.556640625 25.4814453125 90 0 c 5
 556 0 l 6
EndSplineSet
Fore
SplineSet
90 0 m 1
 114.395750051 129.883351576 141.912205477 451.726350053 145.46875 554 c 1
 168.149414062 557.639648438 225.176757812 566.139648438 250.081054688 566 c 1
 218.326676203 381.321149269 201.176618318 226.671249762 190.899414062 56 c 1
 581.336914062 61 l 6
 694.60546875 62.7080078125 792.920898438 148.262695312 805.359375 297 c 4
 816.348093702 428.401333077 754.448242188 527.924804688 664.28125 529 c 0
 621.713867188 529.428710938 577.3125 509.366210938 568.307617188 415 c 2
 532.0625 35 l 1
 443.0625 35 l 1
 490.745117188 420 l 2
 502.631835938 541.880859375 563.262695312 586.39453125 648.35546875 587 c 0
 787.53125 588.232421875 864.170898438 476.810546875 858.359375 307 c 0
 852.697265625 141.545898438 759.138671875 0 574 0 c 2
 90 0 l 1
EndSplineSet
Colour: ffffff
EndChar

StartChar: tml_Ya
Encoding: 26 2991 26
GlifName: tml_Y_a
Width: 996
VWidth: 0
GlyphClass: 2
Flags: HMW
AnchorPoint: "Anchor-2" 923.818 558 basechar 0
AnchorPoint: "Anchor-3" 848.582 441 basechar 0
AnchorPoint: "Anchor-4" 811 0 basechar 0
AnchorPoint: "Anchor-0" 548.704 751 basechar 0
LayerCount: 2
Fore
SplineSet
143.46875 554 m 1
 172.817382812 557.068359375 233.51953125 561.466796875 249.081054688 561 c 5
 213.936523438 125 l 2
 208.581054688 58.3388671875 239.708007812 40.6650390625 288.586914062 41 c 0
 365.331054688 41.5927734375 437.612304688 114.935546875 443.834960938 181 c 1
 477.66015625 179 l 1
 471.58203125 98.953125 399.09765625 -14.2587890625 263.6875 -15 c 0
 174.271484375 -15.4892578125 102.159179688 23.28515625 111.073242188 138 c 2
 143.46875 554 l 1
471.46875 554 m 1
 500.845703125 557.639648438 544.651367188 561.139648438 561.081054688 561 c 1
 516.899414062 56 l 1
 623.899414062 56 l 2
 654.418945312 56 758.141601562 59.89453125 814.747070312 65.6904296875 c 1
 848.028320312 446.099609375 l 2
 849.750976562 470.125 851.87890625 520.340820312 852.46875 554 c 1
 881.783203125 554.692382812 927.6171875 557.69140625 949.993164062 560 c 1
 901 0 l 1
 442.912109375 -1 l 1
 447.58984375 27.798828125 453.290039062 86.9375 456.604492188 122 c 1
 437.529296875 120.428710938 436.390625 118.764648438 436.236328125 117 c 2
 465.1953125 448 l 2
 466.70703125 465.28515625 470.713867188 520.166015625 471.46875 554 c 1
EndSplineSet
Colour: ffffff
EndChar

StartChar: tml_Ra
Encoding: 27 2992 27
GlifName: tml_R_a
Width: 704
VWidth: 0
GlyphClass: 2
Flags: HMW
AnchorPoint: "Anchor-3" 432.993 560 basechar 0
AnchorPoint: "Anchor-0" 425.704 751 basechar 0
LayerCount: 2
Back
SplineSet
88 -200 m 5
 191.1171875 -112.583007812 314.13671875 -4.611328125 358 34 c 5
 449 0 l 5
 443 -17 l 5
 321.944335938 -92.5556640625 216.20703125 -159.13671875 102 -233 c 5
 99.453125 -229.26171875 90.39453125 -218.456054688 88 -200 c 5
EndSplineSet
Refer: 37 3006 S 1 0 0 1 -23 0 2
Fore
SplineSet
77.501953125 -222 m 1
 188.267578125 -144.583007812 344.733398438 -16.611328125 391.974609375 32 c 1
 492 0 l 1
 484.512695312 -17 l 1
 366.846679688 -102.555664062 209.284179688 -191.13671875 88.615234375 -255 c 1
 86.3955078125 -251.26171875 78.2822265625 -240.456054688 77.501953125 -222 c 1
EndSplineSet
Refer: 37 3006 S 1 0 0 1 0 0 2
Substitution2: "Single Substitution lookup 23 subtable" tml_MatraAa
Colour: ffffff
EndChar

StartChar: tml_Rra
Encoding: 28 2993 28
GlifName: tml_R_ra
Width: 880
VWidth: 0
GlyphClass: 2
Flags: HMW
AnchorPoint: "Anchor-2" 655.006 583 basechar 0
AnchorPoint: "Anchor-3" 706.081 561 basechar 0
AnchorPoint: "Anchor-0" 537.705 751 basechar 0
LayerCount: 2
Back
SplineSet
677 109 m 5
 679 152.86013986 679.291015625 179.441612681 679 221 c 4
 678.532021265 352.586463437 674.89682627 528.385438575 548 526 c 4
 499.424651274 525.166960272 445.211460306 486.362304688 439 437 c 5
 425 405 l 5
 425.294921875 417.466796875 403.469778344 462.030022274 406.498046875 474 c 4
 415.909521206 511.201171875 465.396636953 585.326867553 560 586 c 4
 746.73092907 587.316570199 781.009174312 381 780 220 c 4
 779.455078125 176.137421675 780 161.612304688 778 107 c 5
 779.110351562 11.4208984375 734.762851308 -176.141312404 454 -175 c 6
 208 -174 l 6
 147.729894361 -173.754999571 85.3137086702 -195.051597562 84 -242 c 4
 83.4491323414 -261.686523438 93.6277422896 -278.707990665 116.15234375 -280 c 4
 130.560823323 -280.826469234 148.495539833 -277.59765625 168 -256 c 5
 175.703125 -263.1328125 184.173828125 -279.317382812 185 -287 c 5
 183.516601562 -327.208007812 154.016601562 -353.887695312 103 -353.887695312 c 5
 28.259765625 -354.947265626 3.71913558148 -299.750046498 3 -263 c 4
 1.09386888587 -165.590820312 92.5647526798 -116.370748876 231 -117 c 6
 451 -118 l 6
 632.423727251 -118.821036405 678.020507812 5.2314453125 677 109 c 5
106 0 m 5
 106.787109375 16.5615234375 110.446289062 38.3916015625 109.926757812 139 c 5
 111.700195312 422.177734375 l 6
 112.306025862 518.915128534 180.768555229 583.820270699 272 585 c 4
 334.228515625 585.8046875 398.560546875 550.559570312 426.092773438 490 c 5
 441.369140625 453 l 5
 441 443.249023438 l 5
 441 0 l 5
 411.919921875 -3.068359375 384.602539062 -5.466796875 349 -5 c 5
 349 401.926757812 l 5
 350.302734375 507.208984375 306.801757812 527.807617187 259 527 c 4
 213.789040613 526.236154704 170.756835938 492.826171875 172.091796875 416.826171875 c 5
 169 0 l 5
 106 0 l 5
EndSplineSet
Fore
SplineSet
16.990234375 -263 m 0
 23.6064453125 -165.590820312 119.899414062 -115.3984375 257.763671875 -117 c 2
 448.600585938 -118.868164062 l 1
 664.177734375 -114.6328125 703.8515625 77.765625 720.309570312 255 c 0
 737.830078125 443.6796875 692.359375 528.00390625 604.018554688 526 c 0
 562.404296875 525.055664062 506.249023438 486.362304688 496.232421875 437 c 1
 479.432617188 405 l 1
 480.818359375 417.466796875 454.670898438 460.041992188 458.79296875 472 c 0
 471.5859375 509.12109375 534.327148438 583.518554688 627.268554688 586 c 0
 725.006835938 588.609375 844.24609375 517.956054688 823.708984375 271 c 0
 813.022460938 142.547851562 767.509765625 -161.915039062 459.67578125 -175.15234375 c 1
 229.77734375 -174 l 2
 169.77734375 -174 105.249023438 -195.051757812 99.828125 -242 c 0
 97.5546875 -261.686523438 106.244140625 -278.708007812 128.655273438 -280 c 0
 142.991210938 -280.826171875 161.208007812 -277.59765625 182.602539062 -256 c 1
 189.681640625 -263.1328125 196.736328125 -279.317382812 196.890625 -287 c 1
 191.889648438 -327.208007812 160.055664062 -353.887695312 109.0390625 -353.887695312 c 0
 34.2060546875 -354.947265625 14.494140625 -299.75 16.990234375 -263 c 0
125 0 m 1
 127.436523438 16.5615234375 134.811523438 48.3916015625 142.087890625 139 c 1
 168.635742188 422.177734375 l 2
 177.705078125 518.915039062 251.846679688 583.8203125 343.180664062 585 c 0
 405.479492188 585.8046875 466.728515625 550.559570312 488.961914062 490 c 1
 501.001953125 453 l 1
 499.779296875 443.249023438 l 1
 461 0 l 1
 431.651367188 -3.068359375 404.124023438 -5.466796875 368.5625 -5 c 1
 404.1640625 401.926757812 l 1
 414.677734375 507.208984375 372.978515625 527.807617188 325.106445312 527 c 0
 279.829101562 526.236328125 233.874023438 492.826171875 228.559570312 416.826171875 c 1
 189 0 l 1
 125 0 l 1
EndSplineSet
Colour: ffffff
EndChar

StartChar: tml_La
Encoding: 29 2994 29
GlifName: tml_L_a
Width: 1133
VWidth: 0
GlyphClass: 2
Flags: HMW
AnchorPoint: "Anchor-2" 911.618 590 basechar 0
AnchorPoint: "Anchor-3" 845.281 529 basechar 0
AnchorPoint: "Anchor-0" 642.704 751 basechar 0
LayerCount: 2
Back
SplineSet
85 251 m 4
 85.4306640625 449.296128931 212.650390625 568 386 568 c 4
 442.388873166 568 503.615234375 557.560374518 557 520.716796875 c 4
 624.89938447 477.511777581 674.303622159 398.161965103 693 277 c 4
 710.92209982 151.138603042 727.716433043 46.7552314814 828 47 c 4
 935.432473649 47.2305108858 982.14371323 162.91303738 982 247 c 4
 981.759306753 385.717754695 929.895172991 447.473281286 865 485.159179688 c 4
 841.815324611 499.386247475 788.120510761 509.932562721 765.12109375 509.540039062 c 5
 769.450682312 529.10546875 800.040125935 575.568359375 838 577.418945312 c 5
 904.790486353 547.440429688 1031.79909264 464.72040651 1034.07128906 256 c 4
 1035.23032162 147.346837866 977.503178333 -18.9393386166 823.140625 -21 c 4
 753.130577543 -21.9587800702 687.06085209 4.86299736555 651.459960938 68 c 4
 625.862304688 111.36328125 616.258029277 172.948719512 603 253 c 4
 576.608961345 409.658284806 506.039313975 506 366 506 c 4
 237.819335938 506 138.0546875 401.817721302 139 260 c 4
 139.897460938 122.655273438 228.31640625 32.978515625 320 33 c 4
 407.336914062 33.0205078125 445.682617188 88.4541015625 446 142 c 4
 446.30078125 190.03125 405.341796875 224.845703125 354 225 c 4
 305.694335938 225.139648438 244.918945312 185.250976562 240 120 c 4
 236.546875 71.5732421875 247.935546875 53.80078125 258 28 c 5
 241 12 l 5
 220.970703125 34.0234375 195.391601562 51.970703125 198.252929688 118 c 4
 202.935546875 226.059570312 281.18359375 301.76953125 381 301 c 4
 457.931640625 300.407226562 524.66015625 247.987304688 524 157 c 4
 523.4609375 82.751953125 474.380859375 -15.8037109375 337 -21 c 4
 178.947265625 -26.978515625 84.6982421875 110.0546875 85 251 c 4
EndSplineSet
Fore
SplineSet
101.78515625 249 m 0
 120.799804688 461.423828125 273.783203125 583 464.005859375 583 c 0
 530.39453125 583 595.997070312 559.1328125 642.293945312 517.716796875 c 0
 695.063476562 470.51171875 724.571289062 398.372070312 731.234375 277 c 0
 738.14453125 151.138671875 752.986328125 48.8046875 855.287109375 49 c 0
 973.739257812 49.2255859375 1007.25683594 164.912109375 1015.69726562 248 c 0
 1024.40332031 333.708007812 999.446289062 448.91015625 934.708007812 488.159179688 c 0
 906.907226562 506.936523438 867.958007812 523.932617188 845.362304688 528.540039062 c 1
 843.278320312 558.10546875 873.533203125 588.568359375 911.655273438 590.418945312 c 1
 976.084960938 563.440429688 1090.76074219 447.717773438 1073.68066406 247 c 0
 1064.86035156 143.33984375 1003.00097656 -17.197265625 832.478515625 -19 c 0
 752.393554688 -19.8466796875 694.361328125 14.86328125 667.583984375 70 c 0
 646.3671875 113.688476562 639.7890625 174.985351562 633.309570312 255 c 0
 620.625 411.658203125 557.319335938 518 422.231445312 517 c 0
 275.126953125 515.911132812 172.888671875 409.700195312 160.309570312 255 c 0
 149.141601562 117.655273438 247.939453125 29.9775390625 336.625 30 c 0
 421.146484375 30.021484375 460.981445312 83.4541015625 465.986328125 137 c 0
 470.4765625 185.03125 434.344726562 219.858398438 385.247070312 220 c 0
 336.954101562 220.139648438 272.42578125 180.270507812 262.061523438 115 c 0
 254.37109375 66.5732421875 264.205078125 48.80078125 272.012695312 23 c 1
 253.612304688 7 l 1
 235.509765625 29.0234375 211.500976562 46.970703125 220.138671875 113 c 0
 234.275390625 221.059570312 317.147460938 296.76953125 416.896484375 296 c 0
 493.776367188 295.407226562 557.568359375 238.987304688 548.948242188 148 c 0
 541.913085938 73.751953125 483.206054688 -24.8681640625 342.725585938 -26 c 0
 175.447265625 -27.34765625 89.1669921875 108.0546875 101.78515625 249 c 0
EndSplineSet
Colour: ffffff
EndChar

StartChar: tml_Lla
Encoding: 30 2995 30
GlifName: tml_L_la
Width: 1242
VWidth: 0
GlyphClass: 2
Flags: HMW
AnchorPoint: "Anchor-3" 967.081 561 basechar 0
AnchorPoint: "Anchor-0" 682.704 751 basechar 0
LayerCount: 2
Back
SplineSet
444.607421875 511 m 5
 263.723632812 512.3203125 107.696289062 419.411132812 109 233 c 4
 109.890625 105.655273438 212.891601562 27.978515625 306 28 c 4
 396.802734375 28.0205078125 436.669921875 83.4541015625 437 137 c 4
 437.317382812 188.50390625 394.131835938 225.834960938 340 226 c 4
 291.694335938 226.147460938 230.918945312 183.979492188 226 115 c 4
 222.546875 66.5732421875 233.935546875 48.80078125 244 23 c 5
 227 7 l 5
 206.970703125 29.0234375 181.391601562 46.970703125 184.252929688 113 c 4
 188.935546875 221.059570312 267.18359375 296.76953125 367 296 c 4
 443.931640625 295.407226562 510.66015625 241.987304688 510 151 c 4
 509.4609375 76.751953125 467.391601562 -23.0830078125 330 -28 c 4
 162.947265625 -33.978515625 63.701171875 100.0546875 64 231 c 4
 64.37109375 393.540039062 160.546875 504.970703125 324 543.45703125 c 4
 364.12890625 552.90625 415.599609375 554.3046875 452 554 c 4
 568.814453125 553.022460938 736.483398438 554.47265625 890 564 c 5
 895.4296875 553.666992188 902.404296875 527.333007812 904 510 c 5
 716 510 l 5
 716 0 l 5
 685.108398438 -0.12890625 655.163085938 -0.1416015625 629 0 c 5
 631 370 l 4
 631.70703125 433.681640625 632.791015625 465.51171875 632 510 c 5
 444.607421875 511 l 5
EndSplineSet
Fore
SplineSet
102.397460938 256 m 0
 121.150390625 465.423828125 266.783203125 583 447.005859375 583 c 0
 582.265625 583 690.392578125 493.908203125 717.3828125 393 c 9
 686.483398438 337 661.313476562 180.985351562 654.834960938 261 c 0
 642.149414062 417.658203125 567.319335938 518 422.231445312 517 c 0
 275.131835938 515.986328125 169.8984375 409.700195312 157.309570312 255 c 0
 146.141601562 117.655273438 247.939453125 29.978515625 336.625 30 c 0
 423.963867188 30.021484375 464.984375 83.4541015625 469.986328125 137 c 0
 474.489257812 185.03125 436.576171875 219.845703125 385.247070312 220 c 0
 336.954101562 220.139648438 272.688476562 180.250976562 262.061523438 115 c 0
 254.37109375 66.5732421875 264.205078125 48.80078125 272.012695312 23 c 1
 253.612304688 7 l 1
 235.509765625 29.0234375 211.500976562 46.970703125 220.138671875 113 c 0
 234.275390625 221.059570312 317.147460938 296.76953125 416.896484375 296 c 0
 493.776367188 295.407226562 557.568359375 238.987304688 548.948242188 148 c 0
 541.913085938 73.751953125 483.206054688 -24.8681640625 342.725585938 -26 c 0
 175.447265625 -27.34765625 89.7763671875 115.0546875 102.397460938 256 c 0
611 0 m 1
 611 0 624.71875 158.272460938 642.845703125 364 c 0
 644.15625 378.879882812 685.057617188 354.216796875 686.37109375 370 c 0
 692.482421875 443.327148438 698.469726562 501.6953125 700.90625 559 c 1
 838.745117188 559.265625 1088.43066406 559.47265625 1242.78125 569 c 1
 1247.20214844 557.474609375 1251.80273438 530.333007812 1251.70703125 511 c 1
 1212.32324219 511.266601562 1112.51367188 510.958984375 1070.70703125 511 c 1
 1026 0 l 1
 993.013671875 -0.12890625 958.9140625 -0.1416015625 931 0 c 1
 965.37109375 370 l 2
 971.649414062 433.681640625 975.60546875 466.51171875 978.70703125 511 c 1
 881.524414062 511.69140625 801.775390625 511.171875 750.314453125 511 c 1
 746.111328125 458.611328125 740.869140625 409.990234375 736.358398438 347 c 1
 706 0 l 1
 611 0 l 1
EndSplineSet
Colour: ffffff
EndChar

StartChar: tml_Llla
Encoding: 31 2996 31
GlifName: tml_L_lla
Width: 925
VWidth: 0
GlyphClass: 2
Flags: HMWO
AnchorPoint: "Anchor-3" 766.081 561 basechar 0
AnchorPoint: "Anchor-0" 506.704 751 basechar 0
LayerCount: 2
Back
SplineSet
48 -227 m 4
 47.3837890625 -123.344726562 145.180664062 -70 222 -70 c 5
 232.040039062 -77.4990234375 242.916015625 -96.5869140625 240 -111 c 5
 149.051757812 -113.106445312 97 -162.491210938 97 -221 c 4
 97 -261.272460938 127.6484375 -301.444335938 192 -302 c 4
 222.674804688 -302.264648438 257.747070312 -289.116210938 277 -248 c 5
 293.93359375 -217.956054688 333.55859375 -125.540039062 420 -123 c 5
 487 -123 l 5
 558 -170 l 5
 524.96552748 -170.268025193 455.772460938 -166.67578125 432 -174 c 5
 358.96484375 -181.415039062 364.541015625 -350.918945312 207 -354 c 4
 101.405273438 -356.065429688 48.423828125 -298.365234375 48 -227 c 4
432 16 m 5
 509 15 l 5
 509 -56 l 6
 509 -116.0546875 531.219726562 -124 568 -124 c 4
 593 -124 670 -122 696 -120 c 5
 697 -133.8125 696 -156 693 -171 c 5
 530 -170 l 6
 465.128548885 -169.602015637 432 -140.01953125 432 -45 c 6
 432 16 l 5
EndSplineSet
Refer: 25 2990 S 1 0 0 1 0 13 2
Fore
SplineSet
58.9150390625 -241 m 0
 67.4873046875 -135.344726562 170.619140625 -75 257.438476562 -75 c 1
 266.822265625 -82.4990234375 278.890625 -114.586914062 274.713867188 -129 c 1
 183.581054688 -131.106445312 119.258789062 -168.491210938 113.790039062 -231 c 0
 110.266601562 -271.272460938 139.826171875 -306.571289062 201.140625 -307 c 0
 240.791992188 -307.27734375 269.977539062 -283.116210938 291.690429688 -255 c 0
 349.5390625 -175.956054688 386.4375 -138.540039062 493.1015625 -136 c 1
 522.9765625 -126 l 1
 594.814453125 -185 l 1
 561.756835938 -185.267578125 528.615234375 -184.67578125 504.814453125 -185 c 1
 401.130859375 -192.415039062 378.705078125 -363.858398438 200.891601562 -367 c 0
 97.1328125 -368.833007812 53.6123046875 -306.365234375 58.9150390625 -241 c 0
453.399414062 16 m 1
 540.3125 15 l 1
 536.375 -30 l 2
 530.317382812 -99.2392578125 575.021484375 -128 611.801757812 -128 c 0
 636.801757812 -128 676.9765625 -126 703.151367188 -124 c 1
 702.943359375 -137.8125 699.126953125 -170 694.814453125 -185 c 1
 602.814453125 -185 l 2
 537.943359375 -185 439.48828125 -143.004882812 447.712890625 -49 c 2
 453.399414062 16 l 1
EndSplineSet
Refer: 25 2990 S 1 0 0 1 10 0 2
Colour: ffffff
EndChar

StartChar: tml_Va
Encoding: 32 2997 32
GlifName: tml_V_a
Width: 1157
VWidth: 0
GlyphClass: 2
Flags: HMW
AnchorPoint: "Anchor-3" 983.582 441 basechar 0
AnchorPoint: "Anchor-4" 947 0 basechar 0
AnchorPoint: "Anchor-0" 609.704 751 basechar 0
LayerCount: 2
Back
SplineSet
431.607421875 510 m 5
 484.405273438 510.171875 521.202148438 511.69140625 621 511 c 5
 621.791015625 466.51171875 620.70703125 433.681640625 620 370 c 4
 618 0 l 5
 644.163085938 -0.1416015625 674.108398438 -0.12890625 705 0 c 5
 705 511 l 5
 748.196289062 510.958984375 852.286132812 511.266601562 893 511 c 5
 891.404296875 528.333007812 884.4296875 552.666992188 879 563 c 5
 725.483398438 553.47265625 555.814453125 552.022460938 439 553 c 4
 402.599609375 553.3046875 351.12890625 549.90625 311 540.45703125 c 4
 147.546875 501.970703125 54.37109375 389.540039062 54 223 c 4
 53.7080078125 92.0546875 145.833984375 -28.2314453125 304 -28 c 4
 438.380859375 -27.8037109375 498.4609375 72.751953125 499 147 c 4
 499.66015625 237.987304688 435.931640625 296.413085938 350 297 c 4
 249.18359375 297.688476562 180.935546875 219.059570312 179.252929688 118 c 4
 178.15234375 51.91796875 199.970703125 29.0234375 220 7 c 5
 237 23 l 5
 226.935546875 48.80078125 216.03125 73.490234375 218 122 c 4
 220.918945312 189.979492188 280.694335938 226.147460938 329 226 c 4
 383.131835938 225.834960938 426.317382812 188.50390625 426 137 c 4
 425.669921875 83.4541015625 382.802734375 28.0185546875 292 28 c 4
 188.891601562 27.978515625 98.890625 105.655273438 98 233 c 4
 96.6962890625 419.411132812 243.723632812 511.3203125 431.607421875 510 c 5
EndSplineSet
Fore
SplineSet
697.0234375 9 m 1
 701 -18 640.188476562 45.427734375 644.899414062 56 c 1
 737.506835938 55.654296875 887.844726562 58.7001953125 950.747070312 65.6904296875 c 1
 981.75390625 420.099609375 l 2
 984.45703125 451 988.044921875 530.805664062 988.46875 574 c 1
 1016.27539062 574.692382812 1062.84667969 578.69140625 1083.99316406 580 c 1
 1041.73632812 77 l 2
 1039.046875 51.927734375 1038.11523438 26.71484375 1037 0 c 1
 611 0 l 1
 597.2734375 19 l 0
 655.313883296 99.2791900153 678.690429688 194.290039062 684.575195312 271 c 0
 695.4765625 413.0859375 596.3671875 516.692382812 469.282226562 519 c 0
 290.569335938 522.244140625 147.181392335 380.402334397 144.03515625 198 c 0
 142.176757812 90.259765625 207.689453125 31.974609375 310.799804688 32 c 0
 386.603515625 32.0185546875 445.62109375 79.4541015625 450.548828125 132 c 0
 455.377929688 183.50390625 418.540039062 221.834960938 364.422851562 222 c 0
 316.129882812 222.147460938 260.365234375 187.979492188 251.499023438 120 c 0
 245.286132812 71.490234375 249.379882812 50.80078125 262.1875 25 c 1
 243.787109375 9 l 1
 225.684570312 31.0234375 203.694335938 51.91796875 210.576171875 118 c 0
 221.100585938 219.059570312 307.23046875 307.713867188 407.984375 307 c 0
 490.864257812 306.413085938 543.568359375 238.987304688 535.036132812 149 c 0
 527.995117188 74.751953125 447.123028174 -25.7971684013 316.725585938 -26 c 0
 163.538085938 -26.23828125 90.94921875 51.4443359375 89.59765625 193 c 0
 87.560546875 406.301757812 258.999090748 591.115220384 492.26953125 593 c 0
 675.137695312 594.477539062 792.594726562 468.809570312 789.412109375 312 c 0
 786.65234375 176.006835938 724.381504145 60.5152929441 697.0234375 9 c 1
EndSplineSet
Colour: ffffff
EndChar

StartChar: tml_Sha
Encoding: 33 2998 33
GlifName: tml_S_ha
Width: 1104
VWidth: 0
GlyphClass: 2
Flags: HMW
AnchorPoint: "Anchor-2" 799.818 558 basechar 0
AnchorPoint: "Anchor-3" 907.331 541 basechar 0
AnchorPoint: "Anchor-0" 593.704 751 basechar 0
LayerCount: 2
Fore
SplineSet
138.206054688 551 m 1
 167.5546875 554.068359375 214.256835938 558.466796875 229.818359375 558 c 1
 198.435546875 165 l 2
 192.176757812 86.619140625 230.029296875 41.41796875 302.674804688 42 c 0
 364.71484375 42.4970703125 409.309570312 97.919921875 418.03125 184.233398438 c 2
 441.044921875 412 l 2
 444.581054688 446.994140625 448.176757812 532.865234375 447.818359375 558 c 1
 806.818359375 558 l 2
 973.459960938 558 1062.3125 449.624023438 1049.02148438 286 c 0
 1035.12792969 114.942382812 946.7734375 -14.001953125 800.862304688 -13 c 0
 711.159179688 -12.3837890625 635.080078125 30.2919921875 644.998046875 160 c 2
 672.756835938 523 l 1
 758.756835938 523 l 1
 729.6484375 156 l 2
 722.360351562 64.1171875 777.889648438 45.5751953125 820.024414062 46 c 0
 918.81640625 46.9970703125 978.110351562 167.385742188 987.409179688 279 c 0
 997.392578125 398.826171875 942.23828125 505 791.181640625 505 c 2
 504.181640625 505 l 1
 475.563476562 181.810546875 l 2
 465.969726562 73.47265625 409.771484375 -16.9130859375 266.600585938 -16 c 0
 191.1171875 -15.5185546875 97.9873046875 33.2841796875 106.510742188 143 c 2
 138.206054688 551 l 1
EndSplineSet
Colour: ffffff
EndChar

StartChar: tml_Ssa
Encoding: 34 2999 34
GlifName: tml_S_sa
Width: 1482
VWidth: 0
GlyphClass: 2
Flags: HMW
AnchorPoint: "Anchor-2" 1022.43 565 basechar 0
AnchorPoint: "Anchor-3" 1134.71 511 basechar 0
AnchorPoint: "Anchor-0" 600.704 751 basechar 0
LayerCount: 2
Fore
SplineSet
101.34765625 244 m 4
 120.537109375 458.423828125 282.15625 586.826171875 473.09375 584 c 4
 659.611328125 581.239257812 786.116210938 453.870117188 769.872070312 250 c 4
 762.651367188 158.431640625 728.624023438 75.56640625 695.3046875 9 c 5
 700.404296875 22.21875 640.188476562 45.427734375 644.899414062 56 c 5
 849.971679688 53.369140625 1204.59570312 57.51171875 1312.82519531 66.0673828125 c 5
 1332.67578125 301 l 5
 1359.07128906 298 l 5
 1320.83984375 246.471679688 1232.953125 198.518554688 1113.3671875 198.5078125 c 4
 935.923828125 198.4921875 841.83203125 304.6171875 850.658203125 405.494140625 c 4
 860.311523438 515.838867188 949.860351562 565.013671875 1022.48046875 565.569335938 c 4
 1099.18261719 566.15625 1175.15429688 516.11328125 1164.84277344 409.685546875 c 5
 1107.12792969 -250 l 5
 1021.12792969 -250 l 5
 1078.08300781 401 l 6
 1084.82519531 478.05859375 1048.4375 502.244140625 1008.86523438 501.37890625 c 4
 964.375 500.40625 921.932617188 467.858398438 916.6953125 408 c 4
 908.79296875 317.676757812 1009.67773438 257.26953125 1117.80859375 260.70703125 c 4
 1296.50097656 266.387695312 1376.7578125 374.255859375 1416.22070312 414 c 5
 1437.75292969 416 l 5
 1432.04199219 381.870117188 1426.78417969 329.002929688 1425.296875 312 c 6
 1398 0 l 5
 611 0 l 5
 598.575195312 18 l 5
 635.94921875 79.9873046875 666.853515625 146.705078125 676.522460938 246 c 4
 691.5234375 400.067382812 600.587890625 521.073242188 446.668945312 522 c 4
 287.576171875 522.969726562 172.4609375 404.700195312 159.872070312 250 c 4
 148.704101562 112.655273438 247.8515625 28.978515625 336.537109375 29 c 4
 423.875976562 29.021484375 464.984375 83.4541015625 469.986328125 137 c 4
 474.489257812 185.03125 436.576171875 219.845703125 385.247070312 220 c 4
 336.954101562 220.139648438 272.688476562 180.250976562 262.061523438 115 c 4
 254.37109375 66.5732421875 264.205078125 48.80078125 272.012695312 23 c 5
 253.612304688 7 l 5
 235.509765625 29.0234375 211.500976562 46.970703125 220.138671875 113 c 4
 234.275390625 221.059570312 317.147460938 296.76953125 416.896484375 296 c 4
 493.776367188 295.407226562 557.918945312 242.987304688 549.297851562 152 c 4
 542.263671875 77.751953125 488.206054688 -24.8681640625 351.725585938 -26 c 4
 184.443359375 -27.3876953125 88.7333984375 103.0546875 101.34765625 244 c 4
EndSplineSet
Colour: ffffff
EndChar

StartChar: tml_Sa
Encoding: 35 3000 35
GlifName: tml_S_a
Width: 1424
VWidth: 0
GlyphClass: 2
Flags: HMW
AnchorPoint: "Anchor-3" 1136.28 529 basechar 0
AnchorPoint: "Anchor-2" 1202.62 590 basechar 0
AnchorPoint: "Anchor-0" 818.704 751 basechar 0
LayerCount: 2
Back
SplineSet
653 583 m 0
 719.388671875 583 787.078867421 559.132530276 837 517.716796875 c 0
 893.899414062 470.51171875 929.717402551 398.371824565 947 277 c 0
 964.921875 151.138671875 988.716795946 48.8051748494 1091 49 c 0
 1209.43261719 49.2255859375 1232.82892135 164.912111915 1234 248 c 0
 1235.20800781 333.708007812 1200.17164346 448.910331999 1132 488.159179688 c 0
 1102.55566406 506.936523438 1062.12011719 523.932617188 1039.12109375 528.540039062 c 1
 1034.45019531 558.10546875 1062.04003906 588.568359375 1100 590.418945312 c 1
 1166.79003906 563.440429688 1291.59099442 447.717773855 1292.07128906 247 c 0
 1292.31933594 143.33984375 1244.50585849 -17.1971822944 1074.140625 -19 c 0
 994.129882812 -19.8466796875 933.060379553 14.8631853527 901.459960938 70 c 0
 876.420898438 113.688476562 864.479279126 174.985235392 851 255 c 0
 824.609375 411.658203125 752 518 617 517 c 1024
EndSplineSet
Fore
SplineSet
611 0 m 1
 611 0 624.725585938 158.272460938 642.845703125 364 c 0
 644.15625 378.879882812 685.227539062 354.21875 686.37109375 370 c 0
 687.6640625 391.7265625 686.229492188 405.569335938 687.270507812 426 c 0
 692.504882812 504.154296875 755.361328125 577.716796875 843.543945312 577.716796875 c 0
 988.333007812 577.716796875 1013.21875 430.810546875 1022.58398438 281 c 0
 1030.44628906 153.120117188 1043.69628906 48.8046875 1145.28710938 49 c 0
 1264.56738281 49.2255859375 1298.24804688 164.912109375 1306.69726562 248 c 0
 1315.40332031 333.708007812 1288.33203125 445.86328125 1225.70800781 488.159179688 c 0
 1197.90722656 506.936523438 1158.95800781 523.932617188 1136.36230469 528.540039062 c 1
 1134.27832031 558.10546875 1164.53320312 588.568359375 1202.65527344 590.418945312 c 1
 1267.08496094 563.440429688 1381.76074219 447.717773438 1364.68066406 247 c 0
 1355.86035156 143.33984375 1294.00097656 -17.197265625 1123.47851562 -19 c 0
 1043.39355469 -19.8466796875 985.852539062 15.1337890625 958.583984375 70 c 0
 936.87109375 113.688476562 925.953125 174.413085938 923.309570312 255 c 0
 918.870117188 390.319335938 898.295898438 479.974609375 826.689453125 481 c 0
 780.447265625 481.662109375 745.102539062 446.9453125 738.983398438 377 c 2
 706 0 l 1
 611 0 l 1
102.397460938 256 m 0
 121.150390625 465.423828125 266.783203125 583 447.005859375 583 c 0
 582.265625 583 690.392578125 493.908203125 717.3828125 393 c 1
 686.483398438 337 661.313476562 180.985351562 654.834960938 261 c 0
 642.149414062 417.658203125 567.319335938 518 422.231445312 517 c 0
 275.131835938 515.986328125 169.888671875 409.700195312 157.309570312 255 c 0
 146.141601562 117.655273438 247.939453125 29.978515625 336.625 30 c 0
 423.963867188 30.021484375 464.966796875 83.4541015625 469.986328125 137 c 0
 474.489257812 185.03125 436.576171875 219.8515625 385.247070312 220 c 0
 336.954101562 220.139648438 272.42578125 180.270507812 262.061523438 115 c 0
 254.37109375 66.5732421875 264.205078125 48.80078125 272.012695312 23 c 1
 253.612304688 7 l 1
 235.509765625 29.0234375 211.500976562 46.970703125 220.138671875 113 c 0
 234.275390625 221.059570312 317.147460938 296.76953125 416.896484375 296 c 0
 493.776367188 295.407226562 557.568359375 238.987304688 548.948242188 148 c 0
 541.913085938 73.751953125 483.206054688 -24.8681640625 342.725585938 -26 c 0
 175.447265625 -27.34765625 89.7763671875 115.0546875 102.397460938 256 c 0
EndSplineSet
Colour: ffffff
EndChar

StartChar: tml_Ha
Encoding: 36 3001 36
GlifName: tml_H_a
Width: 1708
VWidth: 0
GlyphClass: 2
Flags: HMW
AnchorPoint: "Anchor-3" 1506.08 561 basechar 0
AnchorPoint: "Anchor-0" 963.704 751 basechar 0
LayerCount: 2
Back
SplineSet
1582 259 m 4
 1582.64941406 20.7119140625 1486.68554688 -162.0390625 1289 -186.356445312 c 4
 1037.17675781 -217.333007812 643.575195312 -197.157226562 513 -207.15234375 c 4
 401.449203234 -215.691203549 200.482421875 -225.306640625 186 -309 c 5
 202.15234375 -244 l 5
 212.229492188 -278 224.649414062 -329 233 -363 c 5
 211.735351562 -368.627929688 175.498046875 -371.370117188 157 -370.887695312 c 4
 133.692382812 -369.530273438 126.819335938 -353.458984375 127 -337 c 4
 128.610351562 -190.537109375 372.479492188 -174.19921875 523 -161.868164062 c 4
 652.274414062 -151.27734375 1060.99707031 -169.885742188 1229 -137.6953125 c 5
 1434.41015625 -114.231445312 1488.47363281 36.9150390625 1489 261 c 4
 1489.28320312 381.671875 1453.33554284 510.83400092 1339 510 c 4
 1287.87616781 509.627086013 1244.64160156 466.362304688 1239 417 c 6
 1225 385 l 5
 1225.29492188 397.466796875 1195.42285156 440.041992188 1198.49804688 452 c 5
 1207.72558594 489.201171875 1256.24730969 559.112319923 1349 560 c 4
 1486.54980469 561.31640625 1581.46582031 455.013671875 1582 259 c 4
1245 423.249023438 m 5
 1245 1 l 5
 1215.91992188 -2.068359375 1200.60253906 -4.466796875 1165 -4 c 5
 1165 351.926757812 l 5
 1166.30273438 467.208984375 1114.80175781 512.807617188 1063 512 c 4
 1017.78808594 511.294921875 975.756835938 483.826171875 977.091796875 407.826171875 c 5
 976.284179688 104 l 5
 976.65234375 52.7646484375 979.463867188 32.1611328125 981 -3 c 5
 591 0 l 5
 577 18 l 5
 608.951171875 79.9873046875 632.018554688 141.705078125 633 246 c 4
 634.428710938 400.068359375 533 518.073242188 379 519 c 4
 219.822265625 519.969726562 116.0546875 401.700195312 117 247 c 4
 117.84765625 109.655273438 218.31640625 27.978515625 310 28 c 4
 397.336914062 28.0205078125 435.682617188 83.4541015625 436 137 c 4
 436.30078125 185.03125 395.341796875 219.845703125 344 220 c 4
 295.694335938 220.139648438 234.918945312 180.250976562 230 115 c 4
 226.546875 66.5732421875 237.935546875 48.80078125 248 23 c 5
 231 7 l 5
 210.970703125 29.0234375 185.391601562 46.970703125 188.252929688 113 c 4
 192.935546875 221.059570312 271.18359375 296.76953125 371 296 c 4
 447.931640625 295.407226562 514.66015625 242.987304688 514 152 c 4
 513.4609375 77.751953125 464.380859375 -20.8037109375 327 -26 c 4
 168.947265625 -31.978515625 64.70703125 99.0546875 65 240 c 4
 65.4306640625 450.423828125 210.818359375 579.998046875 402 577 c 4
 580.759765625 574.239257812 722.408203125 453.870117188 724 250 c 4
 724.790039062 158.431640625 699.012695312 75.56640625 671.517578125 9 c 5
 675.459960938 22.21875 614.213867188 36.427734375 618 47 c 5
 740.637695312 45.654296875 817.708984375 48.7001953125 930 52.6904296875 c 5
 927 14 l 5
 922.926757812 139 l 5
 922.700195312 408.177734375 l 5
 923.3203125 504.915039062 983.768554688 559.8203125 1075 561 c 4
 1137.22851562 561.8046875 1198.56054688 530.559570312 1226.09277344 470 c 5
 1245.36914062 443 l 5
 1245 423.249023438 l 5
EndSplineSet
Fore
SplineSet
26.990234375 -263 m 0
 33.6064453125 -165.590820312 129.899414062 -115.3984375 267.763671875 -117 c 1
 1276.60058594 -118.868164062 l 1
 1492.17773438 -114.6328125 1531.8515625 77.765625 1548.30957031 255 c 0
 1565.83007812 443.6796875 1521.19726562 525.888671875 1432.01855469 526 c 0
 1387.49121094 526.055664062 1334.24902344 486.362304688 1324.23242188 437 c 1
 1307.43261719 405 l 1
 1308.81835938 417.466796875 1282.67089844 460.041992188 1286.79296875 472 c 0
 1299.5859375 509.12109375 1362.32714844 583.518554688 1455.26855469 586 c 0
 1553.00683594 588.609375 1672.24609375 517.956054688 1651.70898438 271 c 0
 1641.02246094 142.547851562 1595.50976562 -161.915039062 1287.67578125 -175.15234375 c 1
 239.77734375 -174 l 2
 179.77734375 -174 115.249023438 -195.051757812 109.828125 -242 c 0
 107.5546875 -261.686523438 116.244140625 -278.708007812 138.655273438 -280 c 0
 152.991210938 -280.826171875 171.208007812 -277.59765625 192.602539062 -256 c 1
 199.681640625 -263.1328125 206.736328125 -279.317382812 206.890625 -287 c 1
 201.889648438 -327.208007812 170.055664062 -353.887695312 119.0390625 -353.887695312 c 0
 44.2060546875 -354.947265625 24.494140625 -299.75 26.990234375 -263 c 0
115.872070312 250 m 0
 135.0625 464.423828125 296.15625 586.826171875 487.09375 584 c 0
 673.611328125 581.239257812 799.94921875 453.869140625 783.872070312 250 c 0
 776.651367188 158.431640625 742.624023438 75.56640625 709.3046875 9 c 1
 714.404296875 22.21875 654.188476562 45.427734375 658.899414062 56 c 1
 751.506835938 55.654296875 906.756835938 57.7001953125 969.599609375 64 c 1
 969.599609375 64 999.540039062 35.1611328125 999 0 c 1
 625 0 l 1
 612.575195312 18 l 1
 649.94921875 79.9873046875 680.853515625 146.705078125 690.522460938 246 c 0
 705.5234375 400.067382812 614.586914062 521.061523438 460.668945312 522 c 0
 301.576171875 522.969726562 186.9765625 410.700195312 174.397460938 256 c 0
 163.228515625 118.655273438 261.8515625 28.978515625 350.537109375 29 c 0
 437.875976562 29.021484375 478.966796875 83.4541015625 483.986328125 137 c 0
 488.489257812 185.03125 450.576171875 219.8515625 399.247070312 220 c 0
 350.954101562 220.139648438 286.42578125 180.270507812 276.061523438 115 c 0
 268.37109375 66.5732421875 278.205078125 48.80078125 286.012695312 23 c 1
 267.612304688 7 l 1
 249.509765625 29.0234375 225.500976562 46.970703125 234.138671875 113 c 0
 248.275390625 221.059570312 331.147460938 296.76953125 430.896484375 296 c 0
 507.776367188 295.407226562 571.918945312 242.987304688 563.297851562 152 c 0
 556.263671875 77.751953125 502.206054688 -24.8681640625 365.725585938 -26 c 0
 198.443359375 -27.3876953125 103.2578125 109.0546875 115.872070312 250 c 0
954 0 m 1
 956.236328125 16.5615234375 961.8046875 38.3916015625 970.087890625 139 c 1
 996.635742188 422.177734375 l 2
 1005.70507812 518.915039062 1079.84667969 583.8203125 1171.18066406 585 c 0
 1233.47949219 585.8046875 1294.72851562 550.559570312 1316.96191406 490 c 1
 1329.00195312 453 l 1
 1327.77929688 443.249023438 l 1
 1289 0 l 1
 1259.65136719 -3.068359375 1232.12402344 -5.466796875 1196.5625 -5 c 1
 1232.1640625 401.926757812 l 1
 1242.67773438 507.208984375 1200.97851562 527.807617188 1153.10644531 527 c 0
 1107.82910156 526.236328125 1061.9609375 493.826171875 1056.64648438 417.826171875 c 1
 1029.90527344 136 l 2
 1024.67578125 73.9140625 1022.96289062 45.224609375 1021 0 c 1
 954 0 l 1
EndSplineSet
Colour: ffffff
EndChar

StartChar: tml_MatraAa
Encoding: 37 3006 37
GlifName: tml_M_atraA_a
Width: 704
VWidth: 0
GlyphClass: 2
Flags: HMW
LayerCount: 2
Back
SplineSet
650 563 m 5
 655.4296875 552.666992188 662.404296875 528.333007812 664 511 c 5
 623.286262718 511.266946152 544.196289062 510.958984375 501 511 c 5
 501 -2 l 5
 470.108398438 -1.12890625 442.163085938 -0.1416015625 416 0 c 5
 416 511 l 5
 316.202148438 511.69140625 227.405273438 511.171875 174.607421875 511 c 5
 175.98828125 485.611328125 177 416.990234375 178 364 c 4
 181 205 182 0 182 0 c 5
 122 0 l 5
 122 0 130 136 129 370 c 4
 128.696289062 440.999023438 127.577148438 500.514648438 124 553 c 5
 261.815429688 553.265625 496.483398438 553.47265625 650 563 c 5
EndSplineSet
Fore
SplineSet
88 0 m 5
 88 0 111.8984375 126 127.37109375 310 c 4
 133.504134982 382.933798075 139.670898438 507.999023438 133.081054688 565 c 5
 430.416015625 565.265625 571.080078125 570.47265625 724.868164062 589 c 5
 726.081054688 585.905273438 735.783203125 571.544921875 734.504882812 565 c 5
 731.102539062 547.592773438 720.759765625 521.80859375 713.444335938 508 c 5
 673.842773438 508.266601562 628.481445312 507.958984375 586.444335938 508 c 5
 560.77734375 508.23046875 542.372070312 446.321289062 537.120117188 413 c 5
 492 0 l 5
 461.791015625 -0.12890625 410.5625 -0.1416015625 385 0 c 5
 419.37109375 362 l 6
 425.649414062 425.681640625 434.342773438 494.51171875 447.444335938 508 c 5
 347.70703125 508.69140625 262.864257812 512.171875 210.051757812 512 c 5
 211.848632812 479.611328125 199.481445312 346.990234375 195.845703125 314 c 4
 178.387347641 155.585236379 154 0 154 0 c 5
 88 0 l 5
EndSplineSet
Colour: ffffff
EndChar

StartChar: tml_MatraI
Encoding: 38 3007 38
GlifName: tml_M_atraI_
Width: 215
Flags: HMW
LayerCount: 2
Fore
SplineSet
-317.1953125 695 m 0
 -303.711914062 849.1171875 -188.255859375 957 -49.2734375 957 c 0
 112.000976562 957 197.801757812 832.122070312 180.030273438 629 c 2
 135.598632812 146 l 1
 120 0 l 1
 60 0 l 1
 66.671875 51.544921875 72.853515625 105.674804688 77.123046875 150 c 2
 120.368164062 610 l 2
 139.520507812 808.176757812 42.318359375 872 -62.7099609375 872 c 0
 -177.684570312 872 -260.372070312 795.852539062 -269.544921875 691 c 0
 -274.657226562 632.573242188 -241.01171875 560.966796875 -189.268554688 557 c 1
 -227.630859375 530 l 1
 -270.666015625 536.971679688 -325.560546875 599.381835938 -317.1953125 695 c 0
EndSplineSet
Substitution2: "Single Substitution lookup 24 subtable" tml_MatraI.stylalt1
Substitution2: "Single Substitution lookup 23 subtable" tml_MatraI.alt7
Substitution2: "Single Substitution lookup 22 subtable" tml_MatraI.alt6
Substitution2: "Single Substitution lookup 21 subtable" tml_MatraI.alt5
Substitution2: "Single Substitution lookup 20 subtable" tml_MatraI.alt4
Substitution2: "Single Substitution lookup 19 subtable" tml_MatraI.alt3
Substitution2: "Single Substitution lookup 18 subtable" tml_MatraI.alt2
Substitution2: "Single Substitution lookup 17 subtable" tml_MatraI.alt1
Colour: ffffff
EndChar

StartChar: tml_MatraIi
Encoding: 39 3008 39
GlifName: tml_M_atraI_i
Width: 40
GlyphClass: 4
Flags: HMW
AnchorPoint: "Anchor-3" -54.6934 495 mark 0
LayerCount: 2
Fore
SplineSet
-209.569335938 645 m 0
 -195.84375 809.76953125 -54.056640625 900 63.740234375 900 c 0
 166.029296875 900 230.616210938 845.606445312 225.278320312 769 c 0
 220.786132812 701.520507812 170.501953125 658.510742188 107.567382812 658 c 0
 43.8603515625 657.47265625 -1.908203125 694.232421875 1.529296875 749 c 0
 4.1181640625 791.59375 28.642578125 829.086914062 66.03125 855.078125 c 1
 98.1025390625 847 l 1
 72.3349609375 826.236328125 48.482421875 792.206054688 46.666015625 762 c 0
 44.8466796875 732.752929688 64.8076171875 709.452148438 108.1171875 710 c 0
 143.670898438 710.450195312 161.389648438 734.607421875 163.228515625 757 c 0
 168.100585938 815.997070312 76.291015625 824.9296875 42.0029296875 823 c 0
 -57.4794921875 817.588867188 -138.994140625 752.923828125 -148.83203125 642 c 0
 -155.212890625 570.009765625 -104.967773438 498.419921875 -54.693359375 495 c 1
 -58.1923828125 455 l 1
 -143.754882812 456.891601562 -218.78515625 534.340820312 -209.569335938 645 c 0
EndSplineSet
Substitution2: "Single Substitution lookup 24 subtable" tml_MatraIi.stylalt1
Substitution2: "Single Substitution lookup 17 subtable" tml_MatraIi.alt1
Colour: ffffff
EndChar

StartChar: tml_MatraU
Encoding: 40 3009 40
GlifName: tml_M_atraU_
Width: 538
Flags: HMW
AnchorPoint: "Anchor-2" -214.257 580 mark 0
LayerCount: 2
Fore
SplineSet
-218.630859375 530 m 1
 -214.256835938 580 l 1
 308.270507812 580 458.745117188 580 563.180664062 585 c 5
 568.481445312 577 l 5
 559.494140625 520 l 5
 546.41796875 444.4140625 505.2265625 384.897460938 420.770507812 386 c 4
 338.854492188 387.208007812 310.618164062 458.37890625 317.55078125 530.088867188 c 5
 357.369140625 530 l 5
 352.709960938 483.827148438 370.750976562 428.095703125 422.4453125 428 c 4
 464.934570312 427.931640625 481.212890625 482.490234375 485.369140625 530 c 5
 -218.630859375 530 l 1
EndSplineSet
Substitution2: "Single Substitution lookup 23 subtable" tml_MatraU.alt1
Colour: ffffff
EndChar

StartChar: tml_MatraUu
Encoding: 41 3010 41
GlifName: tml_M_atraU_u
Width: 743
Flags: HMW
AnchorPoint: "Anchor-2" -214.257 580 mark 0
LayerCount: 2
Fore
SplineSet
-218.630859375 530 m 1
 -214.256835938 580 l 1
 314.99609375 580 467.40625 580 573.180664062 585 c 5
 578.481445312 577 l 5
 569.494140625 520 l 5
 556.571289062 444.4140625 516.229492188 384.897460938 433.770507812 386 c 4
 342.635742188 387.065429688 309.823242188 449.83984375 316.063476562 513.088867188 c 4
 326.309570312 618.674804688 417.1640625 701 528.329101562 701 c 4
 673.185546875 701 767.416015625 599.1171875 755.157226562 459 c 4
 739.361328125 278.453125 625.360351562 169 476.78515625 169 c 4
 327.501953125 169 215.189453125 253.629882812 227.033203125 389 c 5
 240.720703125 389.431640625 254.900390625 386.72265625 266.158203125 379 c 5
 259.137695312 275.897460938 359.739257812 209 471.28515625 209 c 260
 584.663085938 209 677.536132812 314.735351562 690.069335938 458 c 4
 699.198242188 562.3359375 650.234375 659 520.655273438 659 c 4
 430.365234375 659 363.874023438 591.092773438 355.881835938 513 c 4
 351.803710938 474.522460938 374.063476562 428.079101562 433.4453125 428 c 4
 475.147460938 427.931640625 491.212890625 482.490234375 495.369140625 530 c 5
 -218.630859375 530 l 1
EndSplineSet
Colour: ffffff
EndChar

StartChar: tml_MatraE
Encoding: 42 3014 42
GlifName: tml_M_atraE_
Width: 1029
VWidth: 0
Flags: HMW
LayerCount: 2
Back
SplineSet
769 477 m 5
 768 -1 l 5
 829 -1 l 5
 829 519 l 5
 827.537979423 696.238157318 693.493927087 833 487 833 c 4
 243.769070397 833 52.2285012285 658.349366358 49 397 c 4
 46.5293516403 182.293406862 176.933668736 -21.2285779553 437 -21 c 4
 573.257445972 -20.880240367 673 55.3350257572 673 167 c 4
 673 251.778719443 617.239218482 312.534755628 533 311 c 4
 452.987741678 309.542255425 382.702160721 247.095267713 384 152 c 4
 384.806662813 92.8942097738 413.043785545 37.7017688934 478.1328125 0.1318359375 c 5
 496 41 l 5
 462.101059437 55.6884872002 439.636655794 111.480671994 441 153 c 260
 442.379111242 194.999497814 471.033631257 235.734890477 515 236 c 4
 556.654760749 236.251170931 585.529009468 193.615789011 584 149 c 4
 581.24508807 68.6129442004 517.56990206 41.0641084559 450 41 c 4
 262.013613581 40.8216437113 115 180.026018009 115 394 c 4
 115 628.207940925 279.454320887 770.033813441 487 764 c 4
 640.195859429 756.734269886 770.363048537 661.470131417 769 477 c 5
EndSplineSet
Fore
SplineSet
115.983398438 408.9765625 m 0
 138.219726562 663.142578125 313.436523438 896.194335938 596.5234375 896.194335938 c 0
 864.26953125 896.194335938 999.567382812 692.043945312 976.23046875 425.40234375 c 2
 938.912109375 -1 l 1
 864.912109375 -1 l 1
 868.973632812 11.568359375 879.078125 69.478515625 883.848632812 124 c 2
 906.24609375 380 l 2
 928.39453125 626.638671875 833.493164062 803.420898438 567.553710938 800.466796875 c 0
 368.139648438 798.131835938 204.796875 660.163085938 178.752929688 409.416992188 c 0
 159.422851562 225.526367188 241.44140625 45.751953125 469.69921875 38.9990234375 c 0
 551.6953125 36.4423828125 612.62109375 85.6884765625 619.642578125 155.8984375 c 0
 625.3359375 212.830078125 594.287109375 258.00390625 529.913085938 258.00390625 c 0
 461.413085938 258.00390625 419.315429688 205.219726562 410.979492188 137.821289062 c 0
 403.724609375 79.1611328125 426.505859375 32.7705078125 464.875 10 c 1
 443.782226562 -26.8681640625 l 1
 394.571289062 4.2890625 352.100585938 54.548828125 357.962890625 136.840820312 c 0
 365.29296875 239.734375 451.362304688 329.051757812 560.799804688 329.051757812 c 0
 650.23828125 329.051757812 717.348632812 266.795898438 709.36328125 175.5234375 c 0
 698.610351562 52.6220703125 592.54296875 -26.1103515625 476.697265625 -27.0595703125 c 0
 214.390625 -29.1142578125 94.1259765625 159.154296875 115.983398438 408.9765625 c 0
EndSplineSet
Colour: ffffff
EndChar

StartChar: tml_MatraEe
Encoding: 43 3015 43
GlifName: tml_M_atraE_e
Width: 823
Flags: HMW
LayerCount: 2
Back
SplineSet
77.2021484375 398.9765625 m 4
 77.2021484375 154.883344058 207.08154886 -29.1752536889 456.064453125 -27.0595703125 c 4
 571.827492131 -26.110645076 669.006835938 48.6220703125 669.006835938 171.5234375 c 4
 669.006835938 262.795898438 598.450450175 328.051757812 509.01171875 328.051757812 c 4
 399.574269569 328.051757812 325.32013924 239.73468847 326.991210938 136.840820312 c 4
 328.327700922 54.5483462541 371.196770525 4.28861348088 423.1328125 -26.8681640625 c 5
 441 10 l 5
 400.638272493 32.7704350034 373.798503889 79.1612346691 375.921875 137.821289062 c 4
 378.361572311 205.220141869 415.840905273 261.00390625 484.340820312 261.00390625 c 4
 548.714462823 261.00390625 583.715504074 212.830354369 583.002929688 155.8984375 c 4
 582.124159364 85.6881128067 525.510742188 36.556640625 443.287109375 38.9990234375 c 4
 218.592773438 45.5693359375 131.201171875 220.486328125 133.93359375 399.416992188 c 4
 137.625976562 634.677734375 258.717880696 765.233702009 462.521484375 767.466796875 c 4
 677.630166818 769.978603482 796.506835938 619.68359375 796 410 c 6
 796 117 l 6
 796.27734375 57.0361328125 792.221679688 10.8642578125 790 -1 c 5
 852 -1 l 5
 852.012695312 467.40234375 l 6
 852.842773438 689.65625 716.461642937 846.194335938 493.116210938 846.194335938 c 4
 231.796219299 846.194335938 77.2021484375 648.547893868 77.2021484375 398.9765625 c 4
EndSplineSet
Fore
SplineSet
115.6953125 408 m 0
 86.3984375 89.490234375 319.387695312 -28.458984375 531.697265625 -27.0595703125 c 0
 675.956054688 -26.11328125 768.963867188 56.6572265625 778.48828125 165.5234375 c 0
 786.831054688 260.877929688 717.387695312 329.051757812 621.799804688 329.051757812 c 0
 518.15234375 329.051757812 434.934570312 245.598632812 426.400390625 141.840820312 c 0
 419.826171875 62.05078125 454.546875 13.337890625 510.657226562 -16.8681640625 c 1
 538.75 20 l 1
 500.349609375 42.4140625 477.041992188 88.0986328125 484.6796875 145.821289062 c 0
 491.6953125 198.124023438 536.623046875 248.00390625 602.038085938 248.00390625 c 0
 656.904296875 248.00390625 688.50390625 204.4140625 683.379882812 152.8984375 c 0
 676.28125 81.8046875 610.600585938 46.71875 534.399414062 46.9990234375 c 0
 307.884765625 47.8330078125 166.734375 189.663085938 183.044921875 412 c 0
 201.447265625 661.717773438 410.083984375 849.192382812 618.665039062 842 c 0
 702.41796875 839.1796875 772.250976562 801.283203125 766.779296875 729 c 0
 764.056640625 692.159179688 735.405273438 654.142578125 665.217773438 654 c 0
 605.216796875 653.846679688 574.116210938 703.032226562 576.616210938 750 c 256
 579.1796875 802.806640625 617.358398438 845.971679688 653.328125 861 c 1
 613.033203125 882.323242188 l 1
 570.874023438 865.856445312 519.46875 803.328125 512.12890625 733 c 0
 502.56640625 640.166015625 568.6640625 575.037109375 668.393554688 576 c 0
 785.385742188 576.994140625 846.461914062 656.559570312 853.12890625 733 c 0
 861.666992188 830.868164062 767.646484375 909 631.52734375 909 c 0
 402.19140625 909 146.7421875 745.728515625 115.6953125 408 c 0
EndSplineSet
Colour: ffffff
EndChar

StartChar: tml_MatraAi
Encoding: 44 3016 44
GlifName: tml_M_atraA_i
Width: 1350
VWidth: 0
Flags: HMW
LayerCount: 2
Fore
SplineSet
100.91015625 239 m 0
 87.63671875 98.0576171875 168.538085938 -26.23828125 331.725585938 -26 c 0
 462.123046875 -25.8095703125 522.995117188 74.751953125 530.036132812 149 c 0
 538.568359375 238.987304688 478.864257812 296.413085938 395.984375 297 c 0
 295.23046875 297.713867188 216.100585938 219.059570312 205.576171875 118 c 0
 198.694335938 51.91796875 220.684570312 31.0234375 238.787109375 9 c 1
 257.1875 25 l 1
 244.379882812 50.80078125 240.286132812 71.490234375 246.499023438 120 c 0
 255.365234375 187.979492188 312.216796875 223.147460938 360.509765625 223 c 0
 414.626953125 222.834960938 451.46484375 184.50390625 446.635742188 133 c 0
 441.708984375 80.4541015625 401.603515625 32.0185546875 325.799804688 32 c 0
 222.689453125 31.974609375 145.169921875 116.65625 155.34765625 244 c 0
 169.126953125 416.41015625 335.481445312 531.244140625 514.1953125 528 c 0
 709.890625 524.447265625 885.774414062 384.9765625 867.2734375 186 c 0
 859.44140625 101.765625 811.78125 42.0302734375 753.67578125 42 c 0
 692.299804688 41.9677734375 661.139648438 117.47265625 670.073242188 218 c 0
 688.012695312 419.869140625 841.639648438 522.202148438 967.677734375 522.099609375 c 0
 1120.66699219 521.975585938 1209.21386719 413.287109375 1197.2734375 266 c 0
 1189.45703125 169.590820312 1144.02929688 74.78515625 1093.35058594 4 c 1
 1099.51367188 -7.4189453125 1118.49121094 -20.38671875 1135.81347656 -25 c 1
 1184.15234375 14.8486328125 1282.27636719 141.978515625 1293.97265625 274 c 0
 1313.99511719 499.984375 1151.83789062 584.138671875 993.049804688 583.5 c 0
 797.774414062 582.713867188 630.553710938 425.555664062 610.936523438 205 c 0
 600.454101562 87.1533203125 637.756835938 -19.1904296875 751.338867188 -19 c 0
 867.827148438 -18.8046875 945.181640625 83.927734375 956.0234375 206 c 0
 976.529296875 436.872070312 758.422851562 587.73046875 522.181640625 585 c 0
 310.916992188 582.55859375 120.998046875 452.301757812 100.91015625 239 c 0
EndSplineSet
Substitution2: "Single Substitution lookup 24 subtable" tml_MatraAi.alt
Colour: ffffff
EndChar

StartChar: tml_MatraAu
Encoding: 47 3020 47
GlifName: tml_M_atraA_u
Width: 1279
VWidth: 0
Flags: HMW
LayerCount: 2
Fore
SplineSet
648 0 m 1
 648 0 659.969726562 138.272460938 678.095703125 344 c 0
 679.40625 358.879882812 720.307617188 334.216796875 721.62109375 350 c 0
 727.529296875 420.999023438 735.104492188 497.514648438 737.380859375 553 c 1
 875.219726562 553.265625 1124.90625 553.47265625 1279.25585938 563 c 1
 1283.78222656 552.666992188 1288.62792969 528.333007812 1288.70703125 511 c 1
 1248.01660156 511.266601562 1144.89941406 510.958984375 1101.70703125 511 c 1
 1057 0 l 1
 1026.09667969 -0.12890625 994.150390625 -0.1416015625 968 0 c 1
 1002.37109375 370 l 2
 1008.64941406 433.681640625 1012.60546875 466.51171875 1015.70703125 511 c 1
 915.969726562 511.69140625 834.126953125 511.171875 781.314453125 511 c 1
 777.111328125 458.611328125 771.869140625 409.990234375 767.358398438 347 c 1
 737 0 l 1
 648 0 l 1
100.822265625 238 m 0
 118.860351562 439.301757812 272.546875 576 457.393554688 576 c 0
 643.393554688 576 745.81640625 458.885742188 761.920898438 342 c 1
 680.896484375 296 l 1
 683.000976562 416.264648438 585.1640625 519.577148438 439.58203125 521 c 0
 293.708984375 522.42578125 162.407226562 407.411132812 149.084960938 241 c 0
 138.329101562 106.65625 228.426757812 28.9775390625 331.537109375 29 c 0
 416.341796875 29.0185546875 461.971679688 83.4541015625 466.8984375 136 c 0
 471.727539062 187.50390625 432.977539062 226.834960938 378.860351562 227 c 0
 330.567382812 227.147460938 268.365234375 187.979492188 259.499023438 120 c 0
 253.286132812 71.490234375 257.379882812 50.80078125 270.1875 25 c 1
 251.787109375 9 l 1
 233.684570312 31.0234375 213.694335938 51.91796875 220.576171875 118 c 0
 231.100585938 219.059570312 305.227539062 297.688476562 405.984375 297 c 0
 491.864257812 296.413085938 550.481445312 237.987304688 541.948242188 148 c 0
 534.907226562 73.751953125 474.947265625 -27.810546875 344.55078125 -28 c 0
 180.36328125 -28.23828125 88.1923828125 97.0546875 100.822265625 238 c 0
EndSplineSet
Colour: ffffff
EndChar

StartChar: tml_Virama
Encoding: 48 3021 48
GlifName: tml_V_irama
Width: 0
VWidth: 0
GlyphClass: 4
Flags: HMW
AnchorPoint: "Anchor-0" 62.3428 713.235 mark 0
LayerCount: 2
Fore
SplineSet
-6.486328125 715.1953125 m 4
 -4.453125 752.036132812 32.734375 780.979492188 69.953125 782.39453125 c 4
 103.624023438 783.67578125 131.223632812 754.127929688 129.268554688 721.075195312 c 4
 127.0625 683.797851562 93.4521484375 652.73046875 55.96875 651.35546875 c 4
 19.3369140625 650.010742188 -8.4384765625 679.80859375 -6.486328125 715.1953125 c 4
EndSplineSet
Colour: ffffff
EndChar

StartChar: tml_Om
Encoding: 49 3024 49
GlifName: tml_O_m
Width: 898
VWidth: 0
Flags: HMW
AnchorPoint: "Anchor-0" 514.704 751 basechar 0
LayerCount: 2
Back
SplineSet
348 -6 m 2
 348 -9.33333333333 347.333333333 -12.5 346 -15.5 c 128
 344.666666667 -18.5 343 -20.8333333333 341 -22.5 c 128
 339 -24.1666666667 336.5 -25.6666666667 333.5 -27 c 128
 330.5 -28.3333333333 327.333333333 -29 324 -29 c 128
 320.666666667 -29 317.833333333 -28.3333333333 315.5 -27 c 128
 313.166666667 -25.6666666667 310.833333333 -24 308.5 -22 c 128
 306.166666667 -20 304.333333333 -17.3333333333 303 -14 c 128
 301.666666667 -10.6666666667 301 -7.33333333333 301 -4 c 128
 301 -0.666666666667 301.666666667 2.5 303 5.5 c 128
 304.333333333 8.5 306.166666667 11.3333333333 308.5 14 c 128
 310.833333333 16.6666666667 313.333333333 18.5 316 19.5 c 128
 318.666666667 20.5 321.333333333 21 324 21 c 0
 327.333333333 21 330.5 20.5 333.5 19.5 c 128
 336.5 18.5 339 16.8333333333 341 14.5 c 128
 343 12.1666666667 344.666666667 9.33333333333 346 6 c 128
 347.333333333 2.66666666667 348 -0.666666666667 348 -4 c 2
 348 -6 l 2
360 -160 m 1
 375.333333333 -136.666666667 376 -116 362 -98 c 0
 347.333333333 -82 333 -81.1666666667 319 -95.5 c 128
 305 -109.833333333 303.666666667 -131 315 -159 c 1
 360 -160 l 1
261 -283 m 0
 349.666666667 -287.666666667 414.333333333 -245.666666667 455 -157 c 1
 474.333333333 -102.333333333 503 -66 541 -48 c 1
 505 -34.6666666667 476 -13.6666666667 454 15 c 128
 432 43.6666666667 421 74.6666666667 421 108 c 0
 421 154 439.833333333 193.5 477.5 226.5 c 128
 515.166666667 259.5 560.333333333 276 613 276 c 1
 598.333333333 258 586.666666667 238.666666667 578 218 c 128
 569.333333333 197.333333333 565 176.666666667 565 156 c 256
 565 136 573.166666667 119 589.5 105 c 128
 605.833333333 91 625.666666667 84 649 84 c 256
 672.333333333 84 692.166666667 93.5 708.5 112.5 c 128
 724.833333333 131.5 733 154 733 180 c 0
 733 256 701.5 321 638.5 375 c 128
 575.5 429 499 456 409 456 c 0
 322.333333333 456 248.833333333 431.5 188.5 382.5 c 128
 128.166666667 333.5 98 274 98 204 c 0
 98 190.666666667 99 178 101 166 c 128
 103 154 105.666666667 142.666666667 109 132 c 1
 109 170.666666667 120.833333333 203.5 144.5 230.5 c 128
 168.166666667 257.5 196.333333333 271 229 271 c 0
 261.666666667 271 290 258.333333333 314 233 c 128
 338 207.666666667 350 178.333333333 350 145 c 0
 350 107.666666667 338 76.1666666667 314 50.5 c 128
 290 24.8333333333 261.666666667 12 229 12 c 0
 179.666666667 12 137.333333333 30.8333333333 102 68.5 c 128
 66.6666666667 106.166666667 49 151.333333333 49 204 c 0
 49 287.333333333 84.3333333333 358.166666667 155 416.5 c 128
 225.666666667 474.833333333 310.333333333 504 409 504 c 0
 515 504 605.666666667 472.333333333 681 409 c 128
 756.333333333 345.666666667 794 269.333333333 794 180 c 0
 794 140 780 106 752 78 c 128
 724 50 689.666666667 36 649 36 c 0
 611.666666667 36 580.5 47.6666666667 555.5 71 c 128
 530.5 94.3333333333 518 122.666666667 518 156 c 0
 518 162.666666667 520.5 172.166666667 525.5 184.5 c 128
 530.5 196.833333333 538 211.666666667 548 229 c 1
 524 215 505 197.166666667 491 175.5 c 128
 477 153.833333333 470 131.333333333 470 108 c 0
 470 70.6666666667 486.166666667 39.3333333333 518.5 14 c 128
 550.833333333 -11.3333333333 590.666666667 -24 638 -24 c 2
 770 -24 l 1
 770 -72 l 1
 593 -72 l 2
 579.666666667 -72 562 -81.6666666667 540 -101 c 0
 526 -113.666666667 513.666666667 -133 503 -159 c 0
 460.333333333 -271.666666667 380.333333333 -325.666666667 263 -321 c 0
 111.666666667 -315 34.3333333333 -258.666666667 31 -152 c 0
 29.6666666667 -120.666666667 37.3333333333 -92.3333333333 54 -67 c 0
 68.6666666667 -43.6666666667 90.6666666667 -32 120 -32 c 0
 137.333333333 -32 152 -38.6666666667 164 -52 c 0
 178.666666667 -70.6666666667 186.333333333 -107 187 -161 c 1
 218.333333333 -161.666666667 247.666666667 -161.666666667 275 -161 c 1
 267.666666667 -119.666666667 274.666666667 -89 296 -69 c 0
 318.666666667 -48.3333333333 345.333333333 -46.6666666667 376 -64 c 0
 398.666666667 -77.3333333333 408 -102.666666667 404 -140 c 0
 401.333333333 -168.666666667 395.333333333 -186.666666667 386 -194 c 1
 145 -194 l 1
 155 -139.333333333 150.666666667 -103 132 -85 c 0
 116 -68.3333333333 100.666666667 -68.6666666667 86 -86 c 0
 72.6666666667 -100.666666667 67.6666666667 -128.666666667 71 -170 c 0
 76.3333333333 -238.666666667 139.666666667 -276.333333333 261 -283 c 0
169 145 m 0
 169 121.666666667 174.833333333 101.666666667 186.5 85 c 128
 198.166666667 68.3333333333 212.333333333 60 229 60 c 256
 245.666666667 60 259.833333333 68.1666666667 271.5 84.5 c 128
 283.166666667 100.833333333 289 121 289 145 c 0
 289 165 283.333333333 181.833333333 272 195.5 c 128
 260.666666667 209.166666667 246.333333333 216 229 216 c 256
 212.333333333 216 198.166666667 209.166666667 186.5 195.5 c 128
 174.833333333 181.833333333 169 165 169 145 c 0
EndSplineSet
Fore
SplineSet
283.631835938 80.244140625 m 0
 284.690429688 92.345703125 294.813476562 101.655273438 306.915039062 101.655273438 c 0
 319.017578125 101.655273438 327.512695312 92.345703125 326.454101562 80.244140625 c 0
 325.395507812 68.142578125 315.271484375 58.8330078125 303.168945312 58.8330078125 c 0
 291.067382812 58.8330078125 282.573242188 68.142578125 283.631835938 80.244140625 c 0
87.7509765625 -60 m 0
 92.234375 -6.8037109375 126.533203125 32.5869140625 170.799804688 32 c 0
 240.506835938 31.076171875 237.650390625 -57.2421875 237.404296875 -95.8603515625 c 1
 334.05859375 -94.009765625 l 2
 366.758789062 -93.36328125 380.092773438 -74.8447265625 382.897460938 -48.763671875 c 0
 385.716796875 -22.748046875 370.188476562 2.9970703125 347.893554688 3.208984375 c 0
 339.065429688 3.294921875 330.004882812 -4.2900390625 328.486328125 -19.505859375 c 2
 319.927734375 -104.6328125 l 1
 281.111328125 -114.6328125 l 1
 290.376953125 -25.654296875 l 2
 294.569335938 14.9521484375 318.3828125 30.3681640625 344.895507812 30.67578125 c 0
 389.661132812 31.18359375 416.716796875 -6.6083984375 412.735351562 -48.763671875 c 0
 408.159179688 -97.4248046875 381.638671875 -127.587890625 322.575195312 -127.587890625 c 2
 198.096679688 -127.587890625 l 1
 201.909179688 -102.232421875 213.295898438 -3.1494140625 163.650390625 -4 c 0
 134.39453125 -4.5078125 125.81640625 -36.3935546875 124.36328125 -53 c 0
 118.614257812 -118.708007812 157.009765625 -186.142578125 295.814453125 -185 c 0
 351.21484375 -184.537109375 387.599609375 -163.653320312 421.326171875 -122 c 0
 465.05078125 -68 507.219726562 -5.5400390625 602.737304688 -3 c 1
 631.737304688 -3 l 1
 704.450195312 -52 l 1
 671.392578125 -52.267578125 638.250976562 -51.67578125 614.450195312 -52 c 1
 503.96875 -59.4150390625 481.103515625 -230.182617188 291.52734375 -234 c 0
 161.703125 -236.614257812 78.6552734375 -168.114257812 87.7509765625 -60 c 0
106.68359375 305 m 0
 123.780273438 480.4921875 269.99609375 633.306640625 495.555664062 635 c 0
 670.279296875 636.311523438 858.88671875 530.696289062 845.383789062 313 c 0
 836.985351562 177.591796875 761.2109375 85 649.436523438 85 c 0
 575.870117188 85 532.723632812 138.876953125 538.204101562 204 c 0
 542.173828125 251.172851562 558.223632812 273.55078125 570.809570312 295 c 0
 573.18359375 299.046875 570.114257812 273.060546875 573.234375 277 c 1
 528.504882812 259.651367188 493.78125 199.063476562 490.685546875 145 c 0
 486.005859375 63.24609375 588.833007812 5 671.4375 5 c 0
 696.4375 5 736.612304688 7 762.787109375 9 c 1
 762.579101562 -4.8125 758.762695312 -37 754.450195312 -52 c 1
 656.450195312 -52 l 2
 511.450195312 -52 430.328125 50.9033203125 437.248046875 140 c 0
 445.78515625 249.905273438 530.068359375 319.861328125 590.87109375 330 c 1
 614.809570312 295 l 1
 603.583007812 274.734375 588.1484375 243.595703125 586.021484375 213 c 0
 583.612304688 178.3515625 608.5390625 141 654.3359375 141 c 0
 711.591796875 141 752.661132812 228.016601562 760.471679688 314 c 0
 773.721679688 459.868164062 662.952148438 578.197265625 486.65625 579 c 0
 311.467773438 579.796875 173.5234375 473.653320312 155.333984375 301 c 0
 148.485351562 236.651367188 189.893554688 180.970703125 251.834960938 181 c 0
 306.0703125 181.025390625 327.53125 215.893554688 330.697265625 248 c 0
 334.546875 287.350585938 306.338867188 325.196289062 257.505859375 325.82421875 c 0
 212.8515625 326.354492188 168.453125 294.009765625 145.78515625 249 c 1
 131.021484375 286 l 1
 162.826171875 345.479492188 231.251953125 379.991210938 280.241210938 379.948242188 c 0
 355.458007812 379.881835938 404.352539062 324.076171875 398.747070312 260 c 0
 392.411132812 187.581054688 336.423828125 128.545898438 253.198242188 128 c 0
 161.608398438 127.41796875 95.8974609375 194.811523438 106.68359375 305 c 0
EndSplineSet
Colour: ffffff
EndChar

StartChar: tml_AuLengthmark
Encoding: 50 3031 50
GlifName: tml_A_uL_engthmark
Width: 0
Flags: HMW
LayerCount: 2
Back
SplineSet
199 145 m 1
 199 118.333333333 206 95.5 220 76.5 c 128
 234 57.5 251 48 271 48 c 256
 291 48 308.166666667 57.3333333333 322.5 76 c 128
 336.833333333 94.6666666667 344 117.666666667 344 145 c 0
 344 168.333333333 337 188.166666667 323 204.5 c 128
 309 220.833333333 291.666666667 229 271 229 c 256
 251 229 234 220.666666667 220 204 c 128
 206 187.333333333 199 167.666666667 199 145 c 1
 199 145 l 1
476 480 m 1
 896 480 l 1
 896 433 l 1
 764 433 l 1
 764 0 l 1
 703 0 l 1
 703 433 l 1
 523 433 l 1
 523 0 l 1
 464 0 l 1
 464 240 l 2
 464 296 446.166666667 344 410.5 384 c 128
 374.833333333 424 332.333333333 444 283 444 c 256
 233.666666667 444 191.5 423 156.5 381 c 128
 121.5 339 104 288.333333333 104 229 c 0
 104 198.333333333 110.166666667 169.333333333 122.5 142 c 128
 134.833333333 114.666666667 152.333333333 91.3333333333 175 72 c 1
 167 86 161 99.1666666667 157 111.5 c 128
 153 123.833333333 151 135 151 145 c 0
 151 182.333333333 162.833333333 213.5 186.5 238.5 c 128
 210.166666667 263.5 238.333333333 276 271 276 c 0
 303.666666667 276 332 263.166666667 356 237.5 c 128
 380 211.833333333 392 181 392 145 c 0
 392 102.333333333 378 65.5 350 34.5 c 128
 322 3.5 287.666666667 -12 247 -12 c 0
 194.333333333 -12 149.333333333 11.5 112 58.5 c 128
 74.6666666667 105.5 56 162.333333333 56 229 c 0
 56 301.666666667 78 363.666666667 122 415 c 128
 166 466.333333333 219.666666667 492 283 492 c 0
 325 492 363.333333333 483.333333333 398 466 c 128
 432.666666667 448.666666667 458.666666667 425.333333333 476 396 c 1
 476 480 l 1
 476 480 l 1
EndSplineSet
Colour: ff0000
EndChar

StartChar: tml_Zero
Encoding: 51 3046 51
GlifName: tml_Z_ero
Width: 0
Flags: HMW
LayerCount: 2
Back
SplineSet
59 315 m 1
 59 397.666666667 79.5 469.833333333 120.5 531.5 c 128
 161.5 593.166666667 216.666666667 624 286 624 c 256
 355.333333333 624 410.5 593.166666667 451.5 531.5 c 128
 492.5 469.833333333 513 397.666666667 513 315 c 0
 513 230.333333333 492.833333333 156.666666667 452.5 94 c 128
 412.166666667 31.3333333333 356.666666667 0 286 0 c 256
 216 0 160.666666667 31.3333333333 120 94 c 128
 79.3333333333 156.666666667 59 230.333333333 59 315 c 1
 59 315 l 1
122 315 m 1
 122 247 135.833333333 188 163.5 138 c 128
 191.166666667 88 232 63 286 63 c 0
 339.333333333 63 380 88.1666666667 408 138.5 c 128
 436 188.833333333 450 247.666666667 450 315 c 0
 450 381 435.833333333 438.5 407.5 487.5 c 128
 379.166666667 536.5 338.666666667 561 286 561 c 256
 233.333333333 561 192.833333333 536.5 164.5 487.5 c 128
 136.166666667 438.5 122 381 122 315 c 1
 122 315 l 1
EndSplineSet
Colour: ff0000
EndChar

StartChar: tml_One
Encoding: 52 3047 52
GlifName: tml_O_ne
Width: 0
Flags: HMW
LayerCount: 2
Back
SplineSet
240 264 m 1
 360 264 l 1
 360 433 l 1
 240 433 l 1
 240 264 l 1
 240 264 l 1
120 156 m 1
 120 123.333333333 132.833333333 95.1666666667 158.5 71.5 c 128
 184.166666667 47.8333333333 215.333333333 36 252 36 c 0
 281.333333333 36 306.666666667 45.5 328 64.5 c 128
 349.333333333 83.5 360 106 360 132 c 2
 360 216 l 1
 180 216 l 2
 163.333333333 216 149.166666667 210.333333333 137.5 199 c 128
 125.833333333 187.666666667 120 173.333333333 120 156 c 1
 120 156 l 1
180 480 m 1
 552 480 l 1
 552 433 l 1
 420 433 l 1
 420 264 l 1
 492 264 l 2
 529.333333333 264 560.666666667 251.333333333 586 226 c 128
 611.333333333 200.666666667 624 169.333333333 624 132 c 0
 624 92 612.333333333 58 589 30 c 128
 565.666666667 2 537.333333333 -12 504 -12 c 0
 494.666666667 -12 485.166666667 -11 475.5 -9 c 128
 465.833333333 -7 455.333333333 -4 444 0 c 1
 456 48 l 1
 463.333333333 44 471 41 479 39 c 128
 487 37 495.333333333 36 504 36 c 0
 520.666666667 36 534.833333333 45.5 546.5 64.5 c 128
 558.166666667 83.5 564 106 564 132 c 0
 564 155.333333333 557 175.166666667 543 191.5 c 128
 529 207.833333333 512 216 492 216 c 2
 420 216 l 1
 420 132 l 2
 420 92 403.5 58 370.5 30 c 128
 337.5 2 298 -12 252 -12 c 0
 199.333333333 -12 154.166666667 4.5 116.5 37.5 c 128
 78.8333333333 70.5 60 110 60 156 c 0
 60 185.333333333 71.8333333333 210.666666667 95.5 232 c 128
 119.166666667 253.333333333 147.333333333 264 180 264 c 1
 180 480 l 1
 180 480 l 1
EndSplineSet
Colour: ff0000
EndChar

StartChar: tml_Two
Encoding: 53 3048 53
GlifName: tml_T_wo
Width: 0
Flags: HMW
LayerCount: 2
Back
SplineSet
108 336 m 1
 108 319.333333333 113.833333333 305.166666667 125.5 293.5 c 128
 137.166666667 281.833333333 151.333333333 276 168 276 c 256
 184.666666667 276 199 281.833333333 211 293.5 c 128
 223 305.166666667 229 319.333333333 229 336 c 0
 229 356 223 373 211 387 c 128
 199 401 184.666666667 408 168 408 c 256
 151.333333333 408 137.166666667 401 125.5 387 c 128
 113.833333333 373 108 356 108 336 c 1
 108 336 l 1
60 348 m 1
 60 388 80 422 120 450 c 128
 160 478 208 492 264 492 c 0
 330.666666667 492 387.333333333 473.166666667 434 435.5 c 128
 480.666666667 397.833333333 504 352.666666667 504 300 c 0
 504 250.666666667 484 208.333333333 444 173 c 128
 404 137.666666667 356 120 300 120 c 2
 168 120 l 2
 154 120 142.5 116.5 133.5 109.5 c 128
 124.5 102.5 120 94 120 84 c 256
 120 74 124.5 65.5 133.5 58.5 c 128
 142.5 51.5 154 48 168 48 c 2
 648 48 l 1
 648 0 l 1
 168 0 l 2
 138.666666667 0 113.333333333 8.16666666667 92 24.5 c 128
 70.6666666667 40.8333333333 60 60.6666666667 60 84 c 256
 60 107.333333333 70.6666666667 127.166666667 92 143.5 c 128
 113.333333333 159.833333333 138.666666667 168 168 168 c 2
 300 168 l 2
 340 168 374 180.833333333 402 206.5 c 128
 430 232.166666667 444 263.333333333 444 300 c 0
 444 340 426.5 374 391.5 402 c 128
 356.5 430 314 444 264 444 c 2
 192 444 l 1
 217.333333333 434.666666667 237.666666667 420.166666667 253 400.5 c 128
 268.333333333 380.833333333 276 359.333333333 276 336 c 0
 276 306.666666667 265.5 281.5 244.5 260.5 c 128
 223.5 239.5 198 229 168 229 c 0
 138.666666667 229 113.333333333 240.666666667 92 264 c 128
 70.6666666667 287.333333333 60 315.333333333 60 348 c 1
 60 348 l 1
EndSplineSet
Colour: ff0000
EndChar

StartChar: tml_Three
Encoding: 54 3049 54
GlifName: tml_T_hree
Width: 0
Flags: HMW
LayerCount: 2
Back
SplineSet
60 0 m 1
 60 480 l 1
 492 480 l 1
 492 433 l 1
 324 433 l 1
 324 258 l 1
 335.333333333 269.333333333 348.5 278.166666667 363.5 284.5 c 128
 378.5 290.833333333 393.333333333 294 408 294 c 0
 450.666666667 294 487.333333333 280.666666667 518 254 c 128
 548.666666667 227.333333333 564 194.666666667 564 156 c 0
 564 134.666666667 559.833333333 114.5 551.5 95.5 c 128
 543.166666667 76.5 531.666666667 60.6666666667 517 48 c 1
 702 48 l 1
 702 0 l 1
 264 0 l 1
 264 48 l 1
 396 48 l 2
 425.333333333 48 450.666666667 58.5 472 79.5 c 128
 493.333333333 100.5 504 126 504 156 c 0
 504 179.333333333 494.666666667 199.166666667 476 215.5 c 128
 457.333333333 231.833333333 434.666666667 240 408 240 c 0
 394 240 379.833333333 235.833333333 365.5 227.5 c 128
 351.166666667 219.166666667 337.333333333 207.333333333 324 192 c 1
 324 96 l 1
 264 96 l 1
 264 433 l 1
 120 433 l 1
 120 0 l 1
 60 0 l 1
 60 0 l 1
EndSplineSet
Colour: ff0000
EndChar

StartChar: tml_Four
Encoding: 55 3050 55
GlifName: tml_F_our
Width: 0
Flags: HMW
LayerCount: 2
Back
SplineSet
240 264 m 1
 360 264 l 1
 360 433 l 1
 240 433 l 1
 240 264 l 1
 240 264 l 1
120 156 m 1
 120 123.333333333 132.833333333 95.1666666667 158.5 71.5 c 128
 184.166666667 47.8333333333 215.333333333 36 252 36 c 0
 281.333333333 36 306.666666667 45.5 328 64.5 c 128
 349.333333333 83.5 360 106 360 132 c 2
 360 216 l 1
 180 216 l 2
 163.333333333 216 149.166666667 210.333333333 137.5 199 c 128
 125.833333333 187.666666667 120 173.333333333 120 156 c 1
 120 156 l 1
180 480 m 1
 564 480 l 1
 564 433 l 1
 420 433 l 1
 420 264 l 1
 528 264 l 1
 528 324 l 1
 588 324 l 1
 588 216 l 1
 420 216 l 1
 420 132 l 2
 420 92 403.5 58 370.5 30 c 128
 337.5 2 298 -12 252 -12 c 0
 199.333333333 -12 154.166666667 4.5 116.5 37.5 c 128
 78.8333333333 70.5 60 110 60 156 c 0
 60 185.333333333 71.8333333333 210.666666667 95.5 232 c 128
 119.166666667 253.333333333 147.333333333 264 180 264 c 1
 180 480 l 1
 180 480 l 1
EndSplineSet
Colour: ff0000
EndChar

StartChar: tml_Five
Encoding: 56 3051 56
GlifName: tml_F_ive
Width: 0
Flags: HMW
LayerCount: 2
Back
SplineSet
433 -216 m 1
 523 -216 599.333333333 -183.333333333 662 -118 c 128
 724.666666667 -52.6666666667 756 26.6666666667 756 120 c 0
 756 157.333333333 744.833333333 188.666666667 722.5 214 c 128
 700.166666667 239.333333333 673.666666667 252 643 252 c 0
 631 252 618 247.833333333 604 239.5 c 128
 590 231.166666667 576.666666667 219.333333333 564 204 c 1
 564 0 l 1
 504 0 l 1
 504 433 l 1
 360 433 l 1
 360 0 l 1
 300 0 l 1
 300 480 l 1
 660 480 l 1
 660 433 l 1
 564 433 l 1
 564 264 l 1
 570.666666667 275.333333333 581.5 284.166666667 596.5 290.5 c 128
 611.5 296.833333333 628.666666667 300 648 300 c 0
 694 300 733.5 282.333333333 766.5 247 c 128
 799.5 211.666666667 816 169.333333333 816 120 c 0
 816 14 778.666666667 -76.5 704 -151.5 c 128
 629.333333333 -226.5 539 -264 433 -264 c 0
 331 -264 243.333333333 -217.666666667 170 -125 c 128
 96.6666666667 -32.3333333333 60 79.3333333333 60 210 c 0
 60 350.666666667 99.8333333333 471 179.5 571 c 128
 259.166666667 671 355.333333333 721 468 721 c 0
 561.333333333 721 640.833333333 690.5 706.5 629.5 c 128
 772.166666667 568.5 805 494.666666667 805 408 c 1
 744 408 l 1
 744 480.666666667 717 542.833333333 663 594.5 c 128
 609 646.166666667 544 672 468 672 c 0
 370.666666667 672 287.333333333 626.833333333 218 536.5 c 128
 148.666666667 446.166666667 114 337.333333333 114 210 c 0
 114 92 145 -8.5 207 -91.5 c 128
 269 -174.5 344.333333333 -216 433 -216 c 1
 433 -216 l 1
EndSplineSet
Colour: ff0000
EndChar

StartChar: tml_Six
Encoding: 57 3052 57
GlifName: tml_S_ix
Width: 0
Flags: HMW
LayerCount: 2
Back
SplineSet
240 433 m 1
 240 264 l 1
 360 264 l 1
 360 433 l 1
 240 433 l 1
 240 433 l 1
120 156 m 1
 120 123.333333333 132.833333333 95.1666666667 158.5 71.5 c 128
 184.166666667 47.8333333333 215.333333333 36 252 36 c 0
 281.333333333 36 306.666666667 45.5 328 64.5 c 128
 349.333333333 83.5 360 106 360 132 c 2
 360 216 l 1
 180 216 l 2
 163.333333333 216 149.166666667 210.333333333 137.5 199 c 128
 125.833333333 187.666666667 120 173.333333333 120 156 c 1
 120 156 l 1
60 156 m 1
 60 185.333333333 71.8333333333 210.666666667 95.5 232 c 128
 119.166666667 253.333333333 147.333333333 264 180 264 c 1
 180 480 l 1
 588 480 l 1
 588 433 l 1
 420 433 l 1
 420 264 l 1
 750 264 l 1
 750 216 l 1
 685 216 l 1
 685 0 l 1
 624 0 l 1
 624 216 l 1
 552 216 l 1
 552 0 l 1
 492 0 l 1
 492 216 l 1
 420 216 l 1
 420 132 l 2
 420 92 403.5 58 370.5 30 c 128
 337.5 2 298 -12 252 -12 c 0
 199.333333333 -12 154.166666667 4.5 116.5 37.5 c 128
 78.8333333333 70.5 60 110 60 156 c 1
 60 156 l 1
EndSplineSet
Colour: ff0000
EndChar

StartChar: tml_Seven
Encoding: 58 3053 58
GlifName: tml_S_even
Width: 0
Flags: HMW
LayerCount: 2
Back
SplineSet
216 132 m 1
 216 105.333333333 223 82.6666666667 237 64 c 128
 251 45.3333333333 268 36 288 36 c 256
 308 36 325 45.5 339 64.5 c 128
 353 83.5 360 106 360 132 c 0
 360 155.333333333 353 175.166666667 339 191.5 c 128
 325 207.833333333 308 216 288 216 c 256
 268 216 251 207.833333333 237 191.5 c 128
 223 175.166666667 216 155.333333333 216 132 c 1
 216 132 l 1
552 433 m 1
 312 433 l 2
 256 433 208 411.833333333 168 369.5 c 128
 128 327.166666667 108 276 108 216 c 0
 108 180.666666667 116.5 148 133.5 118 c 128
 150.5 88 174 64.6666666667 204 48 c 1
 192 62 183 76 177 90 c 128
 171 104 168 118 168 132 c 0
 168 169.333333333 179.833333333 200.666666667 203.5 226 c 128
 227.166666667 251.333333333 255.333333333 264 288 264 c 0
 325.333333333 264 356.666666667 251.333333333 382 226 c 128
 407.333333333 200.666666667 420 169.333333333 420 132 c 0
 420 92 404.833333333 58 374.5 30 c 128
 344.166666667 2 307.333333333 -12 264 -12 c 0
 208 -12 160 10.1666666667 120 54.5 c 128
 80 98.8333333333 60 152.666666667 60 216 c 0
 60 288.666666667 84.6666666667 350.833333333 134 402.5 c 128
 183.333333333 454.166666667 242.666666667 480 312 480 c 2
 690 480 l 1
 690 433 l 1
 612 433 l 1
 612 0 l 1
 552 0 l 1
 552 433 l 1
 552 433 l 1
EndSplineSet
Colour: ff0000
EndChar

StartChar: tml_Eight
Encoding: 59 3054 59
GlifName: tml_E_ight
Width: 0
Flags: HMW
LayerCount: 2
Back
SplineSet
876 -60 m 1
 876 132 l 1
 756 132 l 1
 732 66.6666666667 688.833333333 14.3333333333 626.5 -25 c 128
 564.166666667 -64.3333333333 493.333333333 -84 414 -84 c 0
 359.333333333 -84 308 -75.8333333333 260 -59.5 c 128
 212 -43.1666666667 169.333333333 -19.3333333333 132 12 c 0
 108.666666667 31.3333333333 90.8333333333 50.5 78.5 69.5 c 128
 66.1666666667 88.5 60 105.333333333 60 120 c 0
 60 136.666666667 67 150.833333333 81 162.5 c 128
 95 174.166666667 112 180 132 180 c 2
 330 182 l 1
 308.666666667 190 291.333333333 205.333333333 278 228 c 128
 264.666666667 250.666666667 258 276.666666667 258 306 c 0
 258 357.333333333 282 401.166666667 330 437.5 c 128
 378 473.833333333 436 492 504 492 c 0
 580 492 645 468.666666667 699 422 c 128
 753 375.333333333 780 318.666666667 780 252 c 0
 780 238.666666667 779 226.166666667 777 214.5 c 128
 775 202.833333333 772.333333333 191.333333333 769 180 c 1
 876 180 l 1
 876 480 l 1
 937 480 l 1
 937 -60 l 1
 876 -60 l 1
 876 -60 l 1
312 306 m 1
 312 271.333333333 325.5 241.666666667 352.5 217 c 128
 379.5 192.333333333 412 180 450 180 c 0
 487.333333333 180 518.666666667 191.833333333 544 215.5 c 128
 569.333333333 239.166666667 582 267.333333333 582 300 c 0
 582 337.333333333 569.333333333 368.833333333 544 394.5 c 128
 518.666666667 420.166666667 487.333333333 433 450 433 c 0
 411.333333333 433 378.666666667 420.333333333 352 395 c 128
 325.333333333 369.666666667 312 340 312 306 c 1
 312 306 l 1
696 132 m 1
 145 132 l 2
 138.333333333 132 132.5 129.5 127.5 124.5 c 128
 122.5 119.5 120 114 120 108 c 0
 120 104 122 99 126 93 c 128
 130 87 136.333333333 80 145 72 c 0
 179.666666667 37.3333333333 219.833333333 10.6666666667 265.5 -8 c 128
 311.166666667 -26.6666666667 358.666666667 -36 408 -36 c 0
 476 -36 536.5 -20.5 589.5 10.5 c 128
 642.5 41.5 678 82 696 132 c 1
 696 132 l 1
576 180 m 1
 708 180 l 1
 712 191.333333333 715.166666667 202.833333333 717.5 214.5 c 128
 719.833333333 226.166666667 721 238.666666667 721 252 c 0
 721 302 704.5 346.333333333 671.5 385 c 128
 638.5 423.666666667 596.666666667 447.333333333 546 456 c 1
 574 436 596.166666667 412.333333333 612.5 385 c 128
 628.833333333 357.666666667 637 329.333333333 637 300 c 0
 637 275.333333333 631.666666667 252.333333333 621 231 c 128
 610.333333333 209.666666667 595.333333333 192.666666667 576 180 c 1
 576 180 l 1
EndSplineSet
Colour: ff0000
EndChar

StartChar: tml_Nine
Encoding: 60 3055 60
GlifName: tml_N_ine
Width: 0
Flags: HMW
LayerCount: 2
Back
SplineSet
240 264 m 1
 360 264 l 1
 360 433 l 1
 240 433 l 1
 240 264 l 1
 240 264 l 1
120 156 m 1
 120 126.666666667 132.833333333 101.333333333 158.5 80 c 128
 184.166666667 58.6666666667 215.333333333 48 252 48 c 0
 281.333333333 48 306.666666667 56.3333333333 328 73 c 128
 349.333333333 89.6666666667 360 109.333333333 360 132 c 2
 360 216 l 1
 180 216 l 2
 163.333333333 216 149.166666667 210.333333333 137.5 199 c 128
 125.833333333 187.666666667 120 173.333333333 120 156 c 1
 120 156 l 1
540 120 m 1
 540 96.6666666667 544.5 76.8333333333 553.5 60.5 c 128
 562.5 44.1666666667 574 36 588 36 c 256
 602 36 613.666666667 44.1666666667 623 60.5 c 128
 632.333333333 76.8333333333 637 96.6666666667 637 120 c 0
 637 140.666666667 630.333333333 159.833333333 617 177.5 c 128
 603.666666667 195.166666667 586 208 564 216 c 1
 556 202 550 186.833333333 546 170.5 c 128
 542 154.166666667 540 137.333333333 540 120 c 1
 540 120 l 1
60 156 m 1
 60 185.333333333 71.8333333333 210.666666667 95.5 232 c 128
 119.166666667 253.333333333 147.333333333 264 180 264 c 1
 180 480 l 1
 534 480 l 1
 534 433 l 1
 420 433 l 1
 420 264 l 1
 540 264 l 1
 556 286 577.333333333 303.5 604 316.5 c 128
 630.666666667 329.5 659.333333333 336 690 336 c 0
 738 336 779 319.5 813 286.5 c 128
 847 253.5 864 214 864 168 c 0
 864 136.666666667 858.833333333 106.666666667 848.5 78 c 128
 838.166666667 49.3333333333 823.666666667 23.3333333333 805 0 c 1
 738 0 l 1
 759.333333333 25.3333333333 775.833333333 52.5 787.5 81.5 c 128
 799.166666667 110.5 805 139.333333333 805 168 c 0
 805 200.666666667 793.666666667 228.833333333 771 252.5 c 128
 748.333333333 276.166666667 721.333333333 288 690 288 c 0
 669.333333333 288 650.5 284.833333333 633.5 278.5 c 128
 616.5 272.166666667 603.333333333 263.333333333 594 252 c 1
 621.333333333 242 643.333333333 224.833333333 660 200.5 c 128
 676.666666667 176.166666667 685 149.333333333 685 120 c 0
 685 82.6666666667 675.5 51.3333333333 656.5 26 c 128
 637.5 0.666666666667 614.666666667 -12 588 -12 c 256
 561.333333333 -12 538.666666667 0.666666666667 520 26 c 128
 501.333333333 51.3333333333 492 82.6666666667 492 120 c 0
 492 137.333333333 494 154.166666667 498 170.5 c 128
 502 186.833333333 508.333333333 202 517 216 c 1
 420 216 l 1
 420 132 l 2
 420 92 403.5 58 370.5 30 c 128
 337.5 2 298 -12 252 -12 c 0
 199.333333333 -12 154.166666667 4.5 116.5 37.5 c 128
 78.8333333333 70.5 60 110 60 156 c 1
 60 156 l 1
EndSplineSet
Colour: ff0000
EndChar

StartChar: tml_Ten
Encoding: 61 3056 61
GlifName: tml_T_en
Width: 0
Flags: HMW
LayerCount: 2
Back
SplineSet
304 48 m 1
 288 28.6666666667 270.666666667 13.8333333333 252 3.5 c 128
 233.333333333 -6.83333333333 214.333333333 -12 195 -12 c 0
 157.666666667 -12 126.333333333 0.666666666667 101 26 c 128
 75.6666666667 51.3333333333 63 82.6666666667 63 120 c 2
 63 360 l 1
 124 360 l 1
 124 120 l 2
 124 96.6666666667 131 76.8333333333 145 60.5 c 128
 159 44.1666666667 175.666666667 36 195 36 c 0
 215 36 232.166666667 44.1666666667 246.5 60.5 c 128
 260.833333333 76.8333333333 268 96.6666666667 268 120 c 2
 268 360 l 1
 328 360 l 1
 328 120 l 1
 337.333333333 94.6666666667 350.666666667 74.3333333333 368 59 c 128
 385.333333333 43.6666666667 404 36 424 36 c 0
 453.333333333 36 478.666666667 52.5 500 85.5 c 128
 521.333333333 118.5 532 158 532 204 c 0
 532 267.333333333 513.166666667 321.333333333 475.5 366 c 128
 437.833333333 410.666666667 392.666666667 433 340 433 c 2
 184 433 l 1
 184 480 l 1
 340 480 l 2
 409.333333333 480 468.666666667 453 518 399 c 128
 567.333333333 345 592 280 592 204 c 0
 592 144 575.5 93 542.5 51 c 128
 509.5 9 470 -12 424 -12 c 0
 396 -12 371.166666667 -6.5 349.5 4.5 c 128
 327.833333333 15.5 312.666666667 30 304 48 c 1
 304 48 l 1
EndSplineSet
Colour: ff0000
EndChar

StartChar: tml_Hundred
Encoding: 62 3057 62
GlifName: tml_H_undred
Width: 0
Flags: HMW
LayerCount: 2
Back
SplineSet
326 433 m 1
 335.333333333 451 350.666666667 465.333333333 372 476 c 128
 393.333333333 486.666666667 418 492 446 492 c 2
 663 492 l 1
 663 438 l 1
 566 438 l 1
 566 0 l 1
 507 0 l 1
 507 438 l 1
 446 438 l 2
 426 438 407.166666667 430.833333333 389.5 416.5 c 128
 371.833333333 402.166666667 359 383.333333333 351 360 c 1
 351 0 l 1
 290 0 l 1
 290 360 l 2
 290 383.333333333 283 403.166666667 269 419.5 c 128
 255 435.833333333 238.333333333 444 219 444 c 0
 199 444 181.833333333 435.833333333 167.5 419.5 c 128
 153.166666667 403.166666667 146 383.333333333 146 360 c 2
 146 0 l 1
 87 0 l 1
 87 360 l 2
 87 397.333333333 99.6666666667 428.666666667 125 454 c 128
 150.333333333 479.333333333 181.666666667 492 219 492 c 0
 237 492 255.5 486.833333333 274.5 476.5 c 128
 293.5 466.166666667 310.666666667 451.666666667 326 433 c 1
 326 433 l 1
EndSplineSet
Colour: ff0000
EndChar

StartChar: tml_Thousand
Encoding: 63 3058 63
GlifName: tml_T_housand
Width: 0
Flags: HMW
LayerCount: 2
Back
SplineSet
214 433 m 1
 214 264 l 1
 334 264 l 1
 334 433 l 1
 214 433 l 1
 214 433 l 1
94 156 m 1
 94 123.333333333 106.833333333 95.1666666667 132.5 71.5 c 128
 158.166666667 47.8333333333 189.333333333 36 226 36 c 0
 255.333333333 36 280.666666667 45.5 302 64.5 c 128
 323.333333333 83.5 334 106 334 132 c 2
 334 216 l 1
 153 216 l 2
 136.333333333 216 122.333333333 210.333333333 111 199 c 128
 99.6666666667 187.666666667 94 173.333333333 94 156 c 1
 94 156 l 1
33 156 m 1
 33 185.333333333 44.8333333333 210.666666667 68.5 232 c 128
 92.1666666667 253.333333333 120.333333333 264 153 264 c 1
 153 480 l 1
 562 480 l 1
 562 433 l 1
 394 433 l 1
 394 264 l 1
 634 264 l 1
 634 216 l 1
 502 216 l 1
 502 132 l 1
 512 143.333333333 524.333333333 152.166666667 539 158.5 c 128
 553.666666667 164.833333333 569.333333333 168 586 168 c 0
 623.333333333 168 654.666666667 152.833333333 680 122.5 c 128
 705.333333333 92.1666666667 718 55.3333333333 718 12 c 0
 718 -34 695.833333333 -73.5 651.5 -106.5 c 128
 607.166666667 -139.5 553.333333333 -156 490 -156 c 2
 153 -156 l 2
 126.333333333 -156 103.833333333 -167.833333333 85.5 -191.5 c 128
 67.1666666667 -215.166666667 58 -243.333333333 58 -276 c 1
 10 -276 l 1
 10 -230 24 -190.5 52 -157.5 c 128
 80 -124.5 113.666666667 -108 153 -108 c 2
 490 -108 l 2
 536 -108 575.5 -96.1666666667 608.5 -72.5 c 128
 641.5 -48.8333333333 658 -20.6666666667 658 12 c 0
 658 41.3333333333 651 66.6666666667 637 88 c 128
 623 109.333333333 606 120 586 120 c 0
 566.666666667 120 549.166666667 113.833333333 533.5 101.5 c 128
 517.833333333 89.1666666667 507.333333333 73.3333333333 502 54 c 1
 502 0 l 1
 441 0 l 1
 441 216 l 1
 394 216 l 1
 394 132 l 2
 394 92 377.5 58 344.5 30 c 128
 311.5 2 272 -12 226 -12 c 0
 173.333333333 -12 128 4.5 90 37.5 c 128
 52 70.5 33 110 33 156 c 1
 33 156 l 1
EndSplineSet
Colour: ff0000
EndChar

StartChar: tml_Day
Encoding: 64 3059 64
GlifName: tml_D_ay
Width: 0
Flags: HMW
LayerCount: 2
Back
SplineSet
195 132 m 1
 195 105.333333333 203.333333333 82.6666666667 220 64 c 128
 236.666666667 45.3333333333 256.333333333 36 279 36 c 0
 305.666666667 36 328.5 45.5 347.5 64.5 c 128
 366.5 83.5 376 106 376 132 c 0
 376 158.666666667 366.5 181.5 347.5 200.5 c 128
 328.5 219.5 305.666666667 229 279 229 c 0
 255.666666667 229 235.833333333 219.5 219.5 200.5 c 128
 203.166666667 181.5 195 158.666666667 195 132 c 1
 195 132 l 1
52 229 m 1
 52 301.666666667 77.6666666667 363.666666667 129 415 c 128
 180.333333333 466.333333333 242.333333333 492 315 492 c 0
 391 492 456.166666667 466.166666667 510.5 414.5 c 128
 564.833333333 362.833333333 592 301 592 229 c 0
 592 197 587.833333333 165.666666667 579.5 135 c 128
 571.166666667 104.333333333 559.333333333 75.3333333333 544 48 c 1
 880 48 l 1
 880 0 l 1
 472 0 l 1
 472 36 l 1
 491.333333333 59.3333333333 506.166666667 87.3333333333 516.5 120 c 128
 526.833333333 152.666666667 532 189 532 229 c 0
 532 289 511 339.833333333 469 381.5 c 128
 427 423.166666667 375.666666667 444 315 444 c 0
 255 444 204.166666667 423 162.5 381 c 128
 120.833333333 339 100 288.333333333 100 229 c 0
 100 201.666666667 105.166666667 174.333333333 115.5 147 c 128
 125.833333333 119.666666667 140.333333333 94.6666666667 159 72 c 1
 155 83.3333333333 152 94 150 104 c 128
 148 114 147 123.333333333 147 132 c 0
 147 172 160 206 186 234 c 128
 212 262 243 276 279 276 c 0
 319 276 353.166666667 262 381.5 234 c 128
 409.833333333 206 424 172 424 132 c 0
 424 92 410 58 382 30 c 128
 354 2 319.666666667 -12 279 -12 c 0
 215.666666667 -12 162 11.5 118 58.5 c 128
 74 105.5 52 162.333333333 52 229 c 1
 52 229 l 1
EndSplineSet
Colour: ff0000
EndChar

StartChar: tml_Month
Encoding: 65 3060 65
GlifName: tml_M_onth
Width: 0
Flags: HMW
LayerCount: 2
Back
SplineSet
438 360 m 1
 438 48 l 1
 606 48 l 2
 629.333333333 48 649.166666667 60.8333333333 665.5 86.5 c 128
 681.833333333 112.166666667 690 143.333333333 690 180 c 0
 690 252.666666667 672.5 314.833333333 637.5 366.5 c 128
 602.5 418.166666667 560 444 510 444 c 0
 490 444 473 435.833333333 459 419.5 c 128
 445 403.166666667 438 383.333333333 438 360 c 1
 438 360 l 1
498 492 m 1
 472.666666667 506.666666667 452.333333333 527 437 553 c 128
 421.666666667 579 414 607 414 637 c 0
 414 683 431.666666667 722.5 467 755.5 c 128
 502.333333333 788.5 544.666666667 805 594 805 c 0
 610 805 623.833333333 804.166666667 635.5 802.5 c 128
 647.166666667 800.833333333 657 798.666666667 665 796 c 1
 686.333333333 810 708.5 820.5 731.5 827.5 c 128
 754.5 834.5 776.333333333 838 797 838 c 0
 821.666666667 838 844.666666667 832.666666667 866 822 c 128
 887.333333333 811.333333333 904.333333333 796.666666667 917 778 c 1
 931.666666667 797.333333333 949.833333333 812.166666667 971.5 822.5 c 128
 993.166666667 832.833333333 1015 838 1037 838 c 1
 1037 790 l 1
 1023 790 1009 785.833333333 995 777.5 c 128
 981 769.166666667 969 757.333333333 959 742 c 1
 969.666666667 728 977.5 715.166666667 982.5 703.5 c 128
 987.5 691.833333333 990 681.333333333 990 672 c 0
 990 651.333333333 983.5 633.833333333 970.5 619.5 c 128
 957.5 605.166666667 941.333333333 598 922 598 c 256
 902.666666667 598 886.166666667 605.166666667 872.5 619.5 c 128
 858.833333333 633.833333333 852 651.333333333 852 672 c 0
 852 683.333333333 855 695.333333333 861 708 c 128
 867 720.666666667 875.666666667 732.666666667 887 744 c 1
 875 758 861.166666667 769.166666667 845.5 777.5 c 128
 829.833333333 785.833333333 813.666666667 790 797 790 c 0
 781 790 765.666666667 788 751 784 c 128
 736.333333333 780 723 774 711 766 c 1
 731.666666667 752 748 735.5 760 716.5 c 128
 772 697.5 778 678.666666667 778 660 c 0
 778 630.666666667 766 605.333333333 742 584 c 128
 718 562.666666667 688.666666667 552 654 552 c 0
 627.333333333 552 604.833333333 561.333333333 586.5 580 c 128
 568.166666667 598.666666667 559 621.333333333 559 648 c 0
 559 670 564.333333333 690.833333333 575 710.5 c 128
 585.666666667 730.166666667 600 745.333333333 618 756 c 1
 594 756 l 2
 558.666666667 756 528.5 744.333333333 503.5 721 c 128
 478.5 697.666666667 466 669.666666667 466 637 c 0
 466 611.666666667 477.333333333 585 500 557 c 128
 522.666666667 529 554 503.333333333 594 480 c 1
 641.333333333 463.333333333 679.166666667 427.333333333 707.5 372 c 128
 735.833333333 316.666666667 750 252.666666667 750 180 c 0
 750 130.666666667 736 88.3333333333 708 53 c 128
 680 17.6666666667 646 0 606 0 c 2
 90 0 l 1
 90 480 l 1
 150 480 l 1
 150 48 l 1
 378 48 l 1
 378 360 l 2
 378 397.333333333 389.833333333 428.666666667 413.5 454 c 128
 437.166666667 479.333333333 465.333333333 492 498 492 c 1
 498 492 l 1
606 648 m 1
 606 634 610.666666667 622.666666667 620 614 c 128
 629.333333333 605.333333333 640.666666667 601 654 601 c 0
 674 601 691.166666667 606.666666667 705.5 618 c 128
 719.833333333 629.333333333 727 643.333333333 727 660 c 0
 727 676 722 691.166666667 712 705.5 c 128
 702 719.833333333 688.666666667 730.666666667 672 738 c 1
 652 728 636 715.166666667 624 699.5 c 128
 612 683.833333333 606 666.666666667 606 648 c 1
 606 648 l 1
900 672 m 1
 900 665.333333333 902.166666667 659.666666667 906.5 655 c 128
 910.833333333 650.333333333 916 648 922 648 c 256
 928 648 932.833333333 650.5 936.5 655.5 c 128
 940.166666667 660.5 942 666 942 672 c 0
 942 678.666666667 940.333333333 685.166666667 937 691.5 c 128
 933.666666667 697.833333333 928.666666667 703.333333333 922 708 c 1
 915.333333333 703.333333333 910 697.833333333 906 691.5 c 128
 902 685.166666667 900 678.666666667 900 672 c 1
 900 672 l 1
EndSplineSet
Colour: ff0000
EndChar

StartChar: tml_Year
Encoding: 66 3061 66
GlifName: tml_Y_ear
Width: 0
Flags: HMW
LayerCount: 2
Back
SplineSet
377 132 m 1
 377 105.333333333 384.833333333 82.6666666667 400.5 64 c 128
 416.166666667 45.3333333333 434.666666667 36 456 36 c 256
 477.333333333 36 495.833333333 45.5 511.5 64.5 c 128
 527.166666667 83.5 535 106 535 132 c 0
 535 158.666666667 527.166666667 181.5 511.5 200.5 c 128
 495.833333333 219.5 477.333333333 229 456 229 c 256
 434.666666667 229 416.166666667 219.5 400.5 200.5 c 128
 384.833333333 181.5 377 158.666666667 377 132 c 1
 377 132 l 1
907 48 m 1
 907 480 l 1
 1271 480 l 1
 1271 433 l 1
 1147 433 l 1
 1147 234 l 1
 1158.33333333 244 1170.33333333 251.5 1183 256.5 c 128
 1195.66666667 261.5 1208.33333333 264 1221 264 c 0
 1255 264 1283.66666667 247.666666667 1307 215 c 128
 1330.33333333 182.333333333 1342 142.666666667 1342 96 c 0
 1342 -16.6666666667 1279.66666667 -112.833333333 1155 -192.5 c 128
 1030.33333333 -272.166666667 879.333333333 -312 702 -312 c 0
 526 -312 375.5 -262.833333333 250.5 -164.5 c 128
 125.5 -66.1666666667 63 52.6666666667 63 192 c 0
 63 338 132.333333333 462.666666667 271 566 c 128
 409.666666667 669.333333333 577 721 773 721 c 0
 969 721 1136.16666667 685.666666667 1274.5 615 c 128
 1412.83333333 544.333333333 1482 459.333333333 1482 360 c 2
 1482 180 l 2
 1482 142.666666667 1490.5 111.333333333 1507.5 86 c 128
 1524.5 60.6666666667 1545 48 1569 48 c 0
 1598.33333333 48 1623.66666667 66.8333333333 1645 104.5 c 128
 1666.33333333 142.166666667 1677 187.333333333 1677 240 c 256
 1677 292.666666667 1667.66666667 338 1649 376 c 128
 1630.33333333 414 1607.33333333 433 1580 433 c 1
 1599 480 l 1
 1633.66666667 480 1663.33333333 456.666666667 1688 410 c 128
 1712.66666667 363.333333333 1725 306.666666667 1725 240 c 256
 1725 173.333333333 1709.83333333 116.666666667 1679.5 70 c 128
 1649.16666667 23.3333333333 1612.33333333 0 1569 0 c 0
 1529 0 1495 17.5 1467 52.5 c 128
 1439 87.5 1425 130 1425 180 c 2
 1425 360 l 2
 1425 446.666666667 1361.16666667 520.333333333 1233.5 581 c 128
 1105.83333333 641.666666667 951.666666667 672 771 672 c 256
 590.333333333 672 436 625.333333333 308 532 c 128
 180 438.666666667 116 325.333333333 116 192 c 0
 116 66.6666666667 173.166666667 -40.6666666667 287.5 -130 c 128
 401.833333333 -219.333333333 539.333333333 -264 700 -264 c 0
 861.333333333 -264 999 -228.833333333 1113 -158.5 c 128
 1227 -88.1666666667 1284 -3.33333333333 1284 96 c 0
 1284 127.333333333 1277.5 154.166666667 1264.5 176.5 c 128
 1251.5 198.833333333 1236 210 1218 210 c 0
 1198.66666667 210 1182 203 1168 189 c 128
 1154 175 1147 158 1147 138 c 2
 1147 0 l 1
 1090 0 l 1
 1090 433 l 1
 967 433 l 1
 967 0 l 1
 652 0 l 1
 652 36 l 1
 668.666666667 58 681.666666667 85.6666666667 691 119 c 128
 700.333333333 152.333333333 705 189 705 229 c 0
 705 289 684.666666667 339.833333333 644 381.5 c 128
 603.333333333 423.166666667 554.333333333 444 497 444 c 0
 440.333333333 444 391.666666667 423 351 381 c 128
 310.333333333 339 290 288.333333333 290 229 c 0
 290 199.666666667 294.166666667 171.5 302.5 144.5 c 128
 310.833333333 117.5 323.333333333 93.3333333333 340 72 c 1
 336.666666667 83.3333333333 334 94 332 104 c 128
 330 114 329 123.333333333 329 132 c 0
 329 172 340.666666667 206 364 234 c 128
 387.333333333 262 416 276 450 276 c 0
 487.333333333 276 518.833333333 262 544.5 234 c 128
 570.166666667 206 583 172 583 132 c 0
 583 92 570.166666667 58 544.5 30 c 128
 518.833333333 2 487.333333333 -12 450 -12 c 0
 383.333333333 -12 330 9.83333333333 290 53.5 c 128
 250 97.1666666667 230 155.666666667 230 229 c 256
 230 301.666666667 256.166666667 363.666666667 308.5 415 c 128
 360.833333333 466.333333333 423.666666667 492 497 492 c 256
 570.333333333 492 633.166666667 466.166666667 685.5 414.5 c 128
 737.833333333 362.833333333 764 301 764 229 c 0
 764 197 760.333333333 165.666666667 753 135 c 128
 745.666666667 104.333333333 735.333333333 75.3333333333 722 48 c 1
 907 48 l 1
 907 48 l 1
EndSplineSet
Colour: ff0000
EndChar

StartChar: tml_Debit
Encoding: 67 3062 67
GlifName: tml_D_ebit
Width: 0
Flags: HMW
LayerCount: 2
Back
SplineSet
83 132 m 1
 83 480 l 1
 143 480 l 1
 143 132 l 2
 143 105.333333333 151.166666667 82.6666666667 167.5 64 c 128
 183.833333333 45.3333333333 203.666666667 36 227 36 c 0
 256.333333333 36 281.666666667 46.6666666667 303 68 c 128
 324.333333333 89.3333333333 335 115 335 145 c 2
 335 480 l 1
 395 480 l 1
 395 -60 l 1
 623 -60 l 1
 623 480 l 1
 683 480 l 1
 683 -108 l 1
 395 -108 l 1
 395 -180 l 2
 395 -212.666666667 383.833333333 -240.833333333 361.5 -264.5 c 128
 339.166666667 -288.166666667 312.333333333 -300 281 -300 c 2
 197 -300 l 2
 164.333333333 -300 136.166666667 -288.166666667 112.5 -264.5 c 128
 88.8333333333 -240.833333333 77 -212.666666667 77 -180 c 0
 77 -147.333333333 88.6666666667 -119.166666667 112 -95.5 c 128
 135.333333333 -71.8333333333 163.666666667 -60 197 -60 c 2
 335 -60 l 1
 335 36 l 1
 325.666666667 21.3333333333 311.5 9.66666666667 292.5 1 c 128
 273.5 -7.66666666667 251.666666667 -12 227 -12 c 0
 187 -12 153 2 125 30 c 128
 97 58 83 92 83 132 c 1
 83 132 l 1
137 -180 m 1
 137 -200 142.833333333 -217 154.5 -231 c 128
 166.166666667 -245 180.333333333 -252 197 -252 c 2
 281 -252 l 2
 295.666666667 -252 308.333333333 -245 319 -231 c 128
 329.666666667 -217 335 -200 335 -180 c 2
 335 -108 l 1
 197 -108 l 2
 180.333333333 -108 166.166666667 -115 154.5 -129 c 128
 142.833333333 -143 137 -160 137 -180 c 1
 137 -180 l 1
EndSplineSet
Colour: ff0000
EndChar

StartChar: tml_Credit
Encoding: 68 3063 68
GlifName: tml_C_redit
Width: 0
Flags: HMW
LayerCount: 2
Back
SplineSet
209 132 m 1
 209 105.333333333 216 82.6666666667 230 64 c 128
 244 45.3333333333 261 36 281 36 c 256
 301 36 318 45.5 332 64.5 c 128
 346 83.5 353 106 353 132 c 0
 353 155.333333333 346 175.166666667 332 191.5 c 128
 318 207.833333333 301 216 281 216 c 0
 261 216 244 207.833333333 230 191.5 c 128
 216 175.166666667 209 155.333333333 209 132 c 1
 209 132 l 1
53 216 m 1
 53 288.666666667 77.5 350.833333333 126.5 402.5 c 128
 175.5 454.166666667 235 480 305 480 c 2
 725 480 l 1
 725 433 l 1
 605 433 l 1
 605 142 l 1
 617 156 631 169 647 181 c 128
 663 193 680.666666667 203.666666667 700 213 c 1
 710.666666667 255.666666667 733.5 290.666666667 768.5 318 c 128
 803.5 345.333333333 843 359 887 359 c 0
 942.333333333 359 989.666666667 340.166666667 1029 302.5 c 128
 1068.33333333 264.833333333 1088 219.666666667 1088 167 c 0
 1088 143 1085.16666667 119.666666667 1079.5 97 c 128
 1073.83333333 74.3333333333 1065.33333333 53.6666666667 1054 35 c 1
 1298 35 l 1
 1298 0 l 1
 1000 0 l 1
 1000 26 l 1
 1014 42.6666666667 1024.66666667 63.1666666667 1032 87.5 c 128
 1039.33333333 111.833333333 1043 138.333333333 1043 167 c 0
 1043 209.666666667 1027.83333333 246.5 997.5 277.5 c 128
 967.166666667 308.5 930.333333333 324 887 324 c 0
 855.666666667 324 827.166666667 315.166666667 801.5 297.5 c 128
 775.833333333 279.833333333 756.333333333 256.333333333 743 227 c 1
 756.333333333 230.333333333 769.166666667 232.666666667 781.5 234 c 128
 793.833333333 235.333333333 805.666666667 236 817 236 c 0
 858.333333333 236 893.666666667 223.5 923 198.5 c 128
 952.333333333 173.5 967 143.333333333 967 108 c 0
 967 76 954.833333333 48.5 930.5 25.5 c 128
 906.166666667 2.5 876.666666667 -9 842 -9 c 0
 800.666666667 -9 765.666666667 8.33333333333 737 43 c 128
 708.333333333 77.6666666667 694 119 694 167 c 1
 673.333333333 155 655.166666667 140.833333333 639.5 124.5 c 128
 623.833333333 108.166666667 612.333333333 89.6666666667 605 69 c 1
 605 0 l 1
 545 0 l 1
 545 433 l 1
 305 433 l 2
 249 433 201 411.833333333 161 369.5 c 128
 121 327.166666667 101 276 101 216 c 0
 101 180.666666667 109.5 148 126.5 118 c 128
 143.5 88 167 64.6666666667 197 48 c 1
 185 62 176 76 170 90 c 128
 164 104 161 118 161 132 c 0
 161 169.333333333 172.666666667 200.666666667 196 226 c 128
 219.333333333 251.333333333 247.666666667 264 281 264 c 0
 318.333333333 264 349.666666667 251.333333333 375 226 c 128
 400.333333333 200.666666667 413 169.333333333 413 132 c 0
 413 92 397.666666667 58 367 30 c 128
 336.333333333 2 299.666666667 -12 257 -12 c 0
 201 -12 153 10.1666666667 113 54.5 c 128
 73 98.8333333333 53 152.666666667 53 216 c 1
 53 216 l 1
731 183 m 1
 731 141.666666667 741.833333333 106.166666667 763.5 76.5 c 128
 785.166666667 46.8333333333 811.333333333 32 842 32 c 0
 863.333333333 32 881.333333333 39.5 896 54.5 c 128
 910.666666667 69.5 918 87.3333333333 918 108 c 0
 918 132.666666667 908.166666667 153.666666667 888.5 171 c 128
 868.833333333 188.333333333 845 197 817 197 c 0
 803 197 788.666666667 195.666666667 774 193 c 128
 759.333333333 190.333333333 745 187 731 183 c 1
 731 183 l 1
EndSplineSet
Colour: ff0000
EndChar

StartChar: tml_Above
Encoding: 69 3064 69
GlifName: tml_A_bove
Width: 0
Flags: HMW
LayerCount: 2
Back
SplineSet
60 300 m 1
 60 398.666666667 95.1666666667 483.333333333 165.5 554 c 128
 235.833333333 624.666666667 320.666666667 660 420 660 c 0
 493.333333333 660 561.5 635.833333333 624.5 587.5 c 128
 687.5 539.166666667 733.666666667 475.333333333 763 396 c 1
 774.333333333 400 786.166666667 403 798.5 405 c 128
 810.833333333 407 825 408 841 408 c 0
 890.333333333 408 932.666666667 389.166666667 968 351.5 c 128
 1003.33333333 313.833333333 1021 268.666666667 1021 216 c 0
 1021 178 1015.66666667 144.5 1005 115.5 c 128
 994.333333333 86.5 979.333333333 64 960 48 c 1
 1188 48 l 1
 1158.66666667 62 1135.5 83 1118.5 111 c 128
 1101.5 139 1093 170 1093 204 c 0
 1093 241.333333333 1107 272.666666667 1135 298 c 128
 1163 323.333333333 1196.66666667 336 1236 336 c 256
 1276 336 1310.16666667 323.333333333 1338.5 298 c 128
 1366.83333333 272.666666667 1381 241.333333333 1381 204 c 2
 1381 48 l 1
 1549 48 l 1
 1549 0 l 1
 1381 0 l 1
 1381 -288 l 1
 1320 -288 l 1
 1320 0 l 1
 853 0 l 1
 853 36 l 1
 885.666666667 48 911.666666667 70.3333333333 931 103 c 128
 950.333333333 135.666666667 960 173.333333333 960 216 c 0
 960 256 947.333333333 290 922 318 c 128
 896.666666667 346 865.333333333 360 828 360 c 0
 814.666666667 360 803.666666667 359.333333333 795 358 c 128
 786.333333333 356.666666667 779.333333333 355.333333333 774 354 c 1
 775.333333333 348 776.666666667 340.666666667 778 332 c 128
 779.333333333 323.333333333 780 312.666666667 780 300 c 0
 780 216.666666667 764.833333333 145.833333333 734.5 87.5 c 128
 704.166666667 29.1666666667 667.333333333 0 624 0 c 0
 600.666666667 0 580.833333333 11.8333333333 564.5 35.5 c 128
 548.166666667 59.1666666667 540 87.3333333333 540 120 c 0
 540 180 554.833333333 233.666666667 584.5 281 c 128
 614.166666667 328.333333333 653.333333333 360.666666667 702 378 c 1
 676.666666667 448 638.166666667 504.5 586.5 547.5 c 128
 534.833333333 590.5 479.333333333 612 420 612 c 0
 335.333333333 612 263.166666667 581.666666667 203.5 521 c 128
 143.833333333 460.333333333 114 386.666666667 114 300 c 0
 114 272 118.666666667 242.666666667 128 212 c 128
 137.333333333 181.333333333 150.666666667 150.666666667 168 120 c 1
 164 161.333333333 175.166666667 197.666666667 201.5 229 c 128
 227.833333333 260.333333333 260.666666667 276 300 276 c 0
 340 276 374 262 402 234 c 128
 430 206 444 172 444 132 c 0
 444 92 430 58 402 30 c 128
 374 2 340 -12 300 -12 c 0
 233.333333333 -12 176.666666667 18.5 130 79.5 c 128
 83.3333333333 140.5 60 214 60 300 c 1
 60 300 l 1
216 132 m 1
 216 105.333333333 224.333333333 82.6666666667 241 64 c 128
 257.666666667 45.3333333333 277.333333333 36 300 36 c 0
 323.333333333 36 343.166666667 45.5 359.5 64.5 c 128
 375.833333333 83.5 384 106 384 132 c 0
 384 158.666666667 375.166666667 181.5 357.5 200.5 c 128
 339.833333333 219.5 318.666666667 229 294 229 c 0
 272.666666667 229 254.333333333 219.5 239 200.5 c 128
 223.666666667 181.5 216 158.666666667 216 132 c 1
 216 132 l 1
601 120 m 1
 601 100 603.166666667 83 607.5 69 c 128
 611.833333333 55 617.333333333 48 624 48 c 0
 648.666666667 48 669.833333333 72.5 687.5 121.5 c 128
 705.166666667 170.5 714 230 714 300 c 2
 714 336 l 1
 679.333333333 322.666666667 651.833333333 296.333333333 631.5 257 c 128
 611.166666667 217.666666667 601 172 601 120 c 1
 601 120 l 1
1152 204 m 1
 1152 161.333333333 1168.5 124.666666667 1201.5 94 c 128
 1234.5 63.3333333333 1274 48 1320 48 c 1
 1320 204 l 2
 1320 227.333333333 1311.83333333 247.166666667 1295.5 263.5 c 128
 1279.16666667 279.833333333 1259.33333333 288 1236 288 c 256
 1212.66666667 288 1192.83333333 279.833333333 1176.5 263.5 c 128
 1160.16666667 247.166666667 1152 227.333333333 1152 204 c 1
 1152 204 l 1
EndSplineSet
Colour: ff0000
EndChar

StartChar: tml_Rupee
Encoding: 70 3065 70
GlifName: tml_R_upee
Width: 0
Flags: HMW
LayerCount: 2
Back
SplineSet
446 -216 m 1
 536 -216 612.666666667 -183.333333333 676 -118 c 128
 739.333333333 -52.6666666667 771 26.6666666667 771 120 c 0
 771 157.333333333 759.666666667 188.666666667 737 214 c 128
 714.333333333 239.333333333 687.333333333 252 656 252 c 0
 644 252 631.333333333 247.833333333 618 239.5 c 128
 604.666666667 231.166666667 591.666666667 219.333333333 579 204 c 1
 579 0 l 1
 519 0 l 1
 519 433 l 1
 375 433 l 1
 375 0 l 1
 314 0 l 1
 314 480 l 1
 675 480 l 1
 675 433 l 1
 579 433 l 1
 579 264 l 1
 585.666666667 275.333333333 596.5 284.166666667 611.5 290.5 c 128
 626.5 296.833333333 643.666666667 300 663 300 c 0
 709 300 748.5 282.333333333 781.5 247 c 128
 814.5 211.666666667 831 169.333333333 831 120 c 0
 831 14 793.5 -76.5 718.5 -151.5 c 128
 643.5 -226.5 552.666666667 -264 446 -264 c 0
 344 -264 256.5 -217.666666667 183.5 -125 c 128
 110.5 -32.3333333333 74 79.3333333333 74 210 c 0
 74 350.666666667 113.833333333 471 193.5 571 c 128
 273.166666667 671 369.333333333 721 482 721 c 0
 556 721 624 698.833333333 686 654.5 c 128
 748 610.166666667 792 552 818 480 c 1
 829.333333333 508.666666667 848.333333333 531.833333333 875 549.5 c 128
 901.666666667 567.166666667 931 576 963 576 c 0
 1003 576 1036.83333333 564.333333333 1064.5 541 c 128
 1092.16666667 517.666666667 1106 489.333333333 1106 456 c 1
 1203 456 l 1
 1203 408 l 1
 1059 408 l 1
 1059 440.666666667 1049.5 468.833333333 1030.5 492.5 c 128
 1011.5 516.166666667 989 528 963 528 c 0
 930.333333333 528 902.166666667 514 878.5 486 c 128
 854.833333333 458 843 424 843 384 c 1
 782 384 l 1
 782 463.333333333 752.833333333 531.166666667 694.5 587.5 c 128
 636.166666667 643.833333333 565.333333333 672 482 672 c 0
 384.666666667 672 301.5 626.833333333 232.5 536.5 c 128
 163.5 446.166666667 129 337.333333333 129 210 c 0
 129 92 159.833333333 -8.5 221.5 -91.5 c 128
 283.166666667 -174.5 358 -216 446 -216 c 1
 446 -216 l 1
EndSplineSet
Colour: ff0000
EndChar

StartChar: tml_Number
Encoding: 71 3066 71
GlifName: tml_N_umber
Width: 0
Flags: HMW
LayerCount: 2
Back
SplineSet
672 336 m 1
 672 319.333333333 677.833333333 305.166666667 689.5 293.5 c 128
 701.166666667 281.833333333 715.333333333 276 732 276 c 0
 746.666666667 276 759.333333333 281.833333333 770 293.5 c 128
 780.666666667 305.166666667 786 319.333333333 786 336 c 0
 786 359.333333333 785 379.333333333 783 396 c 128
 781 412.666666667 778 426.666666667 774 438 c 1
 743.333333333 430 718.666666667 416.666666667 700 398 c 128
 681.333333333 379.333333333 672 358.666666667 672 336 c 1
 672 336 l 1
90 0 m 1
 90 480 l 1
 378 480 l 1
 368 489.333333333 360.5 502.333333333 355.5 519 c 128
 350.5 535.666666667 348 554.666666667 348 576 c 0
 348 614.666666667 367.5 647.333333333 406.5 674 c 128
 445.5 700.666666667 492 714 546 714 c 0
 606 714 660.666666667 693.333333333 710 652 c 128
 759.333333333 610.666666667 793 557 811 491 c 1
 828 492 l 1
 893.333333333 492 948.666666667 473.166666667 994 435.5 c 128
 1039.33333333 397.833333333 1062 352.666666667 1062 300 c 0
 1062 252 1047.16666667 205.666666667 1017.5 161 c 128
 987.833333333 116.333333333 947 78.6666666667 895 48 c 1
 1158 48 l 1
 1158 0 l 1
 696 0 l 1
 790 34.6666666667 865.666666667 79.3333333333 923 134 c 128
 980.333333333 188.666666667 1009 244 1009 300 c 0
 1009 340 991.166666667 374 955.5 402 c 128
 919.833333333 430 877.333333333 444 828 444 c 1
 832.666666667 433.333333333 836.333333333 419.166666667 839 401.5 c 128
 841.666666667 383.833333333 843 362 843 336 c 0
 843 306.666666667 832.166666667 281.5 810.5 260.5 c 128
 788.833333333 239.5 762.666666667 229 732 229 c 0
 700.666666667 229 673.833333333 239.5 651.5 260.5 c 128
 629.166666667 281.5 618 306.666666667 618 336 c 0
 618 372 631 403.833333333 657 431.5 c 128
 683 459.166666667 716 476.333333333 756 483 c 1
 742 536.333333333 715.333333333 580.166666667 676 614.5 c 128
 636.666666667 648.833333333 593.333333333 666 546 666 c 0
 506 666 472 657.166666667 444 639.5 c 128
 416 621.833333333 402 600.666666667 402 576 c 0
 402 555.333333333 405.166666667 536.5 411.5 519.5 c 128
 417.833333333 502.5 426.666666667 489.333333333 438 480 c 1
 522 480 l 1
 522 433 l 1
 354 433 l 1
 354 258 l 1
 364 269.333333333 376.333333333 278.166666667 391 284.5 c 128
 405.666666667 290.833333333 421.333333333 294 438 294 c 0
 480.666666667 294 517.333333333 280.666666667 548 254 c 128
 578.666666667 227.333333333 594 194.666666667 594 156 c 0
 594 113.333333333 577.666666667 76.6666666667 545 46 c 128
 512.333333333 15.3333333333 472.666666667 0 426 0 c 2
 294 0 l 1
 294 48 l 1
 426 48 l 2
 455.333333333 48 480.666666667 58.5 502 79.5 c 128
 523.333333333 100.5 534 126 534 156 c 0
 534 179.333333333 524.666666667 199.166666667 506 215.5 c 128
 487.333333333 231.833333333 464.666666667 240 438 240 c 0
 424 240 409.666666667 235.833333333 395 227.5 c 128
 380.333333333 219.166666667 366.666666667 207.333333333 354 192 c 1
 354 96 l 1
 294 96 l 1
 294 433 l 1
 150 433 l 1
 150 0 l 1
 90 0 l 1
 90 0 l 1
EndSplineSet
Colour: ff0000
EndChar

StartChar: tml_TtI
Encoding: 72 -1 72
GlifName: tml_T_tI_
Width: 1003
VWidth: 0
Flags: HMW
LayerCount: 2
Back
SplineSet
90 560 m 5
 177 560 l 5
 172 0 l 5
 90 0 l 5
 90 560 l 5
110 56 m 5
 951 56 l 5
 951 0 l 5
 110 0 l 5
 110 56 l 5
571.955078125 571.30859375 m 4
 676.766899368 571.30859375 750 500.99311364 750 380 c 6
 750 -194 l 5
 668 -194 l 5
 667 379 l 5
 668.162083225 444.836624509 635.262146013 506.494140625 557.181640625 506.494140625 c 4
 488.661629365 506.494140625 430.384765625 438.537963249 430.384765625 326.685546875 c 4
 430.384765625 198.144782846 526.893122731 60.8254195319 645 50 c 5
 637 14 l 5
 633.72692721 13.8559516786 630.448347555 13.6564474875 627.174804688 13.7841796875 c 4
 474.874799009 19.1770042188 364.876362765 185.503549275 367.9609375 331.596679688 c 4
 371.192158378 463.545327039 445.431280924 571.30859375 571.955078125 571.30859375 c 4
EndSplineSet
Fore
SplineSet
88 0 m 1
 92.7861328125 25.4814453125 103.096679688 103.978515625 106.860351562 147 c 2
 142.46875 554 l 1
 161.12109375 557.639648438 207.416015625 561.139648438 233.081054688 561 c 1
 188.899414062 56 l 1
 401.899414062 56 l 2
 540.801757812 56.99609375 800.249023438 54.47265625 959.774414062 66 c 1
 965.126953125 53.6904296875 969.241210938 21 968 0 c 1
 927.309570312 0.2666015625 697.192382812 -0.041015625 654 0 c 2
 88 0 l 1
422.697265625 305.596679688 m 0
 434.930664062 425.764648438 523.563476562 519.30859375 637.388671875 519.30859375 c 0
 739.845703125 519.30859375 803.188476562 459.360351562 792.658203125 339 c 2
 746.02734375 -194 l 1
 659.02734375 -194 l 1
 704.658203125 339 l 2
 709.973632812 407.934570312 686.140625 461.494140625 612.557617188 461.494140625 c 0
 558.079101562 461.494140625 489.245117188 409.883789062 479.516601562 298.685546875 c 0
 469.306640625 181.98828125 550.856445312 53.6494140625 672.63671875 53 c 1
 644.836914062 21 l 1
 641.55078125 20.85546875 638.276367188 20.884765625 634.993164062 20.7841796875 c 0
 486.1328125 16.1474609375 408.5390625 166.350585938 422.697265625 305.596679688 c 0
EndSplineSet
LCarets2: 1 0
Ligature2: "'abvs' Above Base Substitutions lookup 1 subtable" tml_Tta tml_MatraI
Colour: ffffff
EndChar

StartChar: tml_KU
Encoding: 73 -1 73
GlifName: tml_K_U_
Width: 1211
VWidth: 0
Flags: HMW
LayerCount: 2
Back
SplineSet
1008 85 m 1
 1007.35204506 193.4051277 952.283973215 286.443693792 852 288 c 1
 799 290 l 0
 771 286 l 1
 556 289 l 0
 460.796954315 289 399 249.2109375 399 169 c 0
 399 88.9052734375 472.675757883 41.5568709969 580 42 c 0
 698.527081404 42.4893841912 746.623383621 114.425537507 748 226 c 0
 749.787109375 295 l 1
 746.934570312 330 l 1
 748.309000115 383.212511914 748.999999955 469.804469274 747 505 c 1
 576 505 l 0
 576 294 l 0
 509 291 l 0
 509 562 l 1
 595.81744104 559.305664062 843.828214838 559.356445312 1007 561 c 1
 1009.51416489 536.353124322 1008.66938302 523.052151919 1004 505 c 0
 834 505 l 1
 834 427.631157636 834 324.876154557 834 233 c 1
 831.115735599 80.6787564767 746.080536913 -19 572 -19 c 0
 402.571254284 -19 336.040498534 75.3977858138 336.533203125 170 c 0
 337.025390625 264.502929688 411.448003697 341.844183394 530 345 c 0
 608.287346442 347.083984375 706.121828682 346.865234375 870 345 c 1
 1006.74898785 342.874433039 1111.98714308 259.500513991 1113 93 c 1
 1113.40157884 -144.75932344 956.611860852 -378 634 -378 c 0
 248.430328911 -378 80.8490159926 -111.51168379 80 148 c 0
 79.2773785341 369.277133306 193.650674625 519.082384017 285 599 c 1
 326 559 l 1
 217.135251017 461.409587981 148 321.290652697 148 153 c 0
 148 -83.6930530025 316.459341472 -298.4949117 628 -301 c 0
 861.734521736 -302.903200388 1007.18675385 -143.577424578 1008 85 c 1
EndSplineSet
Fore
SplineSet
105.696289062 170 m 0
 80.0576171875 -88.4169921875 241.171875 -316 607.353515625 -316 c 0
 931.790039062 -316 1122.01464844 -107.442382812 1138.26171875 83 c 0
 1151.90234375 242.895507812 1037.75683594 322.958984375 912.43359375 325 c 0
 869.034179688 325.459960938 819.391601562 325.784179688 784.5234375 326.026367188 c 0
 672.403320312 326.807617188 595.296875 326.538085938 528.43359375 325 c 0
 413.682617188 322.360351562 338.509765625 268.076171875 327.880859375 164 c 0
 318.619140625 73.35546875 382.803710938 -23 550.987304688 -23 c 0
 717.094726562 -23 811.602539062 84.0673828125 826.509765625 223 c 1
 832.333984375 301 l 1
 850.70703125 511 l 1
 892.975585938 510.958984375 984.887695312 511.266601562 1024.70703125 511 c 1
 1024.62792969 528.333007812 1020.39453125 559.666992188 1015.86816406 570 c 1
 874.147460938 560.47265625 679.58203125 561.265625 513.081054688 561 c 1
 510.803710938 505.514648438 507.278320312 440.999023438 501.37109375 370 c 0
 497.212890625 320.028320312 487.458984375 291 487.458984375 291 c 1
 549.458984375 291 l 1
 555.845703125 364 l 2
 560.482421875 417 562.111328125 458.611328125 566.314453125 511 c 1
 609.706054688 511.171875 676.776367188 511.69140625 758.70703125 511 c 1
 746.37109375 370 l 1
 739.268554688 301 l 1
 737.546875 283 l 1
 731.509765625 223 l 2
 719.368164062 99.4140625 647.58984375 34.3564453125 545.974609375 34 c 0
 438.5625 33.623046875 376.592773438 98.21875 382.610351562 167 c 0
 388.262695312 231.600585938 432.73828125 273 516.884765625 273 c 2
 750.884765625 273 l 1
 776.884765625 273 l 1
 872.884765625 273 l 1
 990.2265625 271.482421875 1037.90039062 189.735351562 1029.34863281 84 c 1
 1009.66601562 -131.036132812 840.189453125 -259.823242188 600.427734375 -258 c 0
 301.181640625 -255.724609375 135.3125 -59.2333984375 157.995117188 174 c 0
 173.919921875 337.745117188 275.436523438 472.669921875 409.643554688 556 c 1
 398.216796875 575.758789062 382.518554688 594.452148438 364.66796875 602 c 1
 259.21484375 534.927734375 126.250976562 377.166992188 105.696289062 170 c 0
EndSplineSet
LCarets2: 1 0
Ligature2: "'psts' Post Base Substitutions lookup 3 subtable" tml_Ka tml_MatraU
Colour: ffffff
EndChar

StartChar: tml_CU
Encoding: 74 -1 74
GlifName: tml_C_U_
Width: 931
VWidth: 0
Flags: HMW
AnchorPoint: "Anchor-0" 572.704 751 basechar 0
LayerCount: 2
Back
SplineSet
214 433 m 1
 214 264 l 1
 334 264 l 1
 334 433 l 1
 214 433 l 1
 214 433 l 1
94 156 m 1
 94 123.333333333 106.833333333 95.1666666667 132.5 71.5 c 128
 158.166666667 47.8333333333 189.333333333 36 226 36 c 0
 255.333333333 36 280.666666667 45.5 302 64.5 c 128
 323.333333333 83.5 334 106 334 132 c 2
 334 216 l 1
 153 216 l 2
 136.333333333 216 122.333333333 210.333333333 111 199 c 128
 99.6666666667 187.666666667 94 173.333333333 94 156 c 1
 94 156 l 1
33 156 m 1
 33 185.333333333 44.8333333333 210.666666667 68.5 232 c 128
 92.1666666667 253.333333333 120.333333333 264 153 264 c 1
 153 480 l 1
 562 480 l 1
 562 433 l 1
 394 433 l 1
 394 264 l 1
 634 264 l 1
 634 216 l 1
 562 216 l 1
 562 0 l 1
 502 0 l 1
 502 216 l 1
 394 216 l 1
 394 132 l 2
 394 92 377.5 58 344.5 30 c 128
 311.5 2 272 -12 226 -12 c 0
 173.333333333 -12 128 4.5 90 37.5 c 128
 52 70.5 33 110 33 156 c 1
 33 156 l 1
EndSplineSet
Fore
SplineSet
675 0 m 9
 760 0 l 17
 787.859375 307 l 1
 763.65234375 307.139648438 725.032226562 305.639648438 707.421875 302 c 1
 693.860351562 147 l 2
 690.096679688 103.978515625 679.786132812 25.4814453125 675 0 c 9
89.4443359375 159 m 0
 80.1875 68.35546875 149.803710938 -23 307.987304688 -23 c 0
 471.436523438 -23 560.646484375 84.0673828125 575.509765625 223 c 1
 581.333984375 301 l 1
 599.70703125 511 l 1
 642.899414062 510.958984375 746.016601562 511.266601562 786.70703125 511 c 1
 786.627929688 528.333007812 781.782226562 552.666992188 777.255859375 563 c 1
 635.53515625 553.47265625 400.881835938 553.265625 274.380859375 553 c 1
 272.104492188 497.514648438 269.278320312 440.999023438 263.37109375 370 c 0
 259.212890625 320.028320312 249.458984375 291 249.458984375 291 c 1
 305.458984375 291 l 1
 311.845703125 364 l 2
 316.482421875 417 319.111328125 458.611328125 323.314453125 511 c 1
 366.706054688 511.171875 434.776367188 511.69140625 516.70703125 511 c 1
 504.37109375 370 l 1
 497.268554688 301 l 1
 497.546875 283 l 1
 491.772460938 226 l 2
 479.630859375 102.4140625 409.239257812 30.3447265625 307.625 30 c 0
 197.212890625 29.625 125.456054688 85.21875 132.34765625 164 c 0
 138.524414062 234.600585938 195.61328125 283 279.759765625 283 c 2
 509.759765625 283 l 1
 535.671875 282 l 1
 587.411132812 281.958984375 861.663085938 279.266601562 910.322265625 278 c 1
 912.2421875 295.333007812 910.659179688 322.666992188 908.133789062 333 c 1
 715.731445312 324.459960938 443.584960938 327.6015625 290.43359375 325 c 0
 175.731445312 323.092773438 100.072265625 263.076171875 89.4443359375 159 c 0
EndSplineSet
LCarets2: 1 0
Ligature2: "'psts' Post Base Substitutions lookup 3 subtable" tml_Ca tml_MatraU
Colour: ffffff
EndChar

StartChar: tml_NyU
Encoding: 75 -1 75
GlifName: tml_N_yU_
Width: 1358
VWidth: 0
Flags: HMW
LayerCount: 2
Back
SplineSet
205 132 m 1
 205 105.333333333 213.333333333 82.6666666667 230 64 c 128
 246.666666667 45.3333333333 266.333333333 36 289 36 c 0
 312.333333333 36 332.166666667 45.5 348.5 64.5 c 128
 364.833333333 83.5 373 106 373 132 c 0
 373 158.666666667 364.833333333 181.5 348.5 200.5 c 128
 332.166666667 219.5 312.333333333 229 289 229 c 256
 265.666666667 229 245.833333333 219.5 229.5 200.5 c 128
 213.166666667 181.5 205 158.666666667 205 132 c 1
 205 132 l 1
49 204 m 1
 49 280 78.3333333333 345 137 399 c 128
 195.666666667 453 266.666666667 480 350 480 c 2
 817 480 l 1
 817 433 l 1
 625 433 l 1
 625 264 l 1
 638.333333333 278.666666667 654.333333333 290.333333333 673 299 c 128
 691.666666667 307.666666667 711.666666667 312 733 312 c 0
 775.666666667 312 812.5 291.166666667 843.5 249.5 c 128
 874.5 207.833333333 890 156.666666667 890 96 c 0
 890 62 888 30.8333333333 884 2.5 c 128
 880 -25.8333333333 873.666666667 -50.6666666667 865 -72 c 1
 985 -72 l 1
 985 480 l 1
 1046 480 l 1
 1046 -120 l 1
 848 -120 l 1
 813.333333333 -179.333333333 757 -226.166666667 679 -260.5 c 128
 601 -294.833333333 511 -312 409 -312 c 0
 321.666666667 -312 246.833333333 -302.5 184.5 -283.5 c 128
 122.166666667 -264.5 79.3333333333 -238 56 -204 c 0
 46 -194 38.3333333333 -183.833333333 33 -173.5 c 128
 27.6666666667 -163.166666667 25 -153.666666667 25 -145 c 0
 25 -125 33.1666666667 -107.833333333 49.5 -93.5 c 128
 65.8333333333 -79.1666666667 85.6666666667 -72 109 -72 c 2
 806 -72 l 1
 814 -58 819.833333333 -37 823.5 -9 c 128
 827.166666667 19 829 54 829 96 c 0
 829 142 818.5 181.5 797.5 214.5 c 128
 776.5 247.5 751.333333333 264 722 264 c 0
 704 264 686.333333333 257 669 243 c 128
 651.666666667 229 637 210.333333333 625 187 c 1
 625 0 l 1
 565 0 l 1
 565 433 l 1
 350 433 l 2
 282 433 224 410.666666667 176 366 c 128
 128 321.333333333 104 267.333333333 104 204 c 0
 104 179.333333333 110.833333333 154.333333333 124.5 129 c 128
 138.166666667 103.666666667 157.333333333 80.6666666667 182 60 c 1
 174 74 167.833333333 87 163.5 99 c 128
 159.166666667 111 157 122 157 132 c 0
 157 172 169.833333333 206 195.5 234 c 128
 221.166666667 262 252.333333333 276 289 276 c 0
 326.333333333 276 357.666666667 262 383 234 c 128
 408.333333333 206 421 172 421 132 c 0
 421 92 408.333333333 58 383 30 c 128
 357.666666667 2 326.333333333 -12 289 -12 c 0
 222.333333333 -12 165.666666667 9 119 51 c 128
 72.3333333333 93 49 144 49 204 c 1
 49 204 l 1
85 -145 m 1
 85 -154.333333333 87.6666666667 -163 93 -171 c 128
 98.3333333333 -179 105.666666667 -186 115 -192 c 0
 149 -215.333333333 190.833333333 -233.166666667 240.5 -245.5 c 128
 290.166666667 -257.833333333 346.333333333 -264 409 -264 c 0
 499 -264 577.166666667 -251.333333333 643.5 -226 c 128
 709.833333333 -200.666666667 755.666666667 -165.333333333 781 -120 c 1
 109 -120 l 2
 102.333333333 -120 96.6666666667 -122.5 92 -127.5 c 128
 87.3333333333 -132.5 85 -138.333333333 85 -145 c 1
 85 -145 l 1
EndSplineSet
Fore
SplineSet
85.3896484375 -167 m 0
 89.8671875 -115.814453125 139.03125 -92.013671875 188.038085938 -91 c 2
 1159.65136719 -84 l 1
 1164.43652344 -58.5185546875 1171.24804688 -20.021484375 1175.01269531 23 c 2
 1221.29394531 552 l 1
 1238.90429688 555.639648438 1287.78710938 560.139648438 1311.99316406 560 c 1
 1251.01367188 -137 l 1
 191.013671875 -137 l 2
 154.37890625 -137 139.116210938 -157.23046875 138.514648438 -177 c 0
 137.71484375 -220.909179688 275.141601562 -289.947265625 516.627929688 -290 c 0
 844.044921875 -290.067382812 933.080078125 -67.6630859375 948.7109375 111 c 0
 959.840820312 238.20703125 915.7421875 293.881835938 855.809570312 295 c 0
 792.599609375 296.1796875 752.876953125 252.642578125 747.28515625 209 c 1
 709.147460938 196 l 1
 720.55078125 287.595703125 798.826171875 347.432617188 884.358398438 347 c 0
 957.961914062 346.627929688 1062.28417969 289 1045.62402344 110 c 0
 1021.37402344 -150.860351562 855.084960938 -343 514.991210938 -343 c 0
 319.19140625 -343 74.6279296875 -290 85.3896484375 -167 c 0
EndSplineSet
Refer: 8 2958 N 1 0 0.0874887 1 20 0 2
LCarets2: 1 0
Ligature2: "'psts' Post Base Substitutions lookup 3 subtable" tml_Nya tml_MatraU
Colour: ffffff
EndChar

StartChar: tml_TtU
Encoding: 76 -1 76
GlifName: tml_T_tU_
Width: 1267
VWidth: 0
Flags: HMW
LayerCount: 2
Back
SplineSet
131 192 m 1
 131 86 158.666666667 -4.5 214 -79.5 c 128
 269.333333333 -154.5 335.666666667 -192 413 -192 c 0
 473 -192 524 -166.166666667 566 -114.5 c 128
 608 -62.8333333333 629 -0.666666666667 629 72 c 0
 629 112 619.5 146 600.5 174 c 128
 581.5 202 559 216 533 216 c 0
 519 216 504.666666667 211.666666667 490 203 c 128
 475.333333333 194.333333333 461.666666667 182.666666667 449 168 c 1
 449 0 l 1
 389 0 l 1
 389 480 l 1
 449 480 l 1
 449 234 l 1
 463 244 478.166666667 251.5 494.5 256.5 c 128
 510.833333333 261.5 527.666666667 264 545 264 c 0
 585 264 619 245.166666667 647 207.5 c 128
 675 169.833333333 689 124.666666667 689 72 c 0
 689 -14.6666666667 662 -88.3333333333 608 -149 c 128
 554 -209.666666667 489 -240 413 -240 c 0
 319.666666667 -240 240.333333333 -197.666666667 175 -113 c 128
 109.666666667 -28.3333333333 77 73.3333333333 77 192 c 0
 77 352 109.666666667 480.166666667 175 576.5 c 128
 240.333333333 672.833333333 327.666666667 721 437 721 c 0
 549.666666667 721 640 677.333333333 708 590 c 128
 776 502.666666667 810 386 810 240 c 2
 810 0 l 1
 749 0 l 1
 749 240 l 2
 749 370 720.666666667 474.5 664 553.5 c 128
 607.333333333 632.5 531.666666667 672 437 672 c 0
 343.666666667 672 269.333333333 628.333333333 214 541 c 128
 158.666666667 453.666666667 131 337.333333333 131 192 c 1
 131 192 l 1
EndSplineSet
Fore
SplineSet
502 0 m 1
 506.786132812 25.4814453125 517.096679688 103.978515625 520.860351562 147 c 2
 556.293945312 552 l 1
 575.98828125 555.639648438 622.869140625 560.139648438 649.993164062 560 c 1
 601.262695312 3 l 1
 502 0 l 1
110.633789062 293 m 0
 139.840820312 615 379.58203125 896.194335938 748.5234375 896.194335938 c 0
 1026.09960938 896.194335938 1247.13476562 673.53515625 1218.28125 357.40234375 c 1
 1186.91210938 -1 l 1
 1112.91210938 -1 l 1
 1116.97363281 11.568359375 1127.078125 69.478515625 1131.84863281 124 c 2
 1148.12109375 310 l 2
 1173.88476562 595.939453125 1016.61621094 800.891601562 699.291015625 797.466796875 c 0
 402.532226562 794.4375 197.65625 579 173.421875 302 c 0
 151.493164062 51.361328125 281.564453125 -175.568359375 545.426757812 -178 c 0
 728.03125 -179.346679688 848.494140625 -89.86328125 865.311523438 95 c 1
 870.4453125 163.068359375 844.799804688 266.33984375 731.37890625 267.227539062 c 0
 692.741210938 267.53125 624.15625 243.956054688 584.260742188 163 c 1
 574.547851562 212 l 1
 608.583007812 290.9140625 682.370117188 333.282226562 768.045898438 332 c 0
 866.827148438 330.521484375 982.6328125 250.9140625 969.13671875 93 c 0
 954.543945312 -77.62109375 822.223632812 -245 544.565429688 -245 c 0
 213.149414062 -245 84.828125 7.83984375 110.633789062 293 c 0
EndSplineSet
LCarets2: 1 0
Ligature2: "'psts' Post Base Substitutions lookup 3 subtable" tml_Tta tml_MatraU
EndChar

StartChar: tml_NnU
Encoding: 77 -1 77
GlifName: tml_N_nU_
Width: 2154
VWidth: 0
Flags: HMW
LayerCount: 2
Back
SplineSet
185 132 m 1
 185 105.333333333 192 82.6666666667 206 64 c 128
 220 45.3333333333 237 36 257 36 c 256
 277 36 294 45.5 308 64.5 c 128
 322 83.5 329 106 329 132 c 0
 329 158.666666667 322 181.5 308 200.5 c 128
 294 219.5 277 229 257 229 c 256
 237 229 220 219.5 206 200.5 c 128
 192 181.5 185 158.666666667 185 132 c 1
 185 132 l 1
473 192 m 1
 473 149.333333333 478.833333333 112.666666667 490.5 82 c 128
 502.166666667 51.3333333333 516.333333333 36 533 36 c 256
 549.666666667 36 563.833333333 51.1666666667 575.5 81.5 c 128
 587.166666667 111.833333333 593 148.666666667 593 192 c 0
 593 221.333333333 587.833333333 249.833333333 577.5 277.5 c 128
 567.166666667 305.166666667 552.333333333 330.666666667 533 354 c 1
 513.666666667 330.666666667 498.833333333 305.166666667 488.5 277.5 c 128
 478.166666667 249.833333333 473 221.333333333 473 192 c 1
 473 192 l 1
761 192 m 1
 761 149.333333333 766.833333333 112.666666667 778.5 82 c 128
 790.166666667 51.3333333333 804.333333333 36 821 36 c 256
 837.666666667 36 851.833333333 51.1666666667 863.5 81.5 c 128
 875.166666667 111.833333333 881 148.666666667 881 192 c 0
 881 223.333333333 875.833333333 253.333333333 865.5 282 c 128
 855.166666667 310.666666667 840.333333333 336.666666667 821 360 c 1
 801.666666667 336.666666667 786.833333333 310.666666667 776.5 282 c 128
 766.166666667 253.333333333 761 223.333333333 761 192 c 1
 761 192 l 1
953 480 m 1
 1016.33333333 480 1070.33333333 453 1115 399 c 128
 1159.66666667 345 1182 280 1182 204 c 0
 1182 152 1173.66666667 102.166666667 1157 54.5 c 128
 1140.33333333 6.83333333333 1116.33333333 -35.3333333333 1085 -72 c 1
 1253 -72 l 1
 1253 480 l 1
 1313 480 l 1
 1313 -120 l 1
 1037 -120 l 1
 985.666666667 -180.666666667 912.833333333 -227.833333333 818.5 -261.5 c 128
 724.166666667 -295.166666667 617 -312 497 -312 c 0
 419 -312 348 -302.833333333 284 -284.5 c 128
 220 -266.166666667 167 -239.333333333 125 -204 c 0
 110.333333333 -190.666666667 98.6666666667 -175.833333333 90 -159.5 c 128
 81.3333333333 -143.166666667 77 -126 77 -108 c 0
 77 -98 80.6666666667 -89.5 88 -82.5 c 128
 95.3333333333 -75.5 103.666666667 -72 113 -72 c 2
 1014 -72 l 1
 1049.33333333 -30.6666666667 1076 13.8333333333 1094 61.5 c 128
 1112 109.166666667 1121 156.666666667 1121 204 c 0
 1121 267.333333333 1104.5 321.333333333 1071.5 366 c 128
 1038.5 410.666666667 999 433 953 433 c 0
 939 433 923.833333333 430.333333333 907.5 425 c 128
 891.166666667 419.666666667 874.333333333 412 857 402 c 1
 884.333333333 370 905.166666667 337 919.5 303 c 128
 933.833333333 269 941 236 941 204 c 0
 941 144 929.166666667 93 905.5 51 c 128
 881.833333333 9 853.666666667 -12 821 -12 c 256
 788.333333333 -12 760.166666667 9 736.5 51 c 128
 712.833333333 93 701 144 701 204 c 0
 701 246 707.833333333 284.333333333 721.5 319 c 128
 735.166666667 353.666666667 754.333333333 381.333333333 779 402 c 1
 763 416 746.166666667 426.5 728.5 433.5 c 128
 710.833333333 440.5 693.666666667 444 677 444 c 256
 660.333333333 444 642.833333333 439.833333333 624.5 431.5 c 128
 606.166666667 423.166666667 587.666666667 411.333333333 569 396 c 1
 595.666666667 374 616.333333333 345.166666667 631 309.5 c 128
 645.666666667 273.833333333 653 234.666666667 653 192 c 0
 653 136 641.166666667 88 617.5 48 c 128
 593.833333333 8 565.666666667 -12 533 -12 c 256
 500.333333333 -12 472.166666667 8 448.5 48 c 128
 424.833333333 88 413 136 413 192 c 0
 413 230 419.833333333 266.833333333 433.5 302.5 c 128
 447.166666667 338.166666667 466.333333333 371.333333333 491 402 c 1
 475 416 455.166666667 426.5 431.5 433.5 c 128
 407.833333333 440.5 381.666666667 444 353 444 c 0
 283.666666667 444 224.333333333 420.666666667 175 374 c 128
 125.666666667 327.333333333 101 270.666666667 101 204 c 0
 101 168 106.833333333 135.333333333 118.5 106 c 128
 130.166666667 76.6666666667 146.333333333 53.3333333333 167 36 c 1
 157 52.6666666667 149.5 69.1666666667 144.5 85.5 c 128
 139.5 101.833333333 137 117.333333333 137 132 c 0
 137 172 148.833333333 206 172.5 234 c 128
 196.166666667 262 224.333333333 276 257 276 c 256
 289.666666667 276 317.833333333 262 341.5 234 c 128
 365.166666667 206 377 172 377 132 c 0
 377 92 363 58 335 30 c 128
 307 2 272.666666667 -12 232 -12 c 0
 182.666666667 -12 140.5 9 105.5 51 c 128
 70.5 93 53 144 53 204 c 0
 53 283.333333333 82.3333333333 351.166666667 141 407.5 c 128
 199.666666667 463.833333333 270.333333333 492 353 492 c 0
 391 492 425.333333333 487.5 456 478.5 c 128
 486.666666667 469.5 512.333333333 456 533 438 c 1
 553.666666667 455.333333333 576.5 468.666666667 601.5 478 c 128
 626.5 487.333333333 651.666666667 492 677 492 c 0
 705 492 731.833333333 487.5 757.5 478.5 c 128
 783.166666667 469.5 806.333333333 456 827 438 c 1
 843 452 861.833333333 462.5 883.5 469.5 c 128
 905.166666667 476.5 928.333333333 480 953 480 c 1
 953 480 l 1
161 -120 m 1
 154.333333333 -120 148.666666667 -121.833333333 144 -125.5 c 128
 139.333333333 -129.166666667 137 -133.333333333 137 -138 c 0
 137 -144 144.833333333 -152.833333333 160.5 -164.5 c 128
 176.166666667 -176.166666667 188.333333333 -185.333333333 197 -192 c 0
 225 -215.333333333 264.833333333 -233.166666667 316.5 -245.5 c 128
 368.166666667 -257.833333333 428.333333333 -264 497 -264 c 0
 593.666666667 -264 682.166666667 -251.5 762.5 -226.5 c 128
 842.833333333 -201.5 910.333333333 -166 965 -120 c 1
 161 -120 l 1
 161 -120 l 1
EndSplineSet
Fore
SplineSet
54.689453125 -175 m 0
 42.1318359375 -318.538085938 454.395507812 -372.814453125 794.498046875 -371.498046875 c 0
 1281.64648438 -369.612304688 1751.72558594 -144.625 1787.25976562 243 c 0
 1806.21679688 449.563476562 1676.16992188 582 1494.91894531 582 c 0
 1280.00195312 582 1124.67480469 415.579101562 1104.53613281 189 c 0
 1093.26269531 62.1201171875 1143.9609375 -21.1826171875 1259.1640625 -21 c 0
 1384.60058594 -20.787109375 1445.79394531 102.466796875 1455.19824219 208 c 0
 1472.7109375 404.419921875 1325.35449219 586.041992188 1086.19140625 584.40234375 c 0
 859.504882812 582.74609375 688.041992188 408.3515625 668.186523438 185 c 0
 658.045898438 71.0546875 700.494140625 -20.185546875 814.250976562 -20 c 0
 931.16015625 -19.796875 1008.27539062 85.0078125 1019.0234375 206 c 0
 1039.52734375 436.872070312 839.643554688 585.73046875 595.26953125 586 c 0
 384.225585938 586.231445312 181.560546875 447.301757812 160.59765625 224 c 0
 147.366210938 83.0576171875 234.538085938 -26.23828125 397.725585938 -26 c 0
 528.123046875 -25.8095703125 588.995117188 74.751953125 596.036132812 149 c 0
 604.568359375 238.987304688 541.864257812 296.413085938 458.984375 297 c 0
 358.23046875 297.713867188 282.1015625 219.059570312 271.576171875 118 c 0
 264.694335938 51.91796875 286.684570312 31.0234375 304.787109375 9 c 1
 323.1875 25 l 1
 310.379882812 50.80078125 306.171875 71.4951171875 312.499023438 120 c 0
 321.365234375 187.979492188 377.129882812 222.147460938 425.422851562 222 c 0
 479.540039062 221.834960938 516.377929688 183.50390625 511.548828125 132 c 0
 506.62109375 79.4541015625 467.604492188 32.0185546875 391.799804688 32 c 0
 288.689453125 31.974609375 204.8046875 101.65625 215.03515625 229 c 0
 229.689453125 411.41015625 408.569335938 532.244140625 587.282226562 529 c 0
 782.978515625 525.447265625 952.649414062 394.9765625 933.2734375 186 c 0
 925.545898438 102.904296875 878.978515625 40.03125 818.500976562 40 c 0
 760.125 39.96875 721.349609375 96.87109375 729.88671875 193 c 0
 749.86328125 418.240234375 917.0546875 528.204101562 1076.16796875 527.098632812 c 0
 1276.30957031 525.750976562 1382.29003906 369.850585938 1368.67382812 202 c 0
 1361.39257812 112.028320312 1318.015625 39.0361328125 1256.41308594 39 c 0
 1201.24804688 38.966796875 1158.78027344 85.267578125 1168.1484375 196 c 0
 1185.58007812 402.9375 1315.7578125 527.19921875 1481.01953125 526 c 0
 1626.82714844 524.908203125 1709.28613281 414.748046875 1693.91015625 239 c 0
 1661.83007812 -127.677734375 1270.72753906 -303.44140625 802.267578125 -305.549804688 c 0
 454.512695312 -307.115234375 127.095703125 -254.432617188 128.33984375 -179 c 0
 128.665039062 -159.248046875 146.591796875 -146 183.2265625 -146 c 2
 1431.2265625 -146 l 1
 2046.2265625 -146 l 1
 2044.02246094 -111.540039062 2050.15332031 -32.5419921875 2054.57519531 18 c 2
 2101.99316406 560 l 1
 2077.78710938 560.139648438 2019.90429688 555.639648438 2002.29394531 552 c 1
 1959.07421875 58 l 2
 1955.81738281 20.77734375 1952.97070312 -51.373046875 1952.65136719 -84 c 1
 1924.32226562 -88.779296875 1744.33398438 -91.0576171875 1700.03808594 -91 c 2
 161.213867188 -89 l 2
 112.30078125 -88.9365234375 59.16796875 -123.814453125 54.689453125 -175 c 0
EndSplineSet
LCarets2: 1 0
Ligature2: "'psts' Post Base Substitutions lookup 3 subtable" tml_Nna tml_MatraU
Colour: ffffff
EndChar

StartChar: tml_TU
Encoding: 78 -1 78
GlifName: tml_T_U_
Width: 1262
VWidth: 0
Flags: HMW
LayerCount: 2
Back
SplineSet
214 264 m 1
 334 264 l 1
 334 433 l 1
 214 433 l 1
 214 264 l 1
 214 264 l 1
94 156 m 1
 94 123.333333333 106.833333333 95.1666666667 132.5 71.5 c 128
 158.166666667 47.8333333333 189.333333333 36 226 36 c 0
 255.333333333 36 280.666666667 45.5 302 64.5 c 128
 323.333333333 83.5 334 106 334 132 c 2
 334 216 l 1
 172 216 l 2
 150.666666667 216 132.333333333 210.333333333 117 199 c 128
 101.666666667 187.666666667 94 173.333333333 94 156 c 1
 94 156 l 1
82 -120 m 1
 74 -120 67 -122.5 61 -127.5 c 128
 55 -132.5 52 -138.333333333 52 -145 c 0
 52 -171.666666667 76.6666666667 -198.166666667 126 -224.5 c 128
 175.333333333 -250.833333333 224.333333333 -264 273 -264 c 0
 325 -264 373.666666667 -251.333333333 419 -226 c 128
 464.333333333 -200.666666667 499.666666667 -165.333333333 525 -120 c 1
 82 -120 l 1
 82 -120 l 1
4 -145 m 1
 4 -125 11.5 -107.833333333 26.5 -93.5 c 128
 41.5 -79.1666666667 60 -72 82 -72 c 2
 544 -72 l 1
 550 -56 554.5 -34.8333333333 557.5 -8.5 c 128
 560.5 17.8333333333 562 48.6666666667 562 84 c 0
 562 121.333333333 551.333333333 152.666666667 530 178 c 128
 508.666666667 203.333333333 483.333333333 216 454 216 c 2
 394 216 l 1
 394 132 l 2
 394 92 377.5 58 344.5 30 c 128
 311.5 2 272 -12 226 -12 c 0
 173.333333333 -12 128 4.5 90 37.5 c 128
 52 70.5 33 110 33 156 c 0
 33 185.333333333 44.8333333333 210.666666667 68.5 232 c 128
 92.1666666667 253.333333333 120.333333333 264 153 264 c 1
 153 480 l 1
 562 480 l 1
 562 433 l 1
 394 433 l 1
 394 264 l 1
 454 264 l 2
 500 264 539.5 246.333333333 572.5 211 c 128
 605.5 175.666666667 622 133.333333333 622 84 c 0
 622 48.6666666667 620.333333333 17.8333333333 617 -8.5 c 128
 613.666666667 -34.8333333333 609.333333333 -56 604 -72 c 1
 718 -72 l 1
 718 480 l 1
 778 480 l 1
 778 -120 l 1
 592 -120 l 1
 564.666666667 -178.666666667 522.166666667 -225.333333333 464.5 -260 c 128
 406.833333333 -294.666666667 343 -312 273 -312 c 0
 199 -312 135.666666667 -295.666666667 83 -263 c 128
 30.3333333333 -230.333333333 4 -191 4 -145 c 1
 4 -145 l 1
EndSplineSet
Fore
SplineSet
46.3896484375 -167 m 4
 35.6279296875 -290 243.791015625 -343 410.991210938 -343 c 4
 762.46484375 -343 918.502929688 -131.547851562 936.911132812 79 c 4
 951.537109375 246.287109375 867.6953125 324.377929688 726.521484375 326 c 13
 330.43359375 325 l 6
 215.689453125 322.458984375 140.509765625 268.076171875 129.880859375 164 c 4
 120.625 73.35546875 184.803710938 -23 352.987304688 -23 c 4
 519.094726562 -23 613.602539062 84.0673828125 628.509765625 223 c 5
 634.333984375 301 l 5
 652.70703125 511 l 5
 694.975585938 510.958984375 786.887695312 511.266601562 826.70703125 511 c 5
 826.627929688 528.333007812 822.39453125 559.666992188 817.868164062 570 c 5
 676.147460938 560.47265625 481.58203125 561.265625 315.081054688 561 c 5
 312.803710938 505.514648438 309.278320312 440.999023438 303.37109375 370 c 4
 299.212890625 320.028320312 289.458984375 291 289.458984375 291 c 5
 351.458984375 291 l 5
 357.845703125 364 l 6
 362.482421875 417 364.111328125 458.611328125 368.314453125 511 c 5
 411.706054688 511.171875 478.776367188 511.69140625 560.70703125 511 c 5
 548.37109375 370 l 5
 541.268554688 301 l 5
 539.546875 283 l 5
 533.509765625 223 l 6
 521.077148438 99.41796875 449.58984375 34.3564453125 347.974609375 34 c 4
 240.5625 33.623046875 178.592773438 98.21875 184.610351562 167 c 4
 190.262695312 231.600585938 234.73828125 273 318.884765625 273 c 6
 552.884765625 273 l 5
 678.884765625 273 l 5
 811.919921875 271.78125 844.568359375 177.950195312 836.348632812 84 c 4
 816.911132812 -138.173828125 677.678710938 -288.08203125 419.803710938 -288 c 4
 206.126953125 -287.921875 98.328125 -220.131835938 99.5146484375 -177 c 4
 99.8564453125 -160.196289062 114.854492188 -143 151.489257812 -143 c 6
 1149.48925781 -143 l 5
 1152.45214844 -89.79296875 1150.00195312 -85.501953125 1158.75 20 c 6
 1205.99316406 560 l 5
 1180.97949219 560.139648438 1130.48046875 555.639648438 1112.29394531 552 c 5
 1067.23730469 37 l 6
 1063.33789062 -7.572265625 1059.82226562 -62.986328125 1061.17578125 -78 c 5
 1031.89941406 -80.7021484375 1004.77148438 -87.361328125 912.30078125 -88 c 6
 149.30078125 -88 l 6
 100.381835938 -88 50.8671875 -115.814453125 46.3896484375 -167 c 4
EndSplineSet
LCarets2: 1 0
Ligature2: "'psts' Post Base Substitutions lookup 3 subtable" tml_Ta tml_MatraU
Colour: ffffff
EndChar

